<svg width="301" height="208" viewBox="0 0 301 208" fill="none" xmlns="http://www.w3.org/2000/svg">
<path d="M62.5 133.095V95.5947H50V108.095H37.5V133.095H62.5ZM87.5 170.595H62.5V145.595H12.5V108.095H25V95.5947H37.5V83.0947H50V70.5947H62.5V58.0947H87.5V170.595ZM112.484 95.5947V83.0947H124.984V58.0947H149.984V83.0947H174.984V95.5947H149.984V158.095H174.984V170.595H137.484V158.095H124.984V95.5947H112.484ZM262.453 95.5947H274.953V170.595H249.953V95.5947H224.953V170.595H199.953V58.0947H224.953V83.0947H262.453V95.5947Z" fill="#E8E8E8"/>
<path d="M75.5 125.5V88H63V100.5H50.5V125.5H75.5ZM100.5 163H75.5V138H25.5V100.5H38V88H50.5V75.5H63V63H75.5V50.5H100.5V163ZM125.484 88V75.5H137.984V50.5H162.984V75.5H187.984V88H162.984V150.5H187.984V163H150.484V150.5H137.984V88H125.484ZM275.453 88H287.953V163H262.953V88H237.953V163H212.953V50.5H237.953V75.5H275.453V88Z" fill="#4CD30C"/>
<g style="mix-blend-mode:overlay">
<rect x="89" y="50" width="12" height="6" fill="#D9D9D9"/>
</g>
<g style="mix-blend-mode:overlay">
<rect x="151" y="50" width="12" height="6" fill="#D9D9D9"/>
</g>
<g style="mix-blend-mode:overlay">
<rect x="232" y="50" width="6" height="6" fill="#D9D9D9"/>
</g>
<g style="mix-blend-mode:overlay">
<rect x="264" y="75" width="12" height="6" fill="#D9D9D9"/>
</g>
<g style="mix-blend-mode:overlay">
<rect x="276" y="88" width="12" height="6" fill="#D9D9D9"/>
</g>
<g style="mix-blend-mode:overlay">
<rect x="176" y="75" width="12" height="6" fill="#D9D9D9"/>
</g>
</svg>
