<?xml version="1.0" encoding="utf-8"?>
<!-- Generator: Adobe Illustrator 27.0.1, SVG Export Plug-In . SVG Version: 6.00 Build 0)  -->
<svg version="1.1" id="圖層_1" xmlns="http://www.w3.org/2000/svg" xmlns:xlink="http://www.w3.org/1999/xlink" x="0px" y="0px"
	 viewBox="0 0 288 312" style="enable-background:new 0 0 288 312;" xml:space="preserve">
<style type="text/css">
	.st0{fill:#BBEBEC;}
	.st1{fill:#E8E8E8;}
</style>
<polygon class="st0" points="264,48 264,36 252,36 252,24 240,24 228,24 216,24 216,12 204,12 192,12 180,12 168,12 156,12 144,12 
	132,12 120,12 120,24 108,24 108,36 96,36 96,48 84,48 84,60 84,72 72,72 72,168 60,168 48,168 48,180 36,180 36,192 24,192 24,204 
	12,204 12,216 12,228 24,228 36,228 48,228 48,216 60,216 60,204 72,204 72,300 240,300 240,72 252,72 252,60 264,60 276,60 276,48 
	"/>
<path d="M60,216h12v12H60V216z"/>
<path d="M60,228h12v12H60V228z"/>
<path d="M60,240h12v12H60V240z"/>
<path d="M60,252h12v12H60V252z"/>
<path d="M60,264h12v12H60V264z"/>
<path d="M60,276h12v12H60V276z"/>
<path d="M60,288h12v12H60V288z"/>
<path d="M60,204h12v12H60V204z"/>
<path d="M60,192h12v12H60V192z"/>
<path d="M60,156h12v12H60V156z"/>
<polygon points="240,72 240,84 240,96 240,108 240,120 240,132 240,144 240,156 240,168 240,180 240,192 240,204 240,216 240,228 
	240,240 240,252 240,264 240,276 240,288 240,300 252,300 252,288 252,276 252,264 252,252 252,240 252,228 252,216 252,204 
	252,192 252,180 252,168 252,156 252,144 252,132 252,120 252,108 252,96 252,84 252,72 "/>
<polygon points="72,36 72,48 72,60 60,60 60,72 60,84 60,96 60,108 60,120 60,132 60,144 60,156 72,156 72,144 72,132 72,120 
	72,108 72,96 72,84 72,72 84,72 84,60 84,48 84,36 "/>
<polygon points="108,12 96,12 96,24 84,24 84,36 84,48 96,48 96,36 108,36 108,24 120,24 120,12 "/>
<polygon points="204,0 192,0 180,0 168,0 156,0 144,0 132,0 120,0 108,0 108,12 120,12 132,12 144,12 156,12 168,12 180,12 192,12 
	204,12 216,12 216,0 "/>
<path d="M216,12h12v12h-12V12z"/>
<path d="M228,12h12v12h-12V12z"/>
<path d="M240,12h12v12h-12V12z"/>
<path d="M252,24h12v12h-12V24z"/>
<path d="M264,36h12v12h-12V36z"/>
<path d="M264,24h12v12h-12V24z"/>
<path d="M276,36h12v12h-12V36z"/>
<path d="M276,48h12v12h-12V48z"/>
<path d="M264,60h12v12h-12V60z"/>
<path d="M252,60h12v12h-12V60z"/>
<path d="M96,300h12v12H96V300z"/>
<path d="M84,300h12v12H84V300z"/>
<path d="M72,300h12v12H72V300z"/>
<path d="M108,300h12v12h-12V300z"/>
<path d="M120,300h12v12h-12V300z"/>
<path d="M132,300h12v12h-12V300z"/>
<path d="M144,300h12v12h-12V300z"/>
<path d="M156,300h12v12h-12V300z"/>
<path d="M168,300h12v12h-12V300z"/>
<path d="M180,300h12v12h-12V300z"/>
<path d="M192,300h12v12h-12V300z"/>
<path d="M204,300h12v12h-12V300z"/>
<path d="M216,300h12v12h-12V300z"/>
<path d="M228,300h12v12h-12V300z"/>
<polygon class="st1" points="138,90 138,78 114,78 114,90 102,90 102,126 114,126 114,138 138,138 138,126 150,126 150,102 150,90 
	"/>
<path d="M114,102h12v12h-12V102z"/>
<path d="M102,90h24v24h-24V90z"/>
<polygon class="st1" points="210,90 210,78 186,78 186,90 174,90 174,126 186,126 186,138 210,138 210,126 222,126 222,102 222,90 
	"/>
<path d="M174,90h24v24h-24V90z"/>
<path d="M60,156H48v12h12V156z"/>
<path d="M48,168H36v12h12V168z"/>
<path d="M36,180H24v12h12V180z"/>
<path d="M24,192H12v12h12V192z"/>
<path d="M12,204H0v12h12V204z"/>
<path d="M12,216H0v12h12V216z"/>
<path d="M12,228H0v12h12V228z"/>
<path d="M24,228H12v12h12V228z"/>
<path d="M36,228H24v12h12V228z"/>
<path d="M48,228H36v12h12V228z"/>
<path d="M84,192H72v12h12V192z"/>
<path d="M84,156H72v12h12V156z"/>
<path d="M60,216H48v12h12V216z"/>
</svg>
