<svg width="1128" height="240" viewBox="0 0 1128 240" fill="none" xmlns="http://www.w3.org/2000/svg">
<g clip-path="url(#clip0_116_9170)">
<rect x="24" width="24" height="24" fill="#C9FAFB"/>
<rect y="24" width="24" height="24" fill="#C9FAFB"/>
<rect x="72" width="24" height="24" fill="#C9FAFB"/>
<rect x="120" width="24" height="24" fill="#C9FAFB"/>
<rect x="168" width="24" height="24" fill="#C9FAFB"/>
<rect x="216" width="24" height="24" fill="#C9FAFB"/>
<rect x="264" width="24" height="24" fill="#C9FAFB"/>
<rect x="312" width="24" height="24" fill="#C9FAFB"/>
<rect x="360" width="24" height="24" fill="#C9FAFB"/>
<rect x="408" width="24" height="24" fill="#C9FAFB"/>
<rect x="456" width="24" height="24" fill="#C9FAFB"/>
<rect x="504" width="24" height="24" fill="#C9FAFB"/>
<rect x="552" width="24" height="24" fill="#C9FAFB"/>
<rect x="600" width="24" height="24" fill="#C9FAFB"/>
<rect x="648" width="24" height="24" fill="#C9FAFB"/>
<rect x="696" width="24" height="24" fill="#C9FAFB"/>
<rect x="744" width="24" height="24" fill="#C9FAFB"/>
<rect x="792" width="24" height="24" fill="#C9FAFB"/>
<rect x="840" width="24" height="24" fill="#C9FAFB"/>
<rect x="888" width="24" height="24" fill="#C9FAFB"/>
<rect x="936" width="24" height="24" fill="#C9FAFB"/>
<rect x="984" width="24" height="24" fill="#C9FAFB"/>
<rect x="1032" width="24" height="24" fill="#C9FAFB"/>
<rect x="1080" width="24" height="24" fill="#C9FAFB"/>
<rect width="24" height="24" fill="#FFE43E"/>
<rect y="48" width="24" height="24" fill="#FFE43E"/>
<rect y="96" width="24" height="24" fill="#FFE43E"/>
<rect y="144" width="24" height="24" fill="#FFE43E"/>
<rect y="192" width="24" height="24" fill="#FFE43E"/>
<rect x="24" y="216" width="24" height="24" fill="#FFE43E"/>
<rect x="72" y="216" width="24" height="24" fill="#FFE43E"/>
<rect x="72" y="216" width="24" height="24" fill="#FFE43E"/>
<rect x="72" y="216" width="24" height="24" fill="#FFE43E"/>
<rect x="120" y="216" width="24" height="24" fill="#FFE43E"/>
<rect x="168" y="216" width="24" height="24" fill="#FFE43E"/>
<rect x="216" y="216" width="24" height="24" fill="#FFE43E"/>
<rect x="264" y="216" width="24" height="24" fill="#FFE43E"/>
<rect x="312" y="216" width="24" height="24" fill="#FFE43E"/>
<rect x="360" y="216" width="24" height="24" fill="#FFE43E"/>
<rect x="408" y="216" width="24" height="24" fill="#FFE43E"/>
<rect x="456" y="216" width="24" height="24" fill="#FFE43E"/>
<rect x="504" y="216" width="24" height="24" fill="#FFE43E"/>
<rect x="552" y="216" width="24" height="24" fill="#FFE43E"/>
<rect x="600" y="216" width="24" height="24" fill="#FFE43E"/>
<rect x="648" y="216" width="24" height="24" fill="#FFE43E"/>
<rect x="696" y="216" width="24" height="24" fill="#FFE43E"/>
<rect x="744" y="216" width="24" height="24" fill="#FFE43E"/>
<rect x="792" y="216" width="24" height="24" fill="#FFE43E"/>
<rect x="840" y="216" width="24" height="24" fill="#FFE43E"/>
<rect x="888" y="216" width="24" height="24" fill="#FFE43E"/>
<rect x="936" y="216" width="24" height="24" fill="#FFE43E"/>
<rect x="984" y="216" width="24" height="24" fill="#FFE43E"/>
<rect x="1032" y="216" width="24" height="24" fill="#FFE43E"/>
<rect x="48" width="24" height="24" fill="#FFE43E"/>
<rect x="96" width="24" height="24" fill="#FFE43E"/>
<rect x="144" width="24" height="24" fill="#FFE43E"/>
<rect x="192" width="24" height="24" fill="#FFE43E"/>
<rect x="240" width="24" height="24" fill="#FFE43E"/>
<rect x="288" width="24" height="24" fill="#FFE43E"/>
<rect x="336" width="24" height="24" fill="#FFE43E"/>
<rect x="384" width="24" height="24" fill="#FFE43E"/>
<rect x="432" width="24" height="24" fill="#FFE43E"/>
<rect x="480" width="24" height="24" fill="#FFE43E"/>
<rect x="528" width="24" height="24" fill="#FFE43E"/>
<rect x="576" width="24" height="24" fill="#FFE43E"/>
<rect x="624" width="24" height="24" fill="#FFE43E"/>
<rect x="672" width="24" height="24" fill="#FFE43E"/>
<rect x="720" width="24" height="24" fill="#FFE43E"/>
<rect x="768" width="24" height="24" fill="#FFE43E"/>
<rect x="816" width="24" height="24" fill="#FFE43E"/>
<rect x="864" width="24" height="24" fill="#FFE43E"/>
<rect x="912" width="24" height="24" fill="#FFE43E"/>
<rect x="960" width="24" height="24" fill="#FFE43E"/>
<rect x="1008" width="24" height="24" fill="#FFE43E"/>
<rect x="1056" width="24" height="24" fill="#FFE43E"/>
<rect x="1104" width="24" height="24" fill="#FFE43E"/>
<rect x="1104" y="48" width="24" height="24" fill="#FFE43E"/>
<rect x="1104" y="96" width="24" height="24" fill="#FFE43E"/>
<rect x="1104" y="144" width="24" height="24" fill="#FFE43E"/>
<rect x="1104" y="192" width="24" height="24" fill="#FFE43E"/>
<rect x="1080" y="216" width="24" height="24" fill="#FFE43E"/>
<rect x="1104" y="24" width="24" height="24" fill="#C9FAFB"/>
<rect x="1104" y="72" width="24" height="24" fill="#C9FAFB"/>
<rect x="1104" y="120" width="24" height="24" fill="#C9FAFB"/>
<rect x="1104" y="168" width="24" height="24" fill="#C9FAFB"/>
<rect x="1104" y="216" width="24" height="24" fill="#C9FAFB"/>
<rect x="1056" y="216" width="24" height="24" fill="#C9FAFB"/>
<rect x="1008" y="216" width="24" height="24" fill="#C9FAFB"/>
<rect x="960" y="216" width="24" height="24" fill="#C9FAFB"/>
<rect x="912" y="216" width="24" height="24" fill="#C9FAFB"/>
<rect x="864" y="216" width="24" height="24" fill="#C9FAFB"/>
<rect x="816" y="216" width="24" height="24" fill="#C9FAFB"/>
<rect x="768" y="216" width="24" height="24" fill="#C9FAFB"/>
<rect x="720" y="216" width="24" height="24" fill="#C9FAFB"/>
<rect x="672" y="216" width="24" height="24" fill="#C9FAFB"/>
<rect x="624" y="216" width="24" height="24" fill="#C9FAFB"/>
<rect x="576" y="216" width="24" height="24" fill="#C9FAFB"/>
<rect x="528" y="216" width="24" height="24" fill="#C9FAFB"/>
<rect x="480" y="216" width="24" height="24" fill="#C9FAFB"/>
<rect x="432" y="216" width="24" height="24" fill="#C9FAFB"/>
<rect x="384" y="216" width="24" height="24" fill="#C9FAFB"/>
<rect x="336" y="216" width="24" height="24" fill="#C9FAFB"/>
<rect x="288" y="216" width="24" height="24" fill="#C9FAFB"/>
<rect x="240" y="216" width="24" height="24" fill="#C9FAFB"/>
<rect x="192" y="216" width="24" height="24" fill="#C9FAFB"/>
<rect x="144" y="216" width="24" height="24" fill="#C9FAFB"/>
<rect x="96" y="216" width="24" height="24" fill="#C9FAFB"/>
<rect x="48" y="216" width="24" height="24" fill="#C9FAFB"/>
<rect y="216" width="24" height="24" fill="#C9FAFB"/>
<rect y="168" width="24" height="24" fill="#C9FAFB"/>
<rect y="120" width="24" height="24" fill="#C9FAFB"/>
<rect y="72" width="24" height="24" fill="#C9FAFB"/>
</g>
<defs>
<clipPath id="clip0_116_9170">
<rect width="1128" height="240" fill="white"/>
</clipPath>
</defs>
</svg>
