<svg width="316" height="377" viewBox="0 0 316 377" fill="none" xmlns="http://www.w3.org/2000/svg">
<path fill-rule="evenodd" clip-rule="evenodd" d="M3.04762 320H24.5976V341.579H3.04762V320ZM20.2876 324.316H7.35761V337.263H20.2876V324.316Z" fill="#E8E8E8" fill-opacity="0.5"/>
<path fill-rule="evenodd" clip-rule="evenodd" d="M36.45 373.409H58V351.829H36.45V373.409ZM53.69 356.145V369.093H40.76V356.145H53.69Z" fill="#E8E8E8" fill-opacity="0.5"/>
<path d="M36.45 328.632H45.07V320H49.38V328.632H58V332.948H49.38V341.579H45.07V332.948H36.45V328.632Z" fill="#E8E8E8" fill-opacity="0.5"/>
<path fill-rule="evenodd" clip-rule="evenodd" d="M14.092 348.778L0 362.889L14.092 377L28.1839 362.889L14.092 348.778ZM14.092 370.896L6.09525 362.889L14.092 354.881L22.0887 362.889L14.092 370.896Z" fill="#E8E8E8" fill-opacity="0.5"/>
<path d="M284 189L296.8 201.8L284 214.6L271.2 201.8L284 189Z" fill="#E8E8E8" fill-opacity="0.5"/>
<path d="M264.8 208.2L277.6 221L264.8 233.8L252 221L264.8 208.2Z" fill="#E8E8E8" fill-opacity="0.5"/>
<path d="M303.2 208.2L316 221L303.2 233.8L290.4 221L303.2 208.2Z" fill="#E8E8E8" fill-opacity="0.5"/>
<path d="M284 227.4L296.8 240.2L284 253L271.2 240.2L284 227.4Z" fill="#E8E8E8" fill-opacity="0.5"/>
<path d="M71 0H77.6667V6.66667H71V0Z" fill="#E8E8E8" fill-opacity="0.5"/>
<path d="M71 6.66667H77.6667V13.3333H71V6.66667Z" fill="#E8E8E8" fill-opacity="0.5"/>
<path d="M71 13.3333H77.6667V20H71V13.3333Z" fill="#E8E8E8" fill-opacity="0.5"/>
<path d="M84.3333 10.8333H91V17.5H84.3333V10.8333Z" fill="#E8E8E8" fill-opacity="0.5"/>
<path d="M84.3333 35.8333H91V42.5H84.3333V35.8333Z" fill="#E8E8E8" fill-opacity="0.5"/>
<path d="M91 10.8333H97.6667V17.5H91V10.8333Z" fill="#E8E8E8" fill-opacity="0.5"/>
<path d="M91 35.8333H97.6667V42.5H91V35.8333Z" fill="#E8E8E8" fill-opacity="0.5"/>
<path d="M97.6667 10.8333H104.333V17.5H97.6667V10.8333Z" fill="#E8E8E8" fill-opacity="0.5"/>
<path d="M97.6667 35.8333H104.333V42.5H97.6667V35.8333Z" fill="#E8E8E8" fill-opacity="0.5"/>
<path d="M104.333 10.8333H111V17.5H104.333V10.8333Z" fill="#E8E8E8" fill-opacity="0.5"/>
<path d="M104.333 35.8333H111V42.5H104.333V35.8333Z" fill="#E8E8E8" fill-opacity="0.5"/>
<path d="M111 10.8333H117.667V17.5H111V10.8333Z" fill="#E8E8E8" fill-opacity="0.5"/>
<path d="M111 35.8333H117.667V42.5H111V35.8333Z" fill="#E8E8E8" fill-opacity="0.5"/>
<path d="M117.667 10.8333H124.333V17.5H117.667V10.8333Z" fill="#E8E8E8" fill-opacity="0.5"/>
<path d="M124.333 10.8333H131V17.5H124.333V10.8333Z" fill="#E8E8E8" fill-opacity="0.5"/>
<path d="M84.3333 17.5H91V24.1667H84.3333V17.5Z" fill="#E8E8E8" fill-opacity="0.5"/>
<path d="M84.3333 42.5H91V49.1667H84.3333V42.5Z" fill="#E8E8E8" fill-opacity="0.5"/>
<path d="M91 17.5H97.6667V24.1667H91V17.5Z" fill="#E8E8E8" fill-opacity="0.5"/>
<path d="M91 42.5H97.6667V49.1667H91V42.5Z" fill="#E8E8E8" fill-opacity="0.5"/>
<path d="M97.6667 17.5H104.333V24.1667H97.6667V17.5Z" fill="#E8E8E8" fill-opacity="0.5"/>
<path d="M97.6667 42.5H104.333V49.1667H97.6667V42.5Z" fill="#E8E8E8" fill-opacity="0.5"/>
<path d="M104.333 17.5H111V24.1667H104.333V17.5Z" fill="#E8E8E8" fill-opacity="0.5"/>
<path d="M104.333 42.5H111V49.1667H104.333V42.5Z" fill="#E8E8E8" fill-opacity="0.5"/>
<path d="M111 17.5H117.667V24.1667H111V17.5Z" fill="#E8E8E8" fill-opacity="0.5"/>
<path d="M111 42.5H117.667V49.1667H111V42.5Z" fill="#E8E8E8" fill-opacity="0.5"/>
<path d="M117.667 17.5H124.333V24.1667H117.667V17.5Z" fill="#E8E8E8" fill-opacity="0.5"/>
<path d="M124.333 17.5H131V24.1667H124.333V17.5Z" fill="#E8E8E8" fill-opacity="0.5"/>
<path d="M71 20H77.6667V26.6667H71V20Z" fill="#E8E8E8" fill-opacity="0.5"/>
<path d="M71 26.6667H77.6667V33.3333H71V26.6667Z" fill="#E8E8E8" fill-opacity="0.5"/>
<path d="M71 33.3333H77.6667V40H71V33.3333Z" fill="#E8E8E8" fill-opacity="0.5"/>
<path d="M71 40H77.6667V46.6667H71V40Z" fill="#E8E8E8" fill-opacity="0.5"/>
<path d="M71 46.6667H77.6667V53.3333H71V46.6667Z" fill="#E8E8E8" fill-opacity="0.5"/>
<path d="M71 53.3333H77.6667V60H71V53.3333Z" fill="#E8E8E8" fill-opacity="0.5"/>
</svg>
