<?xml version="1.0" encoding="utf-8"?>
<!-- Generator: Adobe Illustrator 27.0.1, SVG Export Plug-In . SVG Version: 6.00 Build 0)  -->
<svg version="1.1" id="圖層_1" xmlns="http://www.w3.org/2000/svg" xmlns:xlink="http://www.w3.org/1999/xlink" x="0px" y="0px"
	 viewBox="0 0 252 312" style="enable-background:new 0 0 252 312;" xml:space="preserve">
<style type="text/css">
	.st0{fill:#FFC300;}
	.st1{fill:#E8E8E8;}
</style>
<polygon class="st0" points="228,204 228,192 216,192 216,180 204,180 204,168 192,168 180,168 180,72 168,72 168,60 168,48 156,48 
	156,36 144,36 144,24 132,24 132,12 120,12 108,12 96,12 84,12 72,12 60,12 60,24 48,24 48,36 36,36 36,48 24,48 24,60 24,72 12,72 
	12,300 180,300 180,204 192,204 192,216 204,216 204,228 216,228 228,228 240,228 240,216 240,204 "/>
<path d="M180,204h12v12h-12V204z"/>
<path d="M180,216h12v12h-12V216z"/>
<path d="M180,228h12v12h-12V228z"/>
<path d="M180,240h12v12h-12V240z"/>
<path d="M180,252h12v12h-12V252z"/>
<path d="M180,264h12v12h-12V264z"/>
<path d="M180,276h12v12h-12V276z"/>
<path d="M180,288h12v12h-12V288z"/>
<polygon points="0,60 0,288 0,291.7 0,300 12,300 12,291.7 12,288 12,60 "/>
<path d="M12,60h12v12H12V60z"/>
<path d="M12,48h12v12H12V48z"/>
<path d="M12,36h12v12H12V36z"/>
<path d="M24,36h12v12H24V36z"/>
<path d="M24,24h12v12H24V24z"/>
<path d="M36,24h12v12H36V24z"/>
<path d="M36,12h12v12H36V12z"/>
<path d="M60,0h12v12H60V0z"/>
<path d="M48,12h12v12H48V12z"/>
<path d="M48,0h12v12H48V0z"/>
<path d="M72,0h12v12H72V0z"/>
<path d="M84,0h12v12H84V0z"/>
<path d="M96,0h12v12H96V0z"/>
<path d="M108,0h12v12h-12V0z"/>
<path d="M120,0h12v12h-12V0z"/>
<path d="M132,0h12v12h-12V0z"/>
<path d="M132,12h12v12h-12V12z"/>
<path d="M144,12h12v12h-12V12z"/>
<path d="M144,24h12v12h-12V24z"/>
<path d="M156,24h12v12h-12V24z"/>
<path d="M156,36h12v12h-12V36z"/>
<polygon points="192,156 192,144 192,132 192,120 192,108 192,96 192,84 192,72 192,66 192,60 186,60 180,60 180,48 180,36 168,36 
	168,48 168,60 168,70.3 168,72 180,72 180,84 180,96 180,108 180,120 180,132 180,144 180,156 180,162 180,168 204,168 204,156 "/>
<path d="M36,300h12v12H36V300z"/>
<path d="M24,300h12v12H24V300z"/>
<path d="M12,300h12v12H12V300z"/>
<path d="M48,300h12v12H48V300z"/>
<path d="M60,300h12v12H60V300z"/>
<path d="M72,300h12v12H72V300z"/>
<path d="M84,300h12v12H84V300z"/>
<path d="M96,300h12v12H96V300z"/>
<path d="M108,300h12v12h-12V300z"/>
<path d="M120,300h12v12h-12V300z"/>
<path d="M132,300h12v12h-12V300z"/>
<path d="M144,300h12v12h-12V300z"/>
<path d="M156,300h12v12h-12V300z"/>
<path d="M168,300h12v12h-12V300z"/>
<g>
	<polygon class="st1" points="72,78 60,78 48,78 48,90 36,90 36,102 36,114 36,126 48,126 48,138 60,138 72,138 72,126 84,126 
		84,114 84,102 84,90 72,90 	"/>
	<polygon class="st1" points="144,90 144,78 132,78 120,78 120,90 108,90 108,102 108,114 108,126 120,126 120,138 132,138 144,138 
		144,126 156,126 156,114 156,102 156,90 	"/>
</g>
<path d="M132,90h24v24h-24V90z"/>
<path d="M204,168h12v12h-12V168z"/>
<path d="M216,180h12v12h-12V180z"/>
<path d="M228,192h12v12h-12V192z"/>
<path d="M240,204h12v12h-12V204z"/>
<path d="M240,216h12v12h-12V216z"/>
<path d="M240,228h12v12h-12V228z"/>
<path d="M228,228h12v12h-12V228z"/>
<path d="M216,228h12v12h-12V228z"/>
<path d="M204,228h12v12h-12V228z"/>
<path d="M192,216h12v12h-12V216z"/>
<path d="M64,90h24v24H64V90z"/>
</svg>
