<?xml version="1.0" encoding="utf-8"?>
<!-- Generator: Adobe Illustrator 27.0.1, SVG Export Plug-In . SVG Version: 6.00 Build 0)  -->
<svg version="1.1" id="圖層_1" xmlns="http://www.w3.org/2000/svg" xmlns:xlink="http://www.w3.org/1999/xlink" x="0px" y="0px"
	 viewBox="0 0 328.6 356" style="enable-background:new 0 0 328.6 356;" xml:space="preserve">
<style type="text/css">
	.st0{fill:#BBEBEC;}
	.st1{fill:#E8E8E8;}
</style>
<polygon class="st0" points="301.2,54.8 301.2,41.1 287.5,41.1 287.5,27.4 273.8,27.4 260.2,27.4 246.5,27.4 246.5,13.7 232.8,13.7 
	219.1,13.7 205.4,13.7 191.7,13.7 178,13.7 164.3,13.7 150.6,13.7 136.9,13.7 136.9,27.4 123.2,27.4 123.2,41.1 109.5,41.1 
	109.5,54.8 95.8,54.8 95.8,68.5 95.8,82.2 82.2,82.2 82.2,191.7 68.5,191.7 54.8,191.7 54.8,205.4 41.1,205.4 41.1,219.1 
	27.4,219.1 27.4,232.8 13.7,232.8 13.7,246.5 13.7,260.2 27.4,260.2 41.1,260.2 54.8,260.2 54.8,246.5 68.5,246.5 68.5,232.8 
	82.2,232.8 82.2,342.3 273.8,342.3 273.8,82.2 287.5,82.2 287.5,68.5 301.2,68.5 314.9,68.5 314.9,54.8 "/>
<path d="M68.5,232.8h13.7v13.7H68.5V232.8z"/>
<path d="M68.5,219.1h13.7v13.7H68.5V219.1z"/>
<path d="M68.5,178h13.7v13.7H68.5V178z"/>
<polygon points="273.8,82.2 273.8,95.8 273.8,109.5 273.8,123.2 273.8,136.9 273.8,150.6 273.8,164.3 273.8,178 273.8,191.7 
	273.8,205.4 273.8,219.1 273.8,232.8 273.8,246.5 273.8,260.2 273.8,273.8 273.8,287.5 273.8,301.2 273.8,314.9 273.8,328.6 
	273.8,342.3 287.5,342.3 287.5,328.6 287.5,314.9 287.5,301.2 287.5,287.5 287.5,273.8 287.5,260.2 287.5,246.5 287.5,232.8 
	287.5,219.1 287.5,205.4 287.5,191.7 287.5,178 287.5,164.3 287.5,150.6 287.5,136.9 287.5,123.2 287.5,109.5 287.5,95.8 
	287.5,82.2 "/>
<polygon points="232.8,0 219.1,0 205.4,0 191.7,0 178,0 164.3,0 150.6,0 136.9,0 123.2,0 123.2,13.7 136.9,13.7 150.6,13.7 
	164.3,13.7 178,13.7 191.7,13.7 205.4,13.7 219.1,13.7 232.8,13.7 246.5,13.7 246.5,0 "/>
<polygon points="260.2,13.7 255.7,13.7 246.5,13.7 246.5,27.4 255.7,27.4 260.2,27.4 287.5,27.4 287.5,13.7 "/>
<polygon points="319.7,41.1 314.9,41.1 314.9,27.4 304.7,27.4 301.2,27.4 287.5,27.4 287.5,41.1 301.2,41.1 301.2,45.7 301.2,54.8 
	314.9,54.8 314.9,68.5 328.6,68.5 328.6,54.8 328.6,47.9 328.6,41.1 "/>
<polygon points="301.2,68.5 296.7,68.5 287.5,68.5 287.5,82.2 296.7,82.2 301.2,82.2 314.9,82.2 314.9,68.5 "/>
<polygon points="260.2,342.3 246.5,342.3 232.8,342.3 219.1,342.3 205.4,342.3 191.7,342.3 178,342.3 164.3,342.3 150.6,342.3 
	136.9,342.3 123.2,342.3 109.5,342.3 95.8,342.3 82.2,342.3 82.2,356 95.8,356 109.5,356 123.2,356 136.9,356 150.6,356 164.3,356 
	178,356 191.7,356 205.4,356 219.1,356 232.8,356 246.5,356 260.2,356 273.8,356 273.8,342.3 "/>
<polygon class="st1" points="157.5,102.7 157.5,89 130.1,89 130.1,102.7 116.4,102.7 116.4,143.8 130.1,143.8 130.1,157.5 
	157.5,157.5 157.5,143.8 171.2,143.8 171.2,116.4 171.2,102.7 "/>
<path d="M130.1,116.4h13.7v13.7h-13.7V116.4z"/>
<path d="M116.4,102.7h27.4v27.4h-27.4V102.7z"/>
<polygon class="st1" points="239.6,102.7 239.6,89 212.2,89 212.2,102.7 198.5,102.7 198.5,143.8 212.2,143.8 212.2,157.5 
	239.6,157.5 239.6,143.8 253.3,143.8 253.3,116.4 253.3,102.7 "/>
<path d="M198.5,102.7h27.4v27.4h-27.4V102.7z"/>
<path d="M68.5,178H54.8v13.7h13.7V178z"/>
<path d="M54.8,191.7H41.1v13.7h13.7V191.7z"/>
<path d="M41.1,205.4H27.4v13.7h13.7V205.4z"/>
<path d="M27.4,219.1H13.7v13.7h13.7V219.1z"/>
<polygon points="41.1,260.2 27.4,260.2 13.7,260.2 13.7,246.5 13.7,232.8 0,232.8 0,246.5 0,260.2 0,273.8 13.7,273.8 27.4,273.8 
	41.1,273.8 54.8,273.8 54.8,260.2 "/>
<path d="M95.8,219.1H82.2v13.7h13.7V219.1z"/>
<path d="M95.8,178H82.2v13.7h13.7V178z"/>
<polygon points="68.5,246.5 54.8,246.5 54.8,260.2 68.5,260.2 68.5,273.8 68.5,287.5 68.5,301.2 68.5,314.9 68.5,328.6 68.5,342.3 
	82.2,342.3 82.2,328.6 82.2,314.9 82.2,301.2 82.2,287.5 82.2,273.8 82.2,260.2 82.2,246.5 "/>
<polygon points="123.2,13.7 109.5,13.7 109.5,27.4 95.8,27.4 95.8,41.1 82.2,41.1 82.2,54.8 82.2,68.5 68.5,68.5 68.5,82.2 
	68.5,95.8 68.5,109.5 68.5,123.2 68.5,136.9 68.5,150.6 68.5,164.3 68.5,178 82.2,178 82.2,164.3 82.2,150.6 82.2,136.9 82.2,123.2 
	82.2,109.5 82.2,95.8 82.2,82.2 95.8,82.2 95.8,68.5 95.8,54.8 109.5,54.8 109.5,41.1 123.2,41.1 123.2,27.4 136.9,27.4 136.9,13.7 
	"/>
</svg>
