<svg width="288" height="312" viewBox="0 0 288 312" fill="none" xmlns="http://www.w3.org/2000/svg">
<path d="M60 216H72V228H60V216Z" fill="black"/>
<path d="M60 228H72V240H60V228Z" fill="black"/>
<path d="M60 240H72V252H60V240Z" fill="black"/>
<path d="M60 252H72V264H60V252Z" fill="black"/>
<path d="M60 264H72V276H60V264Z" fill="black"/>
<path d="M60 276H72V288H60V276Z" fill="black"/>
<path d="M60 288H72V300H60V288Z" fill="black"/>
<path d="M60 204H72V216H60V204Z" fill="black"/>
<path d="M240 204H252V216H240V204Z" fill="black"/>
<path d="M240 216H252V228H240V216Z" fill="black"/>
<path d="M240 228H252V240H240V228Z" fill="black"/>
<path d="M240 240H252V252H240V240Z" fill="black"/>
<path d="M240 252H252V264H240V252Z" fill="black"/>
<path d="M240 264H252V276H240V264Z" fill="black"/>
<path d="M240 276H252V288H240V276Z" fill="black"/>
<path d="M240 288H252V300H240V288Z" fill="black"/>
<path d="M60 192H72V204H60V192Z" fill="black"/>
<path d="M240 192H252V204H240V192Z" fill="black"/>
<path d="M60 180H72V192H60V180Z" fill="black"/>
<path d="M240 180H252V192H240V180Z" fill="black"/>
<path d="M60 168H72V180H60V168Z" fill="black"/>
<path d="M240 168H252V180H240V168Z" fill="black"/>
<path d="M60 156H72V168H60V156Z" fill="black"/>
<path d="M240 156H252V168H240V156Z" fill="black"/>
<path d="M60 144H72V156H60V144Z" fill="black"/>
<path d="M240 144H252V156H240V144Z" fill="black"/>
<path d="M60 132H72V144H60V132Z" fill="black"/>
<path d="M240 132H252V144H240V132Z" fill="black"/>
<path d="M60 120H72V132H60V120Z" fill="black"/>
<path d="M240 120H252V132H240V120Z" fill="black"/>
<path d="M60 108H72V120H60V108Z" fill="black"/>
<path d="M240 108H252V120H240V108Z" fill="black"/>
<path d="M60 96H72V108H60V96Z" fill="black"/>
<path d="M240 96H252V108H240V96Z" fill="black"/>
<path d="M60 84H72V96H60V84Z" fill="black"/>
<path d="M240 84H252V96H240V84Z" fill="black"/>
<path d="M60 72H72V84H60V72Z" fill="black"/>
<path d="M240 72H252V84H240V72Z" fill="black"/>
<path d="M60 60H72V72H60V60Z" fill="black"/>
<path d="M72 60H84V72H72V60Z" fill="black"/>
<path d="M108 60H120V72H108V60Z" fill="#BBEBEC"/>
<path d="M84 60H96V72H84V60Z" fill="#BBEBEC"/>
<path d="M108 48H120V60H108V48Z" fill="#BBEBEC"/>
<path d="M84 48H96V60H84V48Z" fill="#BBEBEC"/>
<path d="M120 60H132V72H120V60Z" fill="#BBEBEC"/>
<path d="M120 48H132V60H120V48Z" fill="#BBEBEC"/>
<path d="M96 48H108V60H96V48Z" fill="#BBEBEC"/>
<path d="M96 60H108V72H96V60Z" fill="#BBEBEC"/>
<path d="M120 36H132V48H120V36Z" fill="#BBEBEC"/>
<path d="M96 36H108V48H96V36Z" fill="#BBEBEC"/>
<path d="M132 60H144V72H132V60Z" fill="#BBEBEC"/>
<path d="M132 48H144V60H132V48Z" fill="#BBEBEC"/>
<path d="M132 36H144V48H132V36Z" fill="#BBEBEC"/>
<path d="M108 36H120V48H108V36Z" fill="#BBEBEC"/>
<path d="M132 24H144V36H132V24Z" fill="#BBEBEC"/>
<path d="M108 24H120V36H108V24Z" fill="#BBEBEC"/>
<path d="M144 60H156V72H144V60Z" fill="#BBEBEC"/>
<path d="M144 48H156V60H144V48Z" fill="#BBEBEC"/>
<path d="M144 36H156V48H144V36Z" fill="#BBEBEC"/>
<path d="M144 24H156V36H144V24Z" fill="#BBEBEC"/>
<path d="M120 24H132V36H120V24Z" fill="#BBEBEC"/>
<path d="M180 12H192V24H180V12Z" fill="#BBEBEC"/>
<path d="M204 12H216V24H204V12Z" fill="#BBEBEC"/>
<path d="M168 12H180V24H168V12Z" fill="#BBEBEC"/>
<path d="M192 12H204V24H192V12Z" fill="#BBEBEC"/>
<path d="M156 12H168V24H156V12Z" fill="#BBEBEC"/>
<path d="M132 12H144V24H132V12Z" fill="#BBEBEC"/>
<path d="M144 12H156V24H144V12Z" fill="#BBEBEC"/>
<path d="M120 12H132V24H120V12Z" fill="#BBEBEC"/>
<path d="M156 60H168V72H156V60Z" fill="#BBEBEC"/>
<path d="M156 48H168V60H156V48Z" fill="#BBEBEC"/>
<path d="M156 36H168V48H156V36Z" fill="#BBEBEC"/>
<path d="M156 24H168V36H156V24Z" fill="#BBEBEC"/>
<path d="M168 60H180V72H168V60Z" fill="#BBEBEC"/>
<path d="M168 48H180V60H168V48Z" fill="#BBEBEC"/>
<path d="M168 36H180V48H168V36Z" fill="#BBEBEC"/>
<path d="M168 24H180V36H168V24Z" fill="#BBEBEC"/>
<path d="M180 60H192V72H180V60Z" fill="#BBEBEC"/>
<path d="M180 48H192V60H180V48Z" fill="#BBEBEC"/>
<path d="M180 36H192V48H180V36Z" fill="#BBEBEC"/>
<path d="M180 24H192V36H180V24Z" fill="#BBEBEC"/>
<path d="M192 60H204V72H192V60Z" fill="#BBEBEC"/>
<path d="M192 48H204V60H192V48Z" fill="#BBEBEC"/>
<path d="M192 36H204V48H192V36Z" fill="#BBEBEC"/>
<path d="M192 24H204V36H192V24Z" fill="#BBEBEC"/>
<path d="M204 60H216V72H204V60Z" fill="#BBEBEC"/>
<path d="M204 48H216V60H204V48Z" fill="#BBEBEC"/>
<path d="M204 36H216V48H204V36Z" fill="#BBEBEC"/>
<path d="M216 60H228V72H216V60Z" fill="#BBEBEC"/>
<path d="M228 60H240V72H228V60Z" fill="#BBEBEC"/>
<path d="M240 60H252V72H240V60Z" fill="#BBEBEC"/>
<path d="M216 48H228V60H216V48Z" fill="#BBEBEC"/>
<path d="M216 36H228V48H216V36Z" fill="#BBEBEC"/>
<path d="M204 24H216V36H204V24Z" fill="#BBEBEC"/>
<path d="M228 48H240V60H228V48Z" fill="#BBEBEC"/>
<path d="M228 36H240V48H228V36Z" fill="#BBEBEC"/>
<path d="M216 24H228V36H216V24Z" fill="#BBEBEC"/>
<path d="M240 48H252V60H240V48Z" fill="#BBEBEC"/>
<path d="M240 36H252V48H240V36Z" fill="#BBEBEC"/>
<path d="M228 24H240V36H228V24Z" fill="#BBEBEC"/>
<path d="M252 48H264V60H252V48Z" fill="#BBEBEC"/>
<path d="M252 36H264V48H252V36Z" fill="#BBEBEC"/>
<path d="M240 24H252V36H240V24Z" fill="#BBEBEC"/>
<path d="M264 48H276V60H264V48Z" fill="#BBEBEC"/>
<path d="M72 48H84V60H72V48Z" fill="black"/>
<path d="M72 36H84V48H72V36Z" fill="black"/>
<path d="M84 36H96V48H84V36Z" fill="black"/>
<path d="M84 24H96V36H84V24Z" fill="black"/>
<path d="M96 24H108V36H96V24Z" fill="black"/>
<path d="M96 12H108V24H96V12Z" fill="black"/>
<path d="M120 0H132V12H120V0Z" fill="black"/>
<path d="M108 12H120V24H108V12Z" fill="black"/>
<path d="M108 0H120V12H108V0Z" fill="black"/>
<path d="M132 0H144V12H132V0Z" fill="black"/>
<path d="M144 0H156V12H144V0Z" fill="black"/>
<path d="M156 0H168V12H156V0Z" fill="black"/>
<path d="M168 0H180V12H168V0Z" fill="black"/>
<path d="M180 0H192V12H180V0Z" fill="black"/>
<path d="M192 0H204V12H192V0Z" fill="black"/>
<path d="M204 0H216V12H204V0Z" fill="black"/>
<path d="M216 12H228V24H216V12Z" fill="black"/>
<path d="M228 12H240V24H228V12Z" fill="black"/>
<path d="M240 12H252V24H240V12Z" fill="black"/>
<path d="M252 24H264V36H252V24Z" fill="black"/>
<path d="M264 36H276V48H264V36Z" fill="black"/>
<path d="M264 24H276V36H264V24Z" fill="black"/>
<path d="M276 36H288V48H276V36Z" fill="black"/>
<path d="M276 48H288V60H276V48Z" fill="black"/>
<path d="M264 60H276V72H264V60Z" fill="black"/>
<path d="M252 60H264V72H252V60Z" fill="black"/>
<path d="M96 300H108V312H96V300Z" fill="black"/>
<path d="M84 300H96V312H84V300Z" fill="black"/>
<path d="M72 300H84V312H72V300Z" fill="black"/>
<path d="M108 300H120V312H108V300Z" fill="black"/>
<path d="M120 300H132V312H120V300Z" fill="black"/>
<path d="M132 300H144V312H132V300Z" fill="black"/>
<path d="M144 300H156V312H144V300Z" fill="black"/>
<path d="M156 300H168V312H156V300Z" fill="black"/>
<path d="M168 300H180V312H168V300Z" fill="black"/>
<path d="M180 300H192V312H180V300Z" fill="black"/>
<path d="M192 300H204V312H192V300Z" fill="black"/>
<path d="M204 300H216V312H204V300Z" fill="black"/>
<path d="M216 300H228V312H216V300Z" fill="black"/>
<path d="M228 300H240V312H228V300Z" fill="black"/>
<path d="M72 72H240V300H72V72Z" fill="#BBEBEC"/>
<path d="M114 90H126V102H114V90Z" fill="#E8E8E8"/>
<path d="M114 78H126V90H114V78Z" fill="#E8E8E8"/>
<path d="M126 90H138V102H126V90Z" fill="#E8E8E8"/>
<path d="M126 102H138V114H126V102Z" fill="#E8E8E8"/>
<path d="M114 102H126V114H114V102Z" fill="#E8E8E8"/>
<path d="M102 102H114V114H102V102Z" fill="#E8E8E8"/>
<path d="M126 114H138V126H126V114Z" fill="#E8E8E8"/>
<path d="M114 114H126V126H114V114Z" fill="#E8E8E8"/>
<path d="M102 114H114V126H102V114Z" fill="#E8E8E8"/>
<path d="M114 126H126V138H114V126Z" fill="#E8E8E8"/>
<path d="M126 78H138V90H126V78Z" fill="#E8E8E8"/>
<path d="M138 90H150V102H138V90Z" fill="#E8E8E8"/>
<path d="M138 102H150V114H138V102Z" fill="#E8E8E8"/>
<path d="M138 114H150V126H138V114Z" fill="#E8E8E8"/>
<path d="M126 126H138V138H126V126Z" fill="#E8E8E8"/>
<path d="M102 90H114V102H102V90Z" fill="#E8E8E8"/>
<path d="M114 90H126V102H114V90Z" fill="black"/>
<path d="M114 102H126V114H114V102Z" fill="black"/>
<path d="M102 90H114V102H102V90Z" fill="black"/>
<path d="M102 102H114V114H102V102Z" fill="black"/>
<path d="M186 90H198V102H186V90Z" fill="#E8E8E8"/>
<path d="M186 78H198V90H186V78Z" fill="#E8E8E8"/>
<path d="M198 90H210V102H198V90Z" fill="#E8E8E8"/>
<path d="M198 102H210V114H198V102Z" fill="#E8E8E8"/>
<path d="M186 102H198V114H186V102Z" fill="#E8E8E8"/>
<path d="M174 102H186V114H174V102Z" fill="#E8E8E8"/>
<path d="M198 114H210V126H198V114Z" fill="#E8E8E8"/>
<path d="M186 114H198V126H186V114Z" fill="#E8E8E8"/>
<path d="M174 114H186V126H174V114Z" fill="#E8E8E8"/>
<path d="M186 126H198V138H186V126Z" fill="#E8E8E8"/>
<path d="M198 78H210V90H198V78Z" fill="#E8E8E8"/>
<path d="M210 90H222V102H210V90Z" fill="#E8E8E8"/>
<path d="M210 102H222V114H210V102Z" fill="#E8E8E8"/>
<path d="M210 114H222V126H210V114Z" fill="#E8E8E8"/>
<path d="M198 126H210V138H198V126Z" fill="#E8E8E8"/>
<path d="M174 90H186V102H174V90Z" fill="#E8E8E8"/>
<path d="M186 90H198V102H186V90Z" fill="black"/>
<path d="M186 102H198V114H186V102Z" fill="black"/>
<path d="M174 90H186V102H174V90Z" fill="black"/>
<path d="M174 102H186V114H174V102Z" fill="black"/>
<path d="M60 156H48V168H60V156Z" fill="black"/>
<path d="M48 168H36V180H48V168Z" fill="black"/>
<path d="M36 180H24V192H36V180Z" fill="black"/>
<path d="M24 192H12V204H24V192Z" fill="black"/>
<path d="M12 204H0V216H12V204Z" fill="black"/>
<path d="M12 216H0V228H12V216Z" fill="black"/>
<path d="M12 228H0V240H12V228Z" fill="black"/>
<path d="M24 228H12V240H24V228Z" fill="black"/>
<path d="M36 228H24V240H36V228Z" fill="black"/>
<path d="M48 228H36V240H48V228Z" fill="black"/>
<path d="M72 168H60V180H72V168Z" fill="#BBEBEC"/>
<path d="M60 180H48V192H60V180Z" fill="#BBEBEC"/>
<path d="M60 192H48V204H60V192Z" fill="#BBEBEC"/>
<path d="M60 168H48V180H60V168Z" fill="#BBEBEC"/>
<path d="M48 180H36V192H48V180Z" fill="#BBEBEC"/>
<path d="M48 192H36V204H48V192Z" fill="#BBEBEC"/>
<path d="M36 192H24V204H36V192Z" fill="#BBEBEC"/>
<path d="M36 204H24V216H36V204Z" fill="#BBEBEC"/>
<path d="M24 204H12V216H24V204Z" fill="#BBEBEC"/>
<path d="M24 216H12V228H24V216Z" fill="#BBEBEC"/>
<path d="M48 216H36V228H48V216Z" fill="#BBEBEC"/>
<path d="M36 216H24V228H36V216Z" fill="#BBEBEC"/>
<path d="M48 204H36V216H48V204Z" fill="#BBEBEC"/>
<path d="M60 204H48V216H60V204Z" fill="#BBEBEC"/>
<path d="M72 180H60V192H72V180Z" fill="#BBEBEC"/>
<path d="M72 192H60V204H72V192Z" fill="#BBEBEC"/>
<path d="M84 192H72V204H84V192Z" fill="black"/>
<path d="M84 156H72V168H84V156Z" fill="black"/>
<path d="M60 216H48V228H60V216Z" fill="black"/>
</svg>
