<svg width="341" height="322" viewBox="0 0 341 322" fill="none" xmlns="http://www.w3.org/2000/svg">
<path d="M13 7H20V13H13V7Z" fill="#E8E8E8" fill-opacity="0.5"/>
<path d="M83 7H76V13H83V7Z" fill="#E8E8E8" fill-opacity="0.5"/>
<path d="M20 0H27V7H20V0Z" fill="#E8E8E8" fill-opacity="0.5"/>
<path d="M76 0H69V7H76V0Z" fill="#E8E8E8" fill-opacity="0.5"/>
<path d="M13 33H20V40H13V33Z" fill="#E8E8E8" fill-opacity="0.5"/>
<path d="M83 33H76V40H83V33Z" fill="#E8E8E8" fill-opacity="0.5"/>
<path d="M20 40H27V46H20V40Z" fill="#E8E8E8" fill-opacity="0.5"/>
<path d="M76 40H69V46H76V40Z" fill="#E8E8E8" fill-opacity="0.5"/>
<path d="M31 33H38V40H31V33Z" fill="#E8E8E8" fill-opacity="0.5"/>
<path d="M38 27H45V33H38V27Z" fill="#E8E8E8" fill-opacity="0.5"/>
<path d="M45 20H51V27H45V20Z" fill="#E8E8E8" fill-opacity="0.5"/>
<path d="M51 13H58V20H51V13Z" fill="#E8E8E8" fill-opacity="0.5"/>
<path d="M58 7H65V13H58V7Z" fill="#E8E8E8" fill-opacity="0.5"/>
<path d="M7 13H13V20H7V13Z" fill="#E8E8E8" fill-opacity="0.5"/>
<path d="M89 13H83V20H89V13Z" fill="#E8E8E8" fill-opacity="0.5"/>
<path d="M7 27H13V33H7V27Z" fill="#E8E8E8" fill-opacity="0.5"/>
<path d="M89 27H83V33H89V27Z" fill="#E8E8E8" fill-opacity="0.5"/>
<path d="M0 20H7V27H0V20Z" fill="#E8E8E8" fill-opacity="0.5"/>
<path d="M96 20H89V27H96V20Z" fill="#E8E8E8" fill-opacity="0.5"/>
<path d="M134 259H127V266H134V259Z" fill="#E8E8E8" fill-opacity="0.5"/>
<path d="M180 259H187V266H180V259Z" fill="#E8E8E8" fill-opacity="0.5"/>
<path d="M141 259H134V266H141V259Z" fill="#E8E8E8" fill-opacity="0.5"/>
<path d="M173 259H180V266H173V259Z" fill="#E8E8E8" fill-opacity="0.5"/>
<path d="M141 315H134V322H141V315Z" fill="#E8E8E8" fill-opacity="0.5"/>
<path d="M173 315H180V322H173V315Z" fill="#E8E8E8" fill-opacity="0.5"/>
<path d="M127 266H120V273H127V266Z" fill="#E8E8E8" fill-opacity="0.5"/>
<path d="M187 266H194V273H187V266Z" fill="#E8E8E8" fill-opacity="0.5"/>
<path d="M127 273H120V280H127V273Z" fill="#E8E8E8" fill-opacity="0.5"/>
<path d="M187 273H194V280H187V273Z" fill="#E8E8E8" fill-opacity="0.5"/>
<path d="M127 280H120V287H127V280Z" fill="#E8E8E8" fill-opacity="0.5"/>
<path d="M187 280H194V287H187V280Z" fill="#E8E8E8" fill-opacity="0.5"/>
<path d="M120 287H113V294H120V287Z" fill="#E8E8E8" fill-opacity="0.5"/>
<path d="M194 287H201V294H194V287Z" fill="#E8E8E8" fill-opacity="0.5"/>
<path d="M127 294H120V301H127V294Z" fill="#E8E8E8" fill-opacity="0.5"/>
<path d="M187 294H194V301H187V294Z" fill="#E8E8E8" fill-opacity="0.5"/>
<path d="M127 301H120V308H127V301Z" fill="#E8E8E8" fill-opacity="0.5"/>
<path d="M187 301H194V308H187V301Z" fill="#E8E8E8" fill-opacity="0.5"/>
<path d="M127 308H120V315H127V308Z" fill="#E8E8E8" fill-opacity="0.5"/>
<path d="M187 308H194V315H187V308Z" fill="#E8E8E8" fill-opacity="0.5"/>
<path d="M134 315H127V322H134V315Z" fill="#E8E8E8" fill-opacity="0.5"/>
<path d="M180 315H187V322H180V315Z" fill="#E8E8E8" fill-opacity="0.5"/>
<path d="M152 270H145V277H152V270Z" fill="#E8E8E8" fill-opacity="0.5"/>
<path d="M152 263H145V270H152V263Z" fill="#E8E8E8" fill-opacity="0.5"/>
<path d="M159 263H152V270H159V263Z" fill="#E8E8E8" fill-opacity="0.5"/>
<path d="M166 263H159V270H166V263Z" fill="#E8E8E8" fill-opacity="0.5"/>
<path d="M173 270H166V277H173V270Z" fill="#E8E8E8" fill-opacity="0.5"/>
<path d="M173 277H166V284H173V277Z" fill="#E8E8E8" fill-opacity="0.5"/>
<path d="M166 284H159V291H166V284Z" fill="#E8E8E8" fill-opacity="0.5"/>
<path d="M173 291H166V298H173V291Z" fill="#E8E8E8" fill-opacity="0.5"/>
<path d="M173 298H166V305H173V298Z" fill="#E8E8E8" fill-opacity="0.5"/>
<path d="M173 305H166V312H173V305Z" fill="#E8E8E8" fill-opacity="0.5"/>
<path d="M166 312H159V319H166V312Z" fill="#E8E8E8" fill-opacity="0.5"/>
<path d="M159 312H152V319H159V312Z" fill="#E8E8E8" fill-opacity="0.5"/>
<path d="M159 284H152V291H159V284Z" fill="#E8E8E8" fill-opacity="0.5"/>
<path d="M152 277H145V284H152V277Z" fill="#E8E8E8" fill-opacity="0.5"/>
<path d="M152 284H145V291H152V284Z" fill="#E8E8E8" fill-opacity="0.5"/>
<path d="M152 291H145V298H152V291Z" fill="#E8E8E8" fill-opacity="0.5"/>
<path d="M152 298H145V305H152V298Z" fill="#E8E8E8" fill-opacity="0.5"/>
<path d="M152 305H145V312H152V305Z" fill="#E8E8E8" fill-opacity="0.5"/>
<path d="M152 312H145V319H152V312Z" fill="#E8E8E8" fill-opacity="0.5"/>
<path d="M272.692 47H267V52.6875H272.692V47Z" fill="#E8E8E8" fill-opacity="0.5"/>
<path d="M272.692 52.6875H267V58.375H272.692V52.6875Z" fill="#E8E8E8" fill-opacity="0.5"/>
<path d="M272.692 58.375H267V64.0625H272.692V58.375Z" fill="#E8E8E8" fill-opacity="0.5"/>
<path d="M272.692 64.0625H267V69.75H272.692V64.0625Z" fill="#E8E8E8" fill-opacity="0.5"/>
<path d="M272.692 69.75H267V75.4375H272.692V69.75Z" fill="#E8E8E8" fill-opacity="0.5"/>
<path d="M272.692 75.4375H267V81.125H272.692V75.4375Z" fill="#E8E8E8" fill-opacity="0.5"/>
<path d="M272.692 81.125H267V86.8125H272.692V81.125Z" fill="#E8E8E8" fill-opacity="0.5"/>
<path d="M272.692 86.8125H267V92.5H272.692V86.8125Z" fill="#E8E8E8" fill-opacity="0.5"/>
<path d="M272.692 92.5H267V98.1875H272.692V92.5Z" fill="#E8E8E8" fill-opacity="0.5"/>
<path d="M272.692 98.1875H267V103.875H272.692V98.1875Z" fill="#E8E8E8" fill-opacity="0.5"/>
<path d="M272.692 103.875H267V109.562H272.692V103.875Z" fill="#E8E8E8" fill-opacity="0.5"/>
<path d="M272.692 109.562H267V115.25H272.692V109.562Z" fill="#E8E8E8" fill-opacity="0.5"/>
<path d="M278.385 115.25H272.692V120.938H278.385V115.25Z" fill="#E8E8E8" fill-opacity="0.5"/>
<path d="M284.077 120.938H278.385L278.385 126.625H284.077V120.938Z" fill="#E8E8E8" fill-opacity="0.5"/>
<path d="M289.769 126.625H284.077V132.312H289.769V126.625Z" fill="#E8E8E8" fill-opacity="0.5"/>
<path d="M295.462 132.312L289.769 132.312V138H295.462V132.312Z" fill="#E8E8E8" fill-opacity="0.5"/>
<path d="M301.154 132.312H295.462V138H301.154V132.312Z" fill="#E8E8E8" fill-opacity="0.5"/>
<path d="M306.846 132.312H301.154V138H306.846V132.312Z" fill="#E8E8E8" fill-opacity="0.5"/>
<path d="M327.176 64.0625H321.483V69.75H327.176V64.0625Z" fill="#E8E8E8" fill-opacity="0.5"/>
<path d="M321.483 64.0625H315.791V69.75H321.483V64.0625Z" fill="#E8E8E8" fill-opacity="0.5"/>
<path d="M315.791 64.0625H310.099V69.75H315.791V64.0625Z" fill="#E8E8E8" fill-opacity="0.5"/>
<path d="M310.099 64.0625H304.407V69.75H310.099V64.0625Z" fill="#E8E8E8" fill-opacity="0.5"/>
<path d="M304.407 64.0625H298.714V69.75H304.407V64.0625Z" fill="#E8E8E8" fill-opacity="0.5"/>
<path d="M298.714 64.0625H293.022V69.75H298.714V64.0625Z" fill="#E8E8E8" fill-opacity="0.5"/>
<path d="M293.022 64.0625H287.33V69.75H293.022V64.0625Z" fill="#E8E8E8" fill-opacity="0.5"/>
<path d="M287.33 64.0625H281.637V69.75H287.33V64.0625Z" fill="#E8E8E8" fill-opacity="0.5"/>
<path d="M287.33 69.75H281.637V75.4375H287.33V69.75Z" fill="#E8E8E8" fill-opacity="0.5"/>
<path d="M287.33 75.4375H281.637V81.125H287.33V75.4375Z" fill="#E8E8E8" fill-opacity="0.5"/>
<path d="M287.33 81.125H281.637V86.8125H287.33V81.125Z" fill="#E8E8E8" fill-opacity="0.5"/>
<path d="M293.022 81.125H287.33V86.8125H293.022V81.125Z" fill="#E8E8E8" fill-opacity="0.5"/>
<path d="M298.714 81.125H293.022V86.8125H298.714V81.125Z" fill="#E8E8E8" fill-opacity="0.5"/>
<path d="M304.407 81.125H298.714V86.8125H304.407V81.125Z" fill="#E8E8E8" fill-opacity="0.5"/>
<path d="M310.099 81.125H304.407V86.8125H310.099V81.125Z" fill="#E8E8E8" fill-opacity="0.5"/>
<path d="M315.791 81.125H310.099V86.8125H315.791V81.125Z" fill="#E8E8E8" fill-opacity="0.5"/>
<path d="M321.483 81.125H315.791V86.8125H321.483V81.125Z" fill="#E8E8E8" fill-opacity="0.5"/>
<path d="M327.176 81.125H321.483V86.8125H327.176V81.125Z" fill="#E8E8E8" fill-opacity="0.5"/>
<path d="M327.176 86.8125H321.483V92.5H327.176V86.8125Z" fill="#E8E8E8" fill-opacity="0.5"/>
<path d="M327.176 92.5H321.483V98.1875H327.176V92.5Z" fill="#E8E8E8" fill-opacity="0.5"/>
<path d="M327.176 98.1875H321.483V103.875H327.176V98.1875Z" fill="#E8E8E8" fill-opacity="0.5"/>
<path d="M327.176 103.875H321.483V109.562H327.176V103.875Z" fill="#E8E8E8" fill-opacity="0.5"/>
<path d="M321.483 109.562H315.791V115.25H321.483V109.562Z" fill="#E8E8E8" fill-opacity="0.5"/>
<path d="M315.791 115.25L310.099 115.25V120.937H315.791L315.791 115.25Z" fill="#E8E8E8" fill-opacity="0.5"/>
<path d="M310.099 115.25H304.407V120.937H310.099V115.25Z" fill="#E8E8E8" fill-opacity="0.5"/>
<path d="M304.407 115.25H298.714V120.937H304.407V115.25Z" fill="#E8E8E8" fill-opacity="0.5"/>
<path d="M298.714 115.25H293.022V120.937H298.714V115.25Z" fill="#E8E8E8" fill-opacity="0.5"/>
<path d="M293.022 109.562H287.33V115.25L293.022 115.25L293.022 109.562Z" fill="#E8E8E8" fill-opacity="0.5"/>
<path d="M287.33 103.875H281.637V109.562H287.33V103.875Z" fill="#E8E8E8" fill-opacity="0.5"/>
<path d="M312.538 132.312H306.846V138H312.538V132.312Z" fill="#E8E8E8" fill-opacity="0.5"/>
<path d="M278.385 47H272.692V52.6875H278.385V47Z" fill="#E8E8E8" fill-opacity="0.5"/>
<path d="M284.077 47H278.385V52.6875H284.077V47Z" fill="#E8E8E8" fill-opacity="0.5"/>
<path d="M289.769 47H284.077V52.6875H289.769V47Z" fill="#E8E8E8" fill-opacity="0.5"/>
<path d="M295.462 47H289.769V52.6875H295.462V47Z" fill="#E8E8E8" fill-opacity="0.5"/>
<path d="M301.154 47H295.462V52.6875H301.154V47Z" fill="#E8E8E8" fill-opacity="0.5"/>
<path d="M306.846 47H301.154V52.6875H306.846V47Z" fill="#E8E8E8" fill-opacity="0.5"/>
<path d="M312.538 47H306.846V52.6875H312.538V47Z" fill="#E8E8E8" fill-opacity="0.5"/>
<path d="M318.231 47H312.538V52.6875H318.231V47Z" fill="#E8E8E8" fill-opacity="0.5"/>
<path d="M323.923 47H318.231V52.6875H323.923V47Z" fill="#E8E8E8" fill-opacity="0.5"/>
<path d="M329.615 47H323.923V52.6875H329.615V47Z" fill="#E8E8E8" fill-opacity="0.5"/>
<path d="M335.308 47H329.615V52.6875H335.308V47Z" fill="#E8E8E8" fill-opacity="0.5"/>
<path d="M341 47H335.308V52.6875H341V47Z" fill="#E8E8E8" fill-opacity="0.5"/>
<path d="M341 52.6875H335.308V58.375H341V52.6875Z" fill="#E8E8E8" fill-opacity="0.5"/>
<path d="M341 58.375H335.308V64.0625H341V58.375Z" fill="#E8E8E8" fill-opacity="0.5"/>
<path d="M341 64.0625H335.308V69.75H341V64.0625Z" fill="#E8E8E8" fill-opacity="0.5"/>
<path d="M341 69.75H335.308V75.4375H341V69.75Z" fill="#E8E8E8" fill-opacity="0.5"/>
<path d="M341 75.4375H335.308V81.125H341V75.4375Z" fill="#E8E8E8" fill-opacity="0.5"/>
<path d="M341 81.125H335.308V86.8125H341V81.125Z" fill="#E8E8E8" fill-opacity="0.5"/>
<path d="M341 86.8125H335.308V92.5H341V86.8125Z" fill="#E8E8E8" fill-opacity="0.5"/>
<path d="M341 92.5H335.308V98.1875H341V92.5Z" fill="#E8E8E8" fill-opacity="0.5"/>
<path d="M341 98.1875H335.308V103.875H341V98.1875Z" fill="#E8E8E8" fill-opacity="0.5"/>
<path d="M341 103.875H335.308V109.562H341V103.875Z" fill="#E8E8E8" fill-opacity="0.5"/>
<path d="M341 109.562H335.308V115.25H341V109.562Z" fill="#E8E8E8" fill-opacity="0.5"/>
<path d="M335.308 115.25H329.615V120.938H335.308V115.25Z" fill="#E8E8E8" fill-opacity="0.5"/>
<path d="M329.615 120.938H323.923V126.625H329.615V120.938Z" fill="#E8E8E8" fill-opacity="0.5"/>
<path d="M323.923 126.625H318.231V132.312H323.923V126.625Z" fill="#E8E8E8" fill-opacity="0.5"/>
<path d="M318.231 132.312L312.538 132.312V138H318.231L318.231 132.312Z" fill="#E8E8E8" fill-opacity="0.5"/>
</svg>
