<svg width="409" height="387" viewBox="0 0 409 387" fill="none" xmlns="http://www.w3.org/2000/svg">
<path d="M283.769 100H277.758V106H283.769V100Z" fill="#FFE43E"/>
<path d="M277.758 106H271.746V112H277.758V106Z" fill="#FFE43E"/>
<path d="M283.769 106H277.758V112H283.769V106Z" fill="#FFE43E"/>
<path d="M277.758 112H271.746V118H277.758V112Z" fill="#FFE43E"/>
<path d="M277.758 94H271.746V100H277.758V94Z" fill="#FFE43E"/>
<path d="M271.746 100H265.735V106H271.746V100Z" fill="#FFE43E"/>
<path d="M271.746 88H265.735V94H271.746V88Z" fill="#FFE43E"/>
<path d="M265.735 82H259.724V88H265.735V82Z" fill="#FFE43E"/>
<path d="M265.735 94H259.724V100H265.735V94Z" fill="#FFE43E"/>
<path d="M259.724 88H253.713V94H259.724V88Z" fill="#FFE43E"/>
<path d="M271.746 82H265.735V88H271.746V82Z" fill="#FFE43E"/>
<path d="M265.735 76H259.724V82H265.735V76Z" fill="#FFE43E"/>
<path d="M277.758 100H271.746V106H277.758V100Z" fill="#FFE43E"/>
<path d="M271.746 106H265.735V112H271.746V106Z" fill="#FFE43E"/>
<path d="M271.746 94H265.735V100H271.746V94Z" fill="#FFE43E"/>
<path d="M265.735 100H259.724V106H265.735V100Z" fill="#FFE43E"/>
<path d="M265.735 88H259.724V94H265.735V88Z" fill="#FFE43E"/>
<path d="M259.724 82H253.713V88H259.724V82Z" fill="#FFE43E"/>
<path d="M259.724 94H253.713V100H259.724V94Z" fill="#FFE43E"/>
<path d="M253.713 88H247.702V94H253.713V88Z" fill="#FFE43E"/>
<path d="M289.78 100H283.769V106H289.78V100Z" fill="#FFE43E"/>
<path d="M283.769 94H277.758V100H283.769V94Z" fill="#FFE43E"/>
<path d="M277.758 88H271.746V94H277.758V88Z" fill="#FFE43E"/>
<path d="M240.093 306.45L234.393 308.355L236.302 314.044L242.002 312.139L240.093 306.45Z" fill="#FFE43E"/>
<path d="M242.002 312.139L236.302 314.044L238.21 319.734L243.91 317.829L242.002 312.139Z" fill="#FFE43E"/>
<path d="M232.485 302.665L226.785 304.57L228.693 310.259L234.393 308.355L232.485 302.665Z" fill="#FFE43E"/>
<path d="M228.693 310.259L222.993 312.164L224.901 317.854L230.601 315.949L228.693 310.259Z" fill="#FFE43E"/>
<path d="M224.877 298.88L219.176 300.785L221.085 306.474L226.785 304.57L224.877 298.88Z" fill="#FFE43E"/>
<path d="M221.085 306.474L215.385 308.379L217.293 314.069L222.993 312.164L221.085 306.474Z" fill="#FFE43E"/>
<path d="M213.476 302.69L207.776 304.594L209.684 310.284L215.385 308.379L213.476 302.69Z" fill="#FFE43E"/>
<path d="M211.568 297L205.868 298.905L207.776 304.594L213.476 302.69L211.568 297Z" fill="#FFE43E"/>
<path d="M234.393 308.355L228.693 310.259L230.601 315.949L236.302 314.044L234.393 308.355Z" fill="#FFE43E"/>
<path d="M226.785 304.57L221.085 306.474L222.993 312.164L228.693 310.259L226.785 304.57Z" fill="#FFE43E"/>
<path d="M219.176 300.785L213.476 302.69L215.385 308.379L221.085 306.474L219.176 300.785Z" fill="#FFE43E"/>
<path d="M215.385 308.379L209.684 310.284L211.593 315.974L217.293 314.069L215.385 308.379Z" fill="#FFE43E"/>
<path d="M207.776 304.594L202.076 306.499L203.984 312.189L209.684 310.284L207.776 304.594Z" fill="#FFE43E"/>
<path d="M245.794 304.545L240.093 306.45L242.002 312.139L247.702 310.235L245.794 304.545Z" fill="#FFE43E"/>
<path d="M238.185 300.76L232.485 302.665L234.393 308.355L240.093 306.45L238.185 300.76Z" fill="#FFE43E"/>
<path d="M97.4243 21.7977L91.5915 20.3472L90.1383 26.1692L95.9711 27.6197L97.4243 21.7977Z" fill="#FFE43E"/>
<path d="M91.5915 20.3472L85.7587 18.8967L84.3055 24.7187L90.1383 26.1692L91.5915 20.3472Z" fill="#FFE43E"/>
<path d="M87.2119 13.0746L81.3791 11.6241L79.9259 17.4461L85.7587 18.8967L87.2119 13.0746Z" fill="#FFE43E"/>
<path d="M79.9259 17.4461L74.0931 15.9956L72.6399 21.8176L78.4727 23.2682L79.9259 17.4461Z" fill="#FFE43E"/>
<path d="M82.8323 5.80209L76.9995 4.35157L75.5463 10.1736L81.3791 11.6241L82.8323 5.80209Z" fill="#FFE43E"/>
<path d="M75.5463 10.1736L69.7135 8.72307L68.2603 14.5451L74.0931 15.9956L75.5463 10.1736Z" fill="#FFE43E"/>
<path d="M71.1667 2.90105L65.3339 1.45052L63.8807 7.27255L69.7135 8.72307L71.1667 2.90105Z" fill="#FFE43E"/>
<path d="M85.7587 18.8967L79.9259 17.4461L78.4727 23.2682L84.3055 24.7187L85.7587 18.8967Z" fill="#FFE43E"/>
<path d="M81.3791 11.6241L75.5463 10.1736L74.0931 15.9956L79.9259 17.4461L81.3791 11.6241Z" fill="#FFE43E"/>
<path d="M76.9995 4.35157L71.1667 2.90105L69.7135 8.72307L75.5463 10.1736L76.9995 4.35157Z" fill="#FFE43E"/>
<path d="M69.7135 8.72307L63.8807 7.27255L62.4275 13.0946L68.2603 14.5451L69.7135 8.72307Z" fill="#FFE43E"/>
<path d="M65.3339 1.45052L59.5011 0L58.0479 5.82203L63.8807 7.27255L65.3339 1.45052Z" fill="#FFE43E"/>
<path d="M93.0447 14.5252L87.2119 13.0746L85.7587 18.8967L91.5915 20.3472L93.0447 14.5252Z" fill="#FFE43E"/>
<path d="M33.4895 245.466L27.6621 243.994L26.1873 249.81L32.0147 251.282L33.4895 245.466Z" fill="#FFE43E"/>
<path d="M29.1369 238.177L23.3096 236.705L21.8348 242.522L27.6621 243.994L29.1369 238.177Z" fill="#FFE43E"/>
<path d="M21.8348 242.522L16.0074 241.049L14.5326 246.866L20.3599 248.338L21.8348 242.522Z" fill="#FFE43E"/>
<path d="M24.7844 230.888L18.957 229.416L17.4822 235.233L23.3096 236.705L24.7844 230.888Z" fill="#FFE43E"/>
<path d="M17.4822 235.233L11.6548 233.761L10.18 239.577L16.0074 241.049L17.4822 235.233Z" fill="#FFE43E"/>
<path d="M13.1296 227.944L7.30224 226.472L5.82743 232.289L11.6548 233.761L13.1296 227.944Z" fill="#FFE43E"/>
<path d="M27.6621 243.994L21.8348 242.522L20.3599 248.338L26.1873 249.81L27.6621 243.994Z" fill="#FFE43E"/>
<path d="M23.3096 236.705L17.4822 235.233L16.0074 241.049L21.8348 242.522L23.3096 236.705Z" fill="#FFE43E"/>
<path d="M16.0074 241.049L10.18 239.577L8.70518 245.394L14.5326 246.866L16.0074 241.049Z" fill="#FFE43E"/>
<path d="M18.957 229.416L13.1296 227.944L11.6548 233.761L17.4822 235.233L18.957 229.416Z" fill="#FFE43E"/>
<path d="M11.6548 233.761L5.82743 232.289L4.35262 238.105L10.18 239.577L11.6548 233.761Z" fill="#FFE43E"/>
<path d="M7.30224 226.472L1.47486 225L4.95911e-05 230.817L5.82743 232.289L7.30224 226.472Z" fill="#FFE43E"/>
<path d="M39.3169 246.938L33.4895 245.466L32.0147 251.282L37.8421 252.754L39.3169 246.938Z" fill="#FFE43E"/>
<path d="M34.9643 239.649L29.1369 238.177L27.6621 243.994L33.4895 245.466L34.9643 239.649Z" fill="#FFE43E"/>
<path d="M30.6118 232.36L24.7844 230.888L23.3096 236.705L29.1369 238.177L30.6118 232.36Z" fill="#FFE43E"/>
<path d="M150.638 152.443L144.634 152.724L144.914 158.717L150.919 158.437L150.638 152.443Z" fill="#C9FAFB"/>
<path d="M150.919 158.437L144.914 158.717L145.195 164.711L151.2 164.43L150.919 158.437Z" fill="#C9FAFB"/>
<path d="M144.353 146.73L138.348 147.011L138.629 153.004L144.634 152.724L144.353 146.73Z" fill="#C9FAFB"/>
<path d="M138.629 153.004L132.625 153.284L132.905 159.278L138.91 158.997L138.629 153.004Z" fill="#C9FAFB"/>
<path d="M138.067 141.017L132.063 141.297L132.344 147.291L138.348 147.011L138.067 141.017Z" fill="#C9FAFB"/>
<path d="M132.344 147.291L126.339 147.571L126.62 153.565L132.625 153.284L132.344 147.291Z" fill="#C9FAFB"/>
<path d="M126.058 141.578L120.054 141.858L120.335 147.852L126.339 147.571L126.058 141.578Z" fill="#C9FAFB"/>
<path d="M125.777 135.584L119.773 135.865L120.054 141.858L126.058 141.578L125.777 135.584Z" fill="#C9FAFB"/>
<path d="M144.634 152.724L138.629 153.004L138.91 158.997L144.914 158.717L144.634 152.724Z" fill="#C9FAFB"/>
<path d="M138.348 147.011L132.344 147.291L132.625 153.284L138.629 153.004L138.348 147.011Z" fill="#C9FAFB"/>
<path d="M132.063 141.297L126.058 141.578L126.339 147.571L132.344 147.291L132.063 141.297Z" fill="#C9FAFB"/>
<path d="M126.339 147.571L120.335 147.852L120.615 153.845L126.62 153.565L126.339 147.571Z" fill="#C9FAFB"/>
<path d="M120.054 141.858L114.049 142.139L114.33 148.132L120.335 147.852L120.054 141.858Z" fill="#C9FAFB"/>
<path d="M156.643 152.163L150.638 152.443L150.919 158.437L156.924 158.156L156.643 152.163Z" fill="#C9FAFB"/>
<path d="M150.357 146.45L144.353 146.73L144.634 152.724L150.638 152.443L150.357 146.45Z" fill="#C9FAFB"/>
<path d="M347.069 231.466L341.241 229.994L339.767 235.81L345.594 237.282L347.069 231.466Z" fill="#C9FAFB"/>
<path d="M342.716 224.177L336.889 222.705L335.414 228.522L341.241 229.994L342.716 224.177Z" fill="#C9FAFB"/>
<path d="M335.414 228.522L329.587 227.049L328.112 232.866L333.939 234.338L335.414 228.522Z" fill="#C9FAFB"/>
<path d="M338.364 216.888L332.536 215.416L331.062 221.233L336.889 222.705L338.364 216.888Z" fill="#C9FAFB"/>
<path d="M331.062 221.233L325.234 219.761L323.759 225.577L329.587 227.049L331.062 221.233Z" fill="#C9FAFB"/>
<path d="M326.709 213.944L320.882 212.472L319.407 218.289L325.234 219.761L326.709 213.944Z" fill="#C9FAFB"/>
<path d="M341.241 229.994L335.414 228.522L333.939 234.338L339.767 235.81L341.241 229.994Z" fill="#C9FAFB"/>
<path d="M336.889 222.705L331.062 221.233L329.587 227.049L335.414 228.522L336.889 222.705Z" fill="#C9FAFB"/>
<path d="M329.587 227.049L323.759 225.577L322.285 231.394L328.112 232.866L329.587 227.049Z" fill="#C9FAFB"/>
<path d="M332.536 215.416L326.709 213.944L325.234 219.761L331.062 221.233L332.536 215.416Z" fill="#C9FAFB"/>
<path d="M325.234 219.761L319.407 218.289L317.932 224.105L323.759 225.577L325.234 219.761Z" fill="#C9FAFB"/>
<path d="M320.882 212.472L315.054 211L313.579 216.817L319.407 218.289L320.882 212.472Z" fill="#C9FAFB"/>
<path d="M352.896 232.938L347.069 231.466L345.594 237.282L351.421 238.754L352.896 232.938Z" fill="#C9FAFB"/>
<path d="M348.544 225.649L342.716 224.177L341.241 229.994L347.069 231.466L348.544 225.649Z" fill="#C9FAFB"/>
<path d="M344.191 218.36L338.364 216.888L336.889 222.705L342.716 224.177L344.191 218.36Z" fill="#C9FAFB"/>
<path d="M396.117 60.2183L391.225 56.7323L387.732 61.6157L392.625 65.1017L396.117 60.2183Z" fill="#C9FAFB"/>
<path d="M394.717 51.8488L389.825 48.3628L386.332 53.2463L391.225 56.7323L394.717 51.8488Z" fill="#C9FAFB"/>
<path d="M386.332 53.2463L381.44 49.7603L377.947 54.6437L382.84 58.1297L386.332 53.2463Z" fill="#C9FAFB"/>
<path d="M393.317 43.4794L388.425 39.9934L384.932 44.8768L389.825 48.3628L393.317 43.4794Z" fill="#C9FAFB"/>
<path d="M384.932 44.8768L380.04 41.3908L376.547 46.2743L381.44 49.7603L384.932 44.8768Z" fill="#C9FAFB"/>
<path d="M383.532 36.5074L378.64 33.0214L375.147 37.9048L380.04 41.3908L383.532 36.5074Z" fill="#C9FAFB"/>
<path d="M391.225 56.7323L386.332 53.2463L382.84 58.1297L387.732 61.6157L391.225 56.7323Z" fill="#C9FAFB"/>
<path d="M389.825 48.3628L384.932 44.8768L381.44 49.7603L386.332 53.2463L389.825 48.3628Z" fill="#C9FAFB"/>
<path d="M381.44 49.7603L376.547 46.2743L373.055 51.1577L377.947 54.6437L381.44 49.7603Z" fill="#C9FAFB"/>
<path d="M388.425 39.9934L383.532 36.5074L380.04 41.3908L384.932 44.8768L388.425 39.9934Z" fill="#C9FAFB"/>
<path d="M380.04 41.3908L375.147 37.9048L371.655 42.7883L376.547 46.2743L380.04 41.3908Z" fill="#C9FAFB"/>
<path d="M378.64 33.0214L373.747 29.5354L370.255 34.4188L375.147 37.9048L378.64 33.0214Z" fill="#C9FAFB"/>
<path d="M401.01 63.7043L396.117 60.2183L392.625 65.1017L397.517 68.5877L401.01 63.7043Z" fill="#C9FAFB"/>
<path d="M399.61 55.3349L394.717 51.8488L391.225 56.7323L396.117 60.2183L399.61 55.3349Z" fill="#C9FAFB"/>
<path d="M398.21 46.9654L393.317 43.4794L389.825 48.3628L394.717 51.8488L398.21 46.9654Z" fill="#C9FAFB"/>
<path d="M100.229 354.092L95.1417 357.289L98.3441 362.366L103.431 359.17L100.229 354.092Z" fill="#C9FAFB"/>
<path d="M95.1417 357.289L90.0546 360.485L93.257 365.563L98.3441 362.366L95.1417 357.289Z" fill="#C9FAFB"/>
<path d="M86.8523 355.408L81.7652 358.604L84.9676 363.682L90.0546 360.485L86.8523 355.408Z" fill="#C9FAFB"/>
<path d="M84.9676 363.682L79.8805 366.878L83.0829 371.956L88.1699 368.759L84.9676 363.682Z" fill="#C9FAFB"/>
<path d="M78.5628 353.526L73.4757 356.723L76.6781 361.8L81.7652 358.604L78.5628 353.526Z" fill="#C9FAFB"/>
<path d="M76.6781 361.8L71.591 364.997L74.7934 370.075L79.8805 366.878L76.6781 361.8Z" fill="#C9FAFB"/>
<path d="M68.3887 359.919L63.3016 363.116L66.504 368.193L71.591 364.997L68.3887 359.919Z" fill="#C9FAFB"/>
<path d="M90.0546 360.485L84.9676 363.682L88.1699 368.759L93.257 365.563L90.0546 360.485Z" fill="#C9FAFB"/>
<path d="M81.7652 358.604L76.6781 361.8L79.8805 366.878L84.9676 363.682L81.7652 358.604Z" fill="#C9FAFB"/>
<path d="M73.4757 356.723L68.3887 359.919L71.591 364.997L76.6781 361.8L73.4757 356.723Z" fill="#C9FAFB"/>
<path d="M71.591 364.997L66.504 368.193L69.7063 373.271L74.7934 370.075L71.591 364.997Z" fill="#C9FAFB"/>
<path d="M63.3016 363.116L58.2145 366.312L61.4169 371.39L66.504 368.193L63.3016 363.116Z" fill="#C9FAFB"/>
<path d="M91.9393 352.211L86.8523 355.408L90.0546 360.485L95.1417 357.289L91.9393 352.211Z" fill="#C9FAFB"/>
</svg>
