<svg width="409" height="387" viewBox="0 0 409 387" fill="none" xmlns="http://www.w3.org/2000/svg">
<path d="M125 100H131V106H125V100Z" fill="#C9FAFB"/>
<path d="M131 106H137V112H131V106Z" fill="#C9FAFB"/>
<path d="M125 106H131V112H125V106Z" fill="#C9FAFB"/>
<path d="M131 112H137V118H131V112Z" fill="#C9FAFB"/>
<path d="M131 94H137V100H131V94Z" fill="#C9FAFB"/>
<path d="M137 100H143V106H137V100Z" fill="#C9FAFB"/>
<path d="M137 88H143V94H137V88Z" fill="#C9FAFB"/>
<path d="M143 82H149V88H143V82Z" fill="#C9FAFB"/>
<path d="M143 94H149V100H143V94Z" fill="#C9FAFB"/>
<path d="M149 88H155V94H149V88Z" fill="#C9FAFB"/>
<path d="M137 82H143V88H137V82Z" fill="#C9FAFB"/>
<path d="M143 76H149V82H143V76Z" fill="#C9FAFB"/>
<path d="M131 100H137V106H131V100Z" fill="#C9FAFB"/>
<path d="M137 106H143V112H137V106Z" fill="#C9FAFB"/>
<path d="M137 94H143V100H137V94Z" fill="#C9FAFB"/>
<path d="M143 100H149V106H143V100Z" fill="#C9FAFB"/>
<path d="M143 88H149V94H143V88Z" fill="#C9FAFB"/>
<path d="M149 82H155V88H149V82Z" fill="#C9FAFB"/>
<path d="M149 94H155V100H149V94Z" fill="#C9FAFB"/>
<path d="M155 88H161V94H155V88Z" fill="#C9FAFB"/>
<path d="M119 100H125V106H119V100Z" fill="#C9FAFB"/>
<path d="M125 94H131V100H125V94Z" fill="#C9FAFB"/>
<path d="M131 88H137V94H131V88Z" fill="#C9FAFB"/>
<path d="M168.594 306.45L174.284 308.355L172.379 314.044L166.69 312.139L168.594 306.45Z" fill="#C9FAFB"/>
<path d="M166.69 312.139L172.379 314.044L170.474 319.734L164.785 317.829L166.69 312.139Z" fill="#C9FAFB"/>
<path d="M176.189 302.665L181.878 304.57L179.974 310.259L174.284 308.355L176.189 302.665Z" fill="#C9FAFB"/>
<path d="M179.974 310.259L185.663 312.164L183.758 317.854L178.069 315.949L179.974 310.259Z" fill="#C9FAFB"/>
<path d="M183.783 298.88L189.473 300.785L187.568 306.474L181.878 304.57L183.783 298.88Z" fill="#C9FAFB"/>
<path d="M187.568 306.474L193.258 308.379L191.353 314.069L185.663 312.164L187.568 306.474Z" fill="#C9FAFB"/>
<path d="M195.162 302.69L200.852 304.594L198.947 310.284L193.258 308.379L195.162 302.69Z" fill="#C9FAFB"/>
<path d="M197.067 297L202.757 298.905L200.852 304.594L195.162 302.69L197.067 297Z" fill="#C9FAFB"/>
<path d="M174.284 308.355L179.974 310.259L178.069 315.949L172.379 314.044L174.284 308.355Z" fill="#C9FAFB"/>
<path d="M181.878 304.57L187.568 306.474L185.663 312.164L179.974 310.259L181.878 304.57Z" fill="#C9FAFB"/>
<path d="M189.473 300.785L195.162 302.69L193.258 308.379L187.568 306.474L189.473 300.785Z" fill="#C9FAFB"/>
<path d="M193.258 308.379L198.947 310.284L197.043 315.974L191.353 314.069L193.258 308.379Z" fill="#C9FAFB"/>
<path d="M200.852 304.594L206.542 306.499L204.637 312.189L198.947 310.284L200.852 304.594Z" fill="#C9FAFB"/>
<path d="M162.905 304.545L168.594 306.45L166.69 312.139L161 310.235L162.905 304.545Z" fill="#C9FAFB"/>
<path d="M170.499 300.76L176.189 302.665L174.284 308.355L168.594 306.45L170.499 300.76Z" fill="#C9FAFB"/>
<path d="M311 21.7977L316.822 20.3472L318.273 26.1692L312.451 27.6197L311 21.7977Z" fill="#C9FAFB"/>
<path d="M316.822 20.3472L322.644 18.8967L324.095 24.7187L318.273 26.1692L316.822 20.3472Z" fill="#C9FAFB"/>
<path d="M321.194 13.0746L327.016 11.6241L328.466 17.4461L322.644 18.8967L321.194 13.0746Z" fill="#C9FAFB"/>
<path d="M328.466 17.4461L334.288 15.9956L335.739 21.8176L329.917 23.2682L328.466 17.4461Z" fill="#C9FAFB"/>
<path d="M325.565 5.80209L331.387 4.35157L332.838 10.1736L327.016 11.6241L325.565 5.80209Z" fill="#C9FAFB"/>
<path d="M332.838 10.1736L338.66 8.72307L340.11 14.5451L334.288 15.9956L332.838 10.1736Z" fill="#C9FAFB"/>
<path d="M337.209 2.90105L343.031 1.45052L344.482 7.27255L338.66 8.72307L337.209 2.90105Z" fill="#C9FAFB"/>
<path d="M322.644 18.8967L328.466 17.4461L329.917 23.2682L324.095 24.7187L322.644 18.8967Z" fill="#C9FAFB"/>
<path d="M327.016 11.6241L332.838 10.1736L334.288 15.9956L328.466 17.4461L327.016 11.6241Z" fill="#C9FAFB"/>
<path d="M331.387 4.35157L337.209 2.90105L338.66 8.72307L332.838 10.1736L331.387 4.35157Z" fill="#C9FAFB"/>
<path d="M338.66 8.72307L344.482 7.27255L345.932 13.0946L340.11 14.5451L338.66 8.72307Z" fill="#C9FAFB"/>
<path d="M343.031 1.45052L348.853 0L350.304 5.82203L344.482 7.27255L343.031 1.45052Z" fill="#C9FAFB"/>
<path d="M315.372 14.5252L321.194 13.0746L322.644 18.8967L316.822 20.3472L315.372 14.5252Z" fill="#C9FAFB"/>
<path d="M374.817 245.466L380.633 243.994L382.105 249.81L376.289 251.282L374.817 245.466Z" fill="#C9FAFB"/>
<path d="M379.161 238.177L384.978 236.705L386.45 242.522L380.633 243.994L379.161 238.177Z" fill="#C9FAFB"/>
<path d="M386.45 242.522L392.266 241.049L393.739 246.866L387.922 248.338L386.45 242.522Z" fill="#C9FAFB"/>
<path d="M383.506 230.888L389.322 229.416L390.794 235.233L384.978 236.705L383.506 230.888Z" fill="#C9FAFB"/>
<path d="M390.794 235.233L396.611 233.761L398.083 239.577L392.266 241.049L390.794 235.233Z" fill="#C9FAFB"/>
<path d="M395.139 227.944L400.955 226.472L402.428 232.289L396.611 233.761L395.139 227.944Z" fill="#C9FAFB"/>
<path d="M380.633 243.994L386.45 242.522L387.922 248.338L382.105 249.81L380.633 243.994Z" fill="#C9FAFB"/>
<path d="M384.978 236.705L390.794 235.233L392.266 241.049L386.45 242.522L384.978 236.705Z" fill="#C9FAFB"/>
<path d="M392.266 241.049L398.083 239.577L399.555 245.394L393.739 246.866L392.266 241.049Z" fill="#C9FAFB"/>
<path d="M389.322 229.416L395.139 227.944L396.611 233.761L390.794 235.233L389.322 229.416Z" fill="#C9FAFB"/>
<path d="M396.611 233.761L402.428 232.289L403.9 238.105L398.083 239.577L396.611 233.761Z" fill="#C9FAFB"/>
<path d="M400.955 226.472L406.772 225L408.244 230.817L402.428 232.289L400.955 226.472Z" fill="#C9FAFB"/>
<path d="M369 246.938L374.817 245.466L376.289 251.282L370.472 252.754L369 246.938Z" fill="#C9FAFB"/>
<path d="M373.345 239.649L379.161 238.177L380.633 243.994L374.817 245.466L373.345 239.649Z" fill="#C9FAFB"/>
<path d="M377.689 232.36L383.506 230.888L384.978 236.705L379.161 238.177L377.689 232.36Z" fill="#C9FAFB"/>
<path d="M257.884 152.443L263.878 152.724L263.597 158.717L257.604 158.437L257.884 152.443Z" fill="#FFE43E"/>
<path d="M257.604 158.437L263.597 158.717L263.317 164.711L257.324 164.43L257.604 158.437Z" fill="#FFE43E"/>
<path d="M264.158 146.73L270.152 147.011L269.871 153.004L263.878 152.724L264.158 146.73Z" fill="#FFE43E"/>
<path d="M269.871 153.004L275.865 153.284L275.584 159.278L269.591 158.997L269.871 153.004Z" fill="#FFE43E"/>
<path d="M270.432 141.017L276.425 141.297L276.145 147.291L270.152 147.011L270.432 141.017Z" fill="#FFE43E"/>
<path d="M276.145 147.291L282.138 147.571L281.858 153.565L275.865 153.284L276.145 147.291Z" fill="#FFE43E"/>
<path d="M282.419 141.578L288.412 141.858L288.132 147.852L282.138 147.571L282.419 141.578Z" fill="#FFE43E"/>
<path d="M282.699 135.584L288.693 135.865L288.412 141.858L282.419 141.578L282.699 135.584Z" fill="#FFE43E"/>
<path d="M263.878 152.724L269.871 153.004L269.591 158.997L263.597 158.717L263.878 152.724Z" fill="#FFE43E"/>
<path d="M270.152 147.011L276.145 147.291L275.865 153.284L269.871 153.004L270.152 147.011Z" fill="#FFE43E"/>
<path d="M276.425 141.297L282.419 141.578L282.138 147.571L276.145 147.291L276.425 141.297Z" fill="#FFE43E"/>
<path d="M282.138 147.571L288.132 147.852L287.852 153.845L281.858 153.565L282.138 147.571Z" fill="#FFE43E"/>
<path d="M288.412 141.858L294.406 142.139L294.125 148.132L288.132 147.852L288.412 141.858Z" fill="#FFE43E"/>
<path d="M251.891 152.163L257.884 152.443L257.604 158.437L251.611 158.156L251.891 152.163Z" fill="#FFE43E"/>
<path d="M258.165 146.45L264.158 146.73L263.878 152.724L257.884 152.443L258.165 146.45Z" fill="#FFE43E"/>
<path d="M61.8166 231.466L67.6332 229.994L69.1053 235.81L63.2887 237.282L61.8166 231.466Z" fill="#FFE43E"/>
<path d="M66.1611 224.177L71.9777 222.705L73.4498 228.522L67.6332 229.994L66.1611 224.177Z" fill="#FFE43E"/>
<path d="M73.4498 228.522L79.2664 227.049L80.7385 232.866L74.9219 234.338L73.4498 228.522Z" fill="#FFE43E"/>
<path d="M70.5057 216.888L76.3223 215.416L77.7944 221.233L71.9777 222.705L70.5057 216.888Z" fill="#FFE43E"/>
<path d="M77.7944 221.233L83.611 219.761L85.0831 225.577L79.2664 227.049L77.7944 221.233Z" fill="#FFE43E"/>
<path d="M82.1389 213.944L87.9555 212.472L89.4276 218.289L83.611 219.761L82.1389 213.944Z" fill="#FFE43E"/>
<path d="M67.6332 229.994L73.4498 228.522L74.9219 234.338L69.1053 235.81L67.6332 229.994Z" fill="#FFE43E"/>
<path d="M71.9777 222.705L77.7944 221.233L79.2664 227.049L73.4498 228.522L71.9777 222.705Z" fill="#FFE43E"/>
<path d="M79.2664 227.049L85.0831 225.577L86.5551 231.394L80.7385 232.866L79.2664 227.049Z" fill="#FFE43E"/>
<path d="M76.3223 215.416L82.1389 213.944L83.611 219.761L77.7944 221.233L76.3223 215.416Z" fill="#FFE43E"/>
<path d="M83.611 219.761L89.4276 218.289L90.8997 224.105L85.0831 225.577L83.611 219.761Z" fill="#FFE43E"/>
<path d="M87.9555 212.472L93.7721 211L95.2442 216.817L89.4276 218.289L87.9555 212.472Z" fill="#FFE43E"/>
<path d="M56 232.938L61.8166 231.466L63.2887 237.282L57.4721 238.754L56 232.938Z" fill="#FFE43E"/>
<path d="M60.3445 225.649L66.1611 224.177L67.6332 229.994L61.8166 231.466L60.3445 225.649Z" fill="#FFE43E"/>
<path d="M64.689 218.36L70.5057 216.888L71.9777 222.705L66.1611 224.177L64.689 218.36Z" fill="#FFE43E"/>
<path d="M12.859 60.2183L17.7424 56.7323L21.2284 61.6157L16.345 65.1017L12.859 60.2183Z" fill="#FFE43E"/>
<path d="M14.2564 51.8488L19.1398 48.3628L22.6258 53.2463L17.7424 56.7323L14.2564 51.8488Z" fill="#FFE43E"/>
<path d="M22.6258 53.2463L27.5092 49.7603L30.9952 54.6437L26.1118 58.1297L22.6258 53.2463Z" fill="#FFE43E"/>
<path d="M15.6538 43.4794L20.5372 39.9934L24.0232 44.8768L19.1398 48.3628L15.6538 43.4794Z" fill="#FFE43E"/>
<path d="M24.0232 44.8768L28.9067 41.3908L32.3927 46.2743L27.5092 49.7603L24.0232 44.8768Z" fill="#FFE43E"/>
<path d="M25.4207 36.5074L30.3041 33.0214L33.7901 37.9048L28.9067 41.3908L25.4207 36.5074Z" fill="#FFE43E"/>
<path d="M17.7424 56.7323L22.6258 53.2463L26.1118 58.1297L21.2284 61.6157L17.7424 56.7323Z" fill="#FFE43E"/>
<path d="M19.1398 48.3628L24.0232 44.8768L27.5092 49.7603L22.6258 53.2463L19.1398 48.3628Z" fill="#FFE43E"/>
<path d="M27.5092 49.7603L32.3927 46.2743L35.8787 51.1577L30.9952 54.6437L27.5092 49.7603Z" fill="#FFE43E"/>
<path d="M20.5372 39.9934L25.4207 36.5074L28.9067 41.3908L24.0232 44.8768L20.5372 39.9934Z" fill="#FFE43E"/>
<path d="M28.9067 41.3908L33.7901 37.9048L37.2761 42.7883L32.3927 46.2743L28.9067 41.3908Z" fill="#FFE43E"/>
<path d="M30.3041 33.0214L35.1875 29.5354L38.6735 34.4188L33.7901 37.9048L30.3041 33.0214Z" fill="#FFE43E"/>
<path d="M7.97556 63.7043L12.859 60.2183L16.345 65.1017L11.4616 68.5877L7.97556 63.7043Z" fill="#FFE43E"/>
<path d="M9.37298 55.3349L14.2564 51.8488L17.7424 56.7323L12.859 60.2183L9.37298 55.3349Z" fill="#FFE43E"/>
<path d="M10.7704 46.9654L15.6538 43.4794L19.1398 48.3628L14.2564 51.8488L10.7704 46.9654Z" fill="#FFE43E"/>
<path d="M308.201 354.092L313.278 357.289L310.082 362.366L305.004 359.17L308.201 354.092Z" fill="#FFE43E"/>
<path d="M313.278 357.289L318.356 360.485L315.16 365.563L310.082 362.366L313.278 357.289Z" fill="#FFE43E"/>
<path d="M321.553 355.408L326.63 358.604L323.434 363.682L318.356 360.485L321.553 355.408Z" fill="#FFE43E"/>
<path d="M323.434 363.682L328.511 366.878L325.315 371.956L320.237 368.759L323.434 363.682Z" fill="#FFE43E"/>
<path d="M329.827 353.526L334.904 356.723L331.708 361.8L326.63 358.604L329.827 353.526Z" fill="#FFE43E"/>
<path d="M331.708 361.8L336.786 364.997L333.589 370.075L328.511 366.878L331.708 361.8Z" fill="#FFE43E"/>
<path d="M339.982 359.919L345.06 363.116L341.863 368.193L336.786 364.997L339.982 359.919Z" fill="#FFE43E"/>
<path d="M318.356 360.485L323.434 363.682L320.237 368.759L315.16 365.563L318.356 360.485Z" fill="#FFE43E"/>
<path d="M326.63 358.604L331.708 361.8L328.511 366.878L323.434 363.682L326.63 358.604Z" fill="#FFE43E"/>
<path d="M334.904 356.723L339.982 359.919L336.786 364.997L331.708 361.8L334.904 356.723Z" fill="#FFE43E"/>
<path d="M336.786 364.997L341.863 368.193L338.667 373.271L333.589 370.075L336.786 364.997Z" fill="#FFE43E"/>
<path d="M345.06 363.116L350.137 366.312L346.941 371.39L341.863 368.193L345.06 363.116Z" fill="#FFE43E"/>
<path d="M316.475 352.211L321.553 355.408L318.356 360.485L313.278 357.289L316.475 352.211Z" fill="#FFE43E"/>
</svg>
