<?xml version="1.0" encoding="utf-8"?>
<!-- Generator: Adobe Illustrator 16.2.1, SVG Export Plug-In . SVG Version: 6.00 Build 0)  -->
<!DOCTYPE svg PUBLIC "-//W3C//DTD SVG 1.1//EN" "http://www.w3.org/Graphics/SVG/1.1/DTD/svg11.dtd">
<svg version="1.1" id="圖層_1" xmlns="http://www.w3.org/2000/svg" xmlns:xlink="http://www.w3.org/1999/xlink" x="0px" y="0px"
	 width="377px" height="166px" viewBox="0 0 377 166" enable-background="new 0 0 377 166" xml:space="preserve">
<polygon fill="#4CD30C" points="372,51 372,46 362,46 362,41 347,41 347,36 302,36 302,41 297,41 297,46 292,46 292,51 287,51 
	287,61 282,61 282,42.931 277.684,42.931 277.684,34.345 273.368,34.345 273.368,25.759 266.895,25.759 266.895,21.465 
	262.579,21.465 262.579,0 253.947,0 253.947,21.465 245.316,21.465 245.316,0 236.684,0 236.684,21.465 228.053,21.465 228.053,0 
	219.421,0 219.421,21.465 215.105,21.465 215.105,25.759 208.632,25.759 208.632,34.345 204.316,34.345 204.316,42.931 200,42.931 
	200,166 282,166 282,161 287,161 287,166 357,166 357,161 362,161 362,66 372,66 372,61 377,61 377,51 "/>
<polygon fill="#4CD30C" points="193.562,109.895 193.562,101.264 184.979,101.264 184.979,92.632 174.25,92.632 174.25,84 
	122.75,84 122.75,92.632 112.021,92.632 112.021,101.264 103.438,101.264 103.438,109.895 97,109.895 97,38.385 90.938,38.385 
	90.938,32.308 90.938,26.23 84.875,26.23 84.875,20.154 78.812,20.154 78.812,14.077 72.75,14.077 72.75,8 24.25,8 24.25,14.077 
	18.188,14.077 18.188,20.154 12.125,20.154 12.125,26.23 6.062,26.23 6.062,32.307 6.062,38.385 6,38.385 4.75,38.385 0,38.385 
	0,159.923 6.062,159.923 6.062,166 90.938,166 90.938,159.923 97,159.923 97,166 200,166 200,109.895 "/>
<rect x="216.543" y="45.078" fill="#E8E8E8" width="30.211" height="30.052"/>
<rect x="220.859" y="49.371" width="12.947" height="12.879"/>
<rect x="159.229" y="111.333" fill="#E8E8E8" width="25.75" height="17.263"/>
<rect x="161.375" y="113.491" width="8.583" height="8.632"/>
<rect x="117.743" y="111.333" fill="#E8E8E8" width="25.75" height="17.263"/>
<rect x="119.889" y="113.491" width="8.583" height="8.632"/>
<path fill="#E8E8E8" d="M346.917,70.833h-19.792v19.792h19.792V70.833z"/>
<path d="M338.436,73.661h-8.483v8.482h8.483V73.661z"/>
<path fill="#E8E8E8" d="M317.625,70.833h-19.792v19.792h19.792V70.833z"/>
<path d="M309.143,73.661h-8.481v8.482h8.481V73.661z"/>
<path fill="#E8E8E8" d="M76.496,47.355H55.203v21.344h21.293V47.355z"/>
<path d="M67.371,50.405h-9.125v9.147h9.125V50.405z"/>
<path fill="#E8E8E8" d="M41.008,47.355H19.715v21.344h21.293V47.355z"/>
<path d="M31.883,50.405h-9.125v9.147h9.125V50.405z"/>
</svg>
