<svg width="141" height="94" viewBox="0 0 141 94" fill="none" xmlns="http://www.w3.org/2000/svg">
<path d="M21.3636 0V4.27273L8.54545 4.27273V8.54545H4.27273V21.3636H0V72.6364H4.27273V85.4545H8.54545V89.7273H21.3636V94H119.636V89.7273H132.455V85.4545L136.727 85.4545L136.727 72.6364H141V21.3636H136.727V8.54545L132.455 8.54545L132.455 4.27273L119.636 4.27273L119.636 0H21.3636Z" fill="#4CD30C"/>
<path d="M48.2818 23.5H52.5545H56.8273V27.7727H65.3727V32.0455H78.1909V36.3182H86.7364V40.5909H95.2818V44.8636H103.827V49.1364H95.2818V53.4091H86.7364V57.6818H78.1909V61.9545L65.3727 61.9545V66.2273L56.8273 66.2273V70.5H48.2818L48.2818 23.5Z" fill="#E8E8E8"/>
</svg>
