<svg width="1196" height="543" viewBox="0 0 1196 543" fill="none" xmlns="http://www.w3.org/2000/svg">
<path d="M0 59.9588H11.9005V71.9506H0V59.9588Z" fill="#4CD30C"/>
<path d="M1178.15 59.9588H1190.05V71.9506H1178.15V59.9588Z" fill="#4CD30C"/>
<path d="M11.9005 47.967H23.801V59.9588H11.9005V47.967Z" fill="#4CD30C"/>
<path d="M47.602 515.646V503.654H59.5025V515.646H47.602Z" fill="#4CD30C"/>
<path d="M1142.45 11.9918V23.9835H1130.55V11.9918L1142.45 11.9918Z" fill="#4CD30C"/>
<path d="M11.9005 35.9753H23.801V47.967H11.9005V35.9753Z" fill="#4CD30C"/>
<path d="M35.7015 515.646V503.654H47.602V515.646H35.7015Z" fill="#4CD30C"/>
<path d="M1154.35 11.9918V23.9835H1142.45V11.9918H1154.35Z" fill="#4CD30C"/>
<path d="M23.801 23.9835H35.7015V35.9753H23.801V23.9835Z" fill="#4CD30C"/>
<path d="M23.801 503.654V491.662H35.7015V503.654H23.801Z" fill="#4CD30C"/>
<path d="M1166.25 23.9835V35.9753H1154.35V23.9835H1166.25Z" fill="#4CD30C"/>
<path d="M35.7015 11.9918H47.602V23.9835H35.7015V11.9918Z" fill="#4CD30C"/>
<path d="M11.9005 491.662V479.67H23.801V491.662H11.9005Z" fill="#4CD30C"/>
<path d="M1178.15 35.9753V47.967H1166.25V35.9753H1178.15Z" fill="#4CD30C"/>
<path d="M59.5025 0H71.403V11.9918H59.5025V0Z" fill="#4CD30C"/>
<path d="M47.602 11.9918H59.5025V23.9835H47.602V11.9918Z" fill="#4CD30C"/>
<path d="M11.9005 479.67V467.679H23.801V479.67H11.9005Z" fill="#4CD30C"/>
<path d="M1178.15 47.967V59.9588H1166.25V47.967H1178.15Z" fill="#4CD30C"/>
<path d="M71.403 0H83.3035V11.9918H71.403V0Z" fill="#4CD30C"/>
<path d="M83.3035 0H95.204V11.9918H83.3035V0Z" fill="#4CD30C"/>
<path d="M95.204 0H107.104V11.9918H95.204V0Z" fill="#4CD30C"/>
<path d="M107.104 0H119.005V11.9918H107.104V0Z" fill="#4CD30C"/>
<path d="M119.005 0H130.905V11.9918H119.005V0Z" fill="#4CD30C"/>
<path d="M130.905 0H142.806V11.9918H130.905V0Z" fill="#4CD30C"/>
<path d="M142.806 0H154.706V11.9918H142.806V0Z" fill="#4CD30C"/>
<path d="M154.706 0H166.607V11.9918H154.706V0Z" fill="#4CD30C"/>
<path d="M166.607 0H178.507V11.9918H166.607V0Z" fill="#4CD30C"/>
<path d="M178.507 0H190.408V11.9918H178.507V0Z" fill="#4CD30C"/>
<path d="M190.408 0H202.308V11.9918H190.408V0Z" fill="#4CD30C"/>
<path d="M202.308 0H214.209V11.9918H202.308V0Z" fill="#4CD30C"/>
<path d="M214.209 0H226.109V11.9918H214.209V0Z" fill="#4CD30C"/>
<path d="M226.109 0H238.01V11.9918H226.109V0Z" fill="#4CD30C"/>
<path d="M238.01 0H249.91V11.9918H238.01V0Z" fill="#4CD30C"/>
<path d="M249.91 0H261.811V11.9918H249.91V0Z" fill="#4CD30C"/>
<path d="M261.811 0H273.711V11.9918H261.811V0Z" fill="#4CD30C"/>
<path d="M273.711 0H285.612V11.9918H273.711V0Z" fill="#4CD30C"/>
<path d="M285.612 0H297.512V11.9918H285.612V0Z" fill="#4CD30C"/>
<path d="M297.512 0H309.413V11.9918H297.512V0Z" fill="#4CD30C"/>
<path d="M309.413 0H321.313V11.9918H309.413V0Z" fill="#4CD30C"/>
<path d="M321.313 0H333.214V11.9918H321.313V0Z" fill="#4CD30C"/>
<path d="M333.214 0H345.114V11.9918H333.214V0Z" fill="#4CD30C"/>
<path d="M345.114 0H357.015V11.9918H345.114V0Z" fill="#4CD30C"/>
<path d="M357.015 0H368.915V11.9918H357.015V0Z" fill="#4CD30C"/>
<path d="M368.915 0H380.816V11.9918H368.915V0Z" fill="#4CD30C"/>
<path d="M380.816 0H392.716V11.9918H380.816V0Z" fill="#4CD30C"/>
<path d="M392.716 0H404.617V11.9918H392.716V0Z" fill="#4CD30C"/>
<path d="M404.617 0H416.517V11.9918H404.617V0Z" fill="#4CD30C"/>
<path d="M416.517 0H428.418V11.9918H416.517V0Z" fill="#4CD30C"/>
<path d="M428.418 0H440.318V11.9918H428.418V0Z" fill="#4CD30C"/>
<path d="M440.318 0H452.219V11.9918H440.318V0Z" fill="#4CD30C"/>
<path d="M452.219 0H464.119V11.9918H452.219V0Z" fill="#4CD30C"/>
<path d="M464.119 0H476.02V11.9918H464.119V0Z" fill="#4CD30C"/>
<path d="M476.02 0H487.92V11.9918H476.02V0Z" fill="#4CD30C"/>
<path d="M487.92 0H499.821V11.9918H487.92V0Z" fill="#4CD30C"/>
<path d="M499.821 0H511.721V11.9918H499.821V0Z" fill="#4CD30C"/>
<path d="M511.721 0H523.622V11.9918H511.721V0Z" fill="#4CD30C"/>
<path d="M523.622 0H535.522V11.9918H523.622V0Z" fill="#4CD30C"/>
<path d="M535.522 0H547.423V11.9918H535.522V0Z" fill="#4CD30C"/>
<path d="M547.423 0H559.323V11.9918H547.423V0Z" fill="#4CD30C"/>
<path d="M559.323 0H571.224V11.9918H559.323V0Z" fill="#4CD30C"/>
<path d="M571.224 0H583.124V11.9918H571.224V0Z" fill="#4CD30C"/>
<path d="M583.124 0H595.025V11.9918H583.124V0Z" fill="#4CD30C"/>
<path d="M595.025 0H606.925V11.9918H595.025V0Z" fill="#4CD30C"/>
<path d="M606.925 0H618.826V11.9918H606.925V0Z" fill="#4CD30C"/>
<path d="M618.826 0H630.726V11.9918H618.826V0Z" fill="#4CD30C"/>
<path d="M630.726 0H642.627V11.9918H630.726V0Z" fill="#4CD30C"/>
<path d="M642.627 0H654.527V11.9918H642.627V0Z" fill="#4CD30C"/>
<path d="M654.527 0H666.428V11.9918H654.527V0Z" fill="#4CD30C"/>
<path d="M666.428 0H678.328V11.9918H666.428V0Z" fill="#4CD30C"/>
<path d="M678.328 0H690.229V11.9918H678.328V0Z" fill="#4CD30C"/>
<path d="M690.229 0H702.129V11.9918H690.229V0Z" fill="#4CD30C"/>
<path d="M702.129 0H714.03V11.9918H702.129V0Z" fill="#4CD30C"/>
<path d="M714.03 0H725.93V11.9918H714.03V0Z" fill="#4CD30C"/>
<path d="M725.93 0H737.831V11.9918H725.93V0Z" fill="#4CD30C"/>
<path d="M737.831 0H749.731V11.9918H737.831V0Z" fill="#4CD30C"/>
<path d="M749.731 0H761.632V11.9918H749.731V0Z" fill="#4CD30C"/>
<path d="M761.632 0H773.532V11.9918H761.632V0Z" fill="#4CD30C"/>
<path d="M773.532 0H785.433V11.9918H773.532V0Z" fill="#4CD30C"/>
<path d="M785.433 0H797.333V11.9918H785.433V0Z" fill="#4CD30C"/>
<path d="M797.333 0H809.234V11.9918H797.333V0Z" fill="#4CD30C"/>
<path d="M809.234 0H821.134V11.9918H809.234V0Z" fill="#4CD30C"/>
<path d="M821.134 0H833.035V11.9918H821.134V0Z" fill="#4CD30C"/>
<path d="M833.035 0H844.935V11.9918H833.035V0Z" fill="#4CD30C"/>
<path d="M844.935 0H856.836V11.9918H844.935V0Z" fill="#4CD30C"/>
<path d="M856.836 0H868.736V11.9918H856.836V0Z" fill="#4CD30C"/>
<path d="M868.736 0H880.637V11.9918H868.736V0Z" fill="#4CD30C"/>
<path d="M880.637 0H892.537V11.9918H880.637V0Z" fill="#4CD30C"/>
<path d="M892.537 0H904.438V11.9918H892.537V0Z" fill="#4CD30C"/>
<path d="M904.438 0H916.338V11.9918H904.438V0Z" fill="#4CD30C"/>
<path d="M916.338 0H928.239V11.9918H916.338V0Z" fill="#4CD30C"/>
<path d="M928.239 0H940.139V11.9918H928.239V0Z" fill="#4CD30C"/>
<path d="M940.139 0H952.04V11.9918H940.139V0Z" fill="#4CD30C"/>
<path d="M952.04 0H963.94V11.9918H952.04V0Z" fill="#4CD30C"/>
<path d="M963.94 0H975.841V11.9918H963.94V0Z" fill="#4CD30C"/>
<path d="M975.841 0H987.741V11.9918H975.841V0Z" fill="#4CD30C"/>
<path d="M987.741 0H999.642V11.9918H987.741V0Z" fill="#4CD30C"/>
<path d="M999.642 0H1011.54V11.9918H999.642V0Z" fill="#4CD30C"/>
<path d="M1011.54 0H1023.44V11.9918H1011.54V0Z" fill="#4CD30C"/>
<path d="M1023.44 0H1035.34V11.9918H1023.44V0Z" fill="#4CD30C"/>
<path d="M1035.34 0H1047.24V11.9918H1035.34V0Z" fill="#4CD30C"/>
<path d="M1047.24 0H1059.14V11.9918H1047.24V0Z" fill="#4CD30C"/>
<path d="M1059.14 0H1071.04V11.9918H1059.14V0Z" fill="#4CD30C"/>
<path d="M1071.04 0H1082.95V11.9918H1071.04V0Z" fill="#4CD30C"/>
<path d="M1082.95 0H1094.85V11.9918H1082.95V0Z" fill="#4CD30C"/>
<path d="M1094.85 0H1106.75V11.9918H1094.85V0Z" fill="#4CD30C"/>
<path d="M1106.75 0H1118.65V11.9918H1106.75V0Z" fill="#4CD30C"/>
<path d="M1118.65 0H1130.55V11.9918L1118.65 11.9918V0Z" fill="#4CD30C"/>
<path d="M0 71.9506H11.9005V83.9423H0V71.9506Z" fill="#4CD30C"/>
<path d="M1178.15 71.9506H1190.05V83.9423H1178.15V71.9506Z" fill="#4CD30C"/>
<path d="M0 83.9423H11.9005V95.9341H0V83.9423Z" fill="#4CD30C"/>
<path d="M1178.15 83.9423H1190.05V95.9341H1178.15V83.9423Z" fill="#4CD30C"/>
<path d="M0 95.9341H11.9005V107.926H0V95.9341Z" fill="#4CD30C"/>
<path d="M1178.15 95.9341H1190.05V107.926H1178.15V95.9341Z" fill="#4CD30C"/>
<path d="M0 107.926H11.9005V119.918H0V107.926Z" fill="#4CD30C"/>
<path d="M1178.15 107.926H1190.05V119.918H1178.15V107.926Z" fill="#4CD30C"/>
<path d="M0 119.918H11.9005V131.909H0V119.918Z" fill="#4CD30C"/>
<path d="M1178.15 119.918H1190.05V131.909H1178.15V119.918Z" fill="#4CD30C"/>
<path d="M0 131.909H11.9005V143.901H0V131.909Z" fill="#4CD30C"/>
<path d="M1178.15 131.909H1190.05V143.901H1178.15V131.909Z" fill="#4CD30C"/>
<path d="M0 143.901H11.9005V155.893H0V143.901Z" fill="#4CD30C"/>
<path d="M1178.15 143.901H1190.05V155.893H1178.15V143.901Z" fill="#4CD30C"/>
<path d="M0 155.893H11.9005V167.885H0V155.893Z" fill="#4CD30C"/>
<path d="M1178.15 155.893H1190.05V167.885H1178.15V155.893Z" fill="#4CD30C"/>
<path d="M0 167.885H11.9005V179.876H0V167.885Z" fill="#4CD30C"/>
<path d="M1178.15 167.885H1190.05V179.876H1178.15V167.885Z" fill="#4CD30C"/>
<path d="M0 179.876H11.9005V191.868H0V179.876Z" fill="#4CD30C"/>
<path d="M1178.15 179.876H1190.05V191.868H1178.15V179.876Z" fill="#4CD30C"/>
<path d="M0 191.868H11.9005V203.86H0V191.868Z" fill="#4CD30C"/>
<path d="M1178.15 191.868H1190.05V203.86H1178.15V191.868Z" fill="#4CD30C"/>
<path d="M0 203.86H11.9005V215.852H0V203.86Z" fill="#4CD30C"/>
<path d="M1178.15 203.86H1190.05V215.852H1178.15V203.86Z" fill="#4CD30C"/>
<path d="M0 215.852H11.9005V227.843H0V215.852Z" fill="#4CD30C"/>
<path d="M1178.15 215.852H1190.05V227.843H1178.15V215.852Z" fill="#4CD30C"/>
<path d="M0 227.843H11.9005V239.835H0V227.843Z" fill="#4CD30C"/>
<path d="M1178.15 227.843H1190.05V239.835H1178.15V227.843Z" fill="#4CD30C"/>
<path d="M0 239.835H11.9005V251.827H0V239.835Z" fill="#4CD30C"/>
<path d="M1178.15 239.835H1190.05V251.827H1178.15V239.835Z" fill="#4CD30C"/>
<path d="M0 251.827H11.9005V263.819H0V251.827Z" fill="#4CD30C"/>
<path d="M1178.15 251.827H1190.05V263.819H1178.15V251.827Z" fill="#4CD30C"/>
<path d="M0 263.819H11.9005V275.811H0V263.819Z" fill="#4CD30C"/>
<path d="M1178.15 263.819H1190.05V275.811H1178.15V263.819Z" fill="#4CD30C"/>
<path d="M0 275.811H11.9005V287.802H0V275.811Z" fill="#4CD30C"/>
<path d="M1178.15 275.811H1190.05V287.802H1178.15V275.811Z" fill="#4CD30C"/>
<path d="M0 287.802H11.9005V299.794H0V287.802Z" fill="#4CD30C"/>
<path d="M1178.15 287.802H1190.05V299.794H1178.15V287.802Z" fill="#4CD30C"/>
<path d="M0 299.794H11.9005V311.786H0V299.794Z" fill="#4CD30C"/>
<path d="M1178.15 299.794H1190.05V311.786H1178.15V299.794Z" fill="#4CD30C"/>
<path d="M0 311.786H11.9005V323.778H0V311.786Z" fill="#4CD30C"/>
<path d="M1178.15 311.786H1190.05V323.778H1178.15V311.786Z" fill="#4CD30C"/>
<path d="M0 323.778H11.9005V335.769H0V323.778Z" fill="#4CD30C"/>
<path d="M1178.15 323.778H1190.05V335.769H1178.15V323.778Z" fill="#4CD30C"/>
<path d="M0 335.769H11.9005V347.761H0V335.769Z" fill="#4CD30C"/>
<path d="M1178.15 335.769H1190.05V347.761H1178.15V335.769Z" fill="#4CD30C"/>
<path d="M0 347.761H11.9005V359.753H0V347.761Z" fill="#4CD30C"/>
<path d="M1178.15 347.761H1190.05V359.753H1178.15V347.761Z" fill="#4CD30C"/>
<path d="M0 359.753H11.9005V371.745H0V359.753Z" fill="#4CD30C"/>
<path d="M1178.15 359.753H1190.05V371.745H1178.15V359.753Z" fill="#4CD30C"/>
<path d="M0 371.745H11.9005V383.736H0V371.745Z" fill="#4CD30C"/>
<path d="M1178.15 371.745H1190.05V383.736H1178.15V371.745Z" fill="#4CD30C"/>
<path d="M0 383.736H11.9005V395.728H0V383.736Z" fill="#4CD30C"/>
<path d="M1178.15 383.736H1190.05V395.728H1178.15V383.736Z" fill="#4CD30C"/>
<path d="M0 395.728H11.9005V407.72H0V395.728Z" fill="#4CD30C"/>
<path d="M1178.15 395.728H1190.05V407.72H1178.15V395.728Z" fill="#4CD30C"/>
<path d="M0 407.72H11.9005V419.712H0V407.72Z" fill="#4CD30C"/>
<path d="M0 419.712H11.9005V431.703H0V419.712Z" fill="#4CD30C"/>
<path d="M0 431.703H11.9005V443.695H0V431.703Z" fill="#4CD30C"/>
<path d="M0 443.695H11.9005V455.687H0V443.695Z" fill="#4CD30C"/>
<path d="M0 455.687H11.9005V467.679H0V455.687Z" fill="#4CD30C"/>
<path d="M1178.15 407.72H1190.05V419.712H1178.15V407.72Z" fill="#4CD30C"/>
<path d="M1178.15 419.712H1190.05V431.703H1178.15V419.712Z" fill="#4CD30C"/>
<path d="M1178.15 431.703H1190.05V443.695H1178.15V431.703Z" fill="#4CD30C"/>
<path d="M1178.15 443.695H1190.05V455.687H1178.15V443.695Z" fill="#4CD30C"/>
<path d="M1178.15 455.687H1190.05V467.679H1178.15V455.687Z" fill="#4CD30C"/>
<path d="M1178.15 467.679H1190.05V479.67H1178.15V467.679Z" fill="#4CD30C"/>
<path d="M1178.15 479.67H1190.05V491.662H1178.15V479.67Z" fill="#4CD30C"/>
<path d="M1178.15 491.662H1190.05V503.654H1178.15V491.662Z" fill="#4CD30C"/>
<path d="M1178.15 543L1196 524.826L1178.15 506.652V518.644H59.5025V530.635H1178.15V543Z" fill="#4CD30C"/>
</svg>
