<?xml version="1.0" encoding="utf-8"?>
<!-- Generator: Adobe Illustrator 27.0.0, SVG Export Plug-In . SVG Version: 6.00 Build 0)  -->
<svg version="1.1" id="lisht-point" xmlns="http://www.w3.org/2000/svg" xmlns:xlink="http://www.w3.org/1999/xlink" x="0px" y="0px"
	 viewBox="0 0 590 960" style="enable-background:new 0 0 590 960;" xml:space="preserve">
<style type="text/css">
	.st0{fill:#E8E8E8;}
	.st1{fill:#4CD30C;}
</style>
<g id="gray-shineUP">
	<rect x="534" y="379" class="st0" width="4" height="4"/>
	<rect x="565" y="353" class="st0" width="4" height="4"/>
	<rect x="578" y="37" class="st0" width="4" height="4"/>
	<rect x="260" y="23" class="st0" width="4" height="4"/>
	<rect x="111" class="st0" width="4" height="4"/>
	<rect x="62" y="50" class="st0" width="4" height="4"/>
	<rect x="111" y="164" class="st0" width="4" height="4"/>
</g>
<g id="green-shineS">
	<rect x="497" y="485" class="st1" width="4" height="4"/>
	<rect x="516" y="50" class="st1" width="4" height="4"/>
	<rect x="366" y="50" class="st1" width="4" height="4"/>
	<rect x="123" y="91" class="st1" width="4" height="4"/>
	<rect x="167" y="58" class="st1" width="4" height="4"/>
	<rect x="486" y="701" class="st1" width="4" height="4"/>
	<rect x="415" y="763" class="st1" width="4" height="4"/>
	<rect x="243" y="521" class="st1" width="4" height="4"/>
	<rect x="119" y="483" class="st1" width="4" height="4"/>
	<rect x="30" y="331" class="st1" width="4" height="4"/>
	<rect x="207" y="841" class="st1" width="4" height="4"/>
	<rect x="229" y="816" class="st1" width="4" height="4"/>
	<rect x="95" y="677" class="st1" width="4" height="4"/>
</g>
<g id="gray-shineDown">
	<rect x="456" y="633" class="st0" width="4" height="4"/>
	<rect x="367" y="845" class="st0" width="4" height="4"/>
	<rect x="203" y="738" class="st0" width="4" height="4"/>
	<rect x="205" y="500" class="st0" width="4" height="4"/>
	<rect x="120" y="714" class="st0" width="4" height="4"/>
	<rect x="83" y="545" class="st0" width="4" height="4"/>
</g>
<g id="green-shineM">
	<rect x="475" y="451" class="st1" width="8" height="8"/>
	<rect x="531" y="644" class="st1" width="8" height="8"/>
	<rect x="526" y="115" class="st1" width="8" height="8"/>
	<rect x="582" y="231" class="st1" width="8" height="8"/>
	<rect x="103" y="31" class="st1" width="8" height="8"/>
	<rect x="245" y="868" class="st1" width="8" height="8"/>
	<rect x="393" y="777" class="st1" width="8" height="8"/>
	<rect x="27" y="517" class="st1" width="8" height="8"/>
	<rect x="245" y="701" class="st1" width="8" height="8"/>
	<rect x="111" y="412" class="st1" width="8" height="8"/>
</g>
<g id="green-shineL">
	<rect x="499" y="665" class="st1" width="12" height="12"/>
	<rect x="495" y="85" class="st1" width="12" height="12"/>
	<rect x="155" y="97" class="st1" width="12" height="12"/>
	<rect x="231" y="849" class="st1" width="12" height="12"/>
	<rect x="87" y="379" class="st1" width="12" height="12"/>
</g>
<g id="gray-shineL">
	<rect x="400" y="868" class="st0" width="8" height="8"/>
	<rect y="396" class="st0" width="8" height="8"/>
	<rect x="87" y="701" class="st0" width="8" height="8"/>
	<rect x="467" y="21" class="st0" width="8" height="8"/>
</g>
</svg>
