<svg width="202" height="72" viewBox="0 0 202 72" fill="none" xmlns="http://www.w3.org/2000/svg">
<path d="M38.0833 32.4V30.6V28.8H36.1667V27V25.2H34.25V23.4V21.6H32.3333V19.8H30.4167V18H28.5H26.6667H24.75H22.8333H20.9167H19H17.0833H15.1667H13.3333H11.4167H9.5V19.8H7.58333V21.6H5.75V23.4V25.2H3.83333V27V28.8H1.91667V30.6V32.4H0V34.2V36V37.8V39.6H1.91667V41.4V43.2H3.83333V45V46.8H5.75V48.6H7.66667V50.4V52.2H9.58333V54H11.5H13.3333H15.25H17.1667H19.0833H21H22.9167H24.8333H26.6667H28.5833H30.5V52.2H32.4167V50.4V48.6H34.3333V46.8H36.25V45V43.2H38.1667V41.4V39.6H40V37.8V36V34.2V32.4H38.0833ZM34.25 39.6V41.4V43.2H32.3333V45V46.8H30.4167V48.6H28.5V50.4H26.6667H24.75H22.8333H20.9167H19H17.0833H15.1667H13.3333H11.4167V48.6H9.5V46.8H7.58333V45V43.2H5.75V41.4V39.6H3.83333V37.8V36V34.2V32.4H5.75V30.6V28.8H7.66667V27V25.2H9.58333V23.4H11.5V21.6H13.3333H15.25H17.1667H19.0833H21H22.9167H24.8333H26.6667H28.5833V23.4H30.5V25.2H32.4167V27V28.8H34.3333V30.6V32.4H36.25V34.2V36V37.8V39.6H34.25Z" fill="#4CD30C"/>
<path d="M17.1666 46.7998H15.2499H13.3333V48.5998H15.2499H17.1666H19.0833H20.9166V46.7998H19.0833H17.1666Z" fill="#4CD30C"/>
<path d="M17.1667 41.3999H15.25H13.3333H11.4167H9.5V43.1999H11.4167V44.9999H13.3333H15.25H17.1667H19.0833H20.9167V43.1999V41.3999H19.0833H17.1667Z" fill="#4CD30C"/>
<path d="M17.1666 36H15.2499H13.3333H11.4166H9.49993H7.58325V37.8V39.6H9.49993H11.4166H13.3333H15.2499H17.1666H19.0833H20.9166V37.8V36H19.0833H17.1666Z" fill="#4CD30C"/>
<path d="M55 33.3842V30.8053H65.2382V25.5H67.7618V30.7316H78V33.3105H55V33.3842ZM55 46.5V43.9211H57.5235V46.5H55ZM57.5235 41.2684H60.047V43.8474H57.5235V41.2684ZM60.1191 38.6158H62.6426V41.1947H60.1191V38.6158ZM70.3574 41.2684V38.6895H72.8809V41.2684H70.3574ZM72.8809 43.8474V41.2684H75.4044V43.8474H72.8809ZM75.4765 46.5V43.9211H78V46.5H75.4765Z" fill="#4CD30C"/>
<path d="M93 47.5V44.9844H95.4648V47.5H93ZM108 47.5V44.9844H110.465V42.4688H98V44.9844H95.5352V29.675H98V27.0875H100.465V29.6031H105.465V27.0875H100.465V24.5H108V29.6031H113V47.5H108ZM98 34.7781H103V32.2625H98V34.7781ZM98 39.8812H103V37.3656H98V39.8812ZM105.535 34.7781H110.535V32.2625H105.535V34.7781ZM105.535 39.8812H110.535V37.3656H105.535V39.8812Z" fill="#4CD30C"/>
<path d="M146.58 32.8437V30.7632V28.6828V26.6024V24.4502H144.5H142.491V26.6024H144.5V28.6828V30.7632V32.8437H142.491H140.411H138.33V30.7632H136.25V32.8437H134.241H132.161V30.7632H134.241V28.6828H132.161V26.6024H134.241V24.4502H132.161H130.08V26.6024V28.6828V30.7632V32.8437H128V34.9958V37.0763H130.08V34.9958H132.161H134.241V37.0763H136.25H138.33V39.1567H140.411V37.0763H142.491V34.9958H144.5H146.58V37.0763H148.661V34.9958V32.8437H146.58Z" fill="#4CD30C"/>
<path d="M140.411 28.6826H138.33V30.7631H140.411V28.6826Z" fill="#4CD30C"/>
<path d="M140.411 26.6024V24.4502H138.33H136.25V26.6024V28.6828H138.33V26.6024H140.411Z" fill="#4CD30C"/>
<path d="M136.25 41.2372H134.241H132.161H130.08V43.3176H132.161H134.241H136.25V45.4698H134.241V47.5502H136.25H138.33V45.4698V43.3176H140.411H142.491H144.5H146.58V41.2372H144.5H142.491H140.411H138.33V39.1567H136.25V41.2372Z" fill="#4CD30C"/>
<path d="M163.661 47.5V24.5H171.304V27.0875H178.946V24.5H181.47V27.0875H186.589V32.1906H184.065V29.675H173.827V32.1906H171.304V29.675H168.78V27.0875H166.256V29.6031H168.78V32.1188H166.256V37.2219H168.78V39.7375H166.256V47.5H163.661ZM168.78 37.3656V32.1906H171.304V37.3656H168.78ZM171.304 39.8812V37.3656H186.661V39.8812H181.542V44.9844H179.018V39.8812H176.495V44.9844H173.971V39.8812H171.304ZM171.304 47.5V44.9844H173.827V47.5H171.304ZM173.899 34.7781V32.2625H184.137V34.7781H173.899ZM181.542 47.5V44.9844H184.065V42.4688H186.589V47.5H181.542Z" fill="#4CD30C"/>
</svg>
