<?xml version="1.0" encoding="utf-8"?>
<!-- Generator: Adobe Illustrator 16.2.1, SVG Export Plug-In . SVG Version: 6.00 Build 0)  -->
<!DOCTYPE svg PUBLIC "-//W3C//DTD SVG 1.1//EN" "http://www.w3.org/Graphics/SVG/1.1/DTD/svg11.dtd">
<svg version="1.1" id="圖層_1" xmlns="http://www.w3.org/2000/svg" xmlns:xlink="http://www.w3.org/1999/xlink" x="0px" y="0px"
	 width="42px" height="64px" viewBox="0 0 42 64" enable-background="new 0 0 42 64" xml:space="preserve">
<g>
	<rect x="18.239" y="18.792" fill="#4CD30C" width="5.941" height="6.264"/>
	<polygon fill="#4CD30C" points="12.15,6.264 6.21,6.264 6.21,12.528 12.15,12.528 12.15,18.792 18.09,18.792 18.09,12.528 
		12.15,12.528 	"/>
	<polygon fill="#4CD30C" points="30.119,12.528 24.18,12.528 24.18,18.792 30.119,18.792 30.119,12.528 36.06,12.528 36.06,6.264 
		30.119,6.264 	"/>
	<rect x="0.27" fill="#4CD30C" width="5.94" height="6.264"/>
	<rect x="36.06" fill="#4CD30C" width="5.94" height="6.264"/>
</g>
<g>
	<rect x="18.239" y="57.32" fill="#4CD30C" width="5.941" height="6.264"/>
	<polygon fill="#4CD30C" points="12.15,44.792 6.21,44.792 6.21,51.057 12.15,51.057 12.15,57.32 18.09,57.32 18.09,51.056 
		12.15,51.056 	"/>
	<polygon fill="#4CD30C" points="30.119,51.056 24.18,51.056 24.18,57.32 30.119,57.32 30.119,51.057 36.06,51.057 36.06,44.792 
		30.119,44.792 	"/>
	<rect x="0.27" y="38.527" fill="#4CD30C" width="5.94" height="6.265"/>
	<rect x="36.06" y="38.527" fill="#4CD30C" width="5.94" height="6.265"/>
</g>
</svg>
