<svg width="45" height="56" viewBox="0 0 45 56" fill="none" xmlns="http://www.w3.org/2000/svg">
<path d="M24.6001 13.9418C23.1001 10.0533 22.4001 6.25958 22.1001 3.50916C21.8001 6.16474 21.1001 10.0533 19.6001 13.9418C16.3001 22.1931 10.5001 26.9352 2.6001 27.7887C10.5001 28.6423 16.3001 33.3844 19.6001 41.6357C21.1001 45.5242 21.8001 49.3179 22.1001 52.0683C22.4001 49.4128 23.1001 45.5242 24.6001 41.6357C27.9001 33.3844 33.7001 28.6423 41.6001 27.7887C33.7001 26.9352 27.9001 22.1931 24.6001 13.9418Z" fill="#4CD30C"/>
<path d="M22.3 0H21.8C21.8 0.284526 21.6 27.5991 0 27.5991V27.8836C21.6 27.8836 21.8 55.1981 21.8 55.4827H22.3C22.3 55.1981 22.6 27.8836 44.1 27.8836V27.5991C22.5 27.5991 22.3 0.284526 22.3 0ZM24.6 41.5409C23.1 45.4294 22.4 49.2231 22.1 51.9735C21.8 49.3179 21.1 45.4294 19.6 41.5409C16.3 33.2896 10.5 28.5475 2.6 27.6939C10.5 26.8403 16.3 22.0982 19.6 13.847C21.1 9.95842 21.8 6.16474 22.1 3.41432C22.4 6.0699 23.1 9.95842 24.6 13.847C27.9 22.0982 33.7 26.8403 41.6 27.6939C33.7 28.5475 27.9 33.2896 24.6 41.5409Z" fill="black"/>
</svg>
