<?xml version="1.0" encoding="utf-8"?>
<!-- Generator: Adobe Illustrator 27.0.0, SVG Export Plug-In . SVG Version: 6.00 Build 0)  -->
<svg version="1.1" id="starsky" xmlns="http://www.w3.org/2000/svg" xmlns:xlink="http://www.w3.org/1999/xlink" x="0px" y="0px"
	 viewBox="0 0 1440 1440" style="enable-background:new 0 0 1440 1440;" xml:space="preserve">
<style type="text/css">
	.st0{fill:#4CD30C;}
	.st1{fill:#E8E8E8;}
</style>
<g id="grayS">
	<rect x="669.7" y="643.5" class="st1" width="5.2" height="5.2"/>
	<rect x="709.7" y="609.9" class="st1" width="5.2" height="5.2"/>
	<rect x="726.5" y="201.8" class="st1" width="5.2" height="5.2"/>
	<rect x="315.8" y="183.7" class="st1" width="5.2" height="5.2"/>
	<rect x="123.4" y="154" class="st1" width="5.2" height="5.2"/>
	<rect x="60.1" y="218.6" class="st1" width="5.2" height="5.2"/>
	<rect x="123.4" y="365.8" class="st1" width="5.2" height="5.2"/>
	<rect x="568.9" y="971.5" class="st1" width="5.2" height="5.2"/>
	<rect x="454" y="1245.3" class="st1" width="5.2" height="5.2"/>
	<rect x="242.2" y="1107.2" class="st1" width="5.2" height="5.2"/>
	<rect x="244.8" y="799.8" class="st1" width="5.2" height="5.2"/>
	<rect x="135" y="1076.2" class="st1" width="5.2" height="5.2"/>
	<rect x="87.2" y="857.9" class="st1" width="5.2" height="5.2"/>
	<rect x="809.2" y="790.7" class="st1" width="5.2" height="5.2"/>
	<rect x="769.1" y="824.3" class="st1" width="5.2" height="5.2"/>
	<rect x="752.3" y="1232.4" class="st1" width="5.2" height="5.2"/>
	<rect x="1163" y="1250.5" class="st1" width="5.2" height="5.2"/>
	<rect x="1355.5" y="1280.2" class="st1" width="5.2" height="5.2"/>
	<rect x="1418.8" y="1215.6" class="st1" width="5.2" height="5.2"/>
	<rect x="1355.5" y="1068.4" class="st1" width="5.2" height="5.2"/>
	<rect x="909.9" y="462.7" class="st1" width="5.2" height="5.2"/>
	<rect x="1024.8" y="188.9" class="st1" width="5.2" height="5.2"/>
	<rect x="1236.7" y="327.1" class="st1" width="5.2" height="5.2"/>
	<rect x="1234.1" y="634.4" class="st1" width="5.2" height="5.2"/>
	<rect x="1343.9" y="358.1" class="st1" width="5.2" height="5.2"/>
	<rect x="1391.6" y="576.3" class="st1" width="5.2" height="5.2"/>
	<rect x="886.5" y="1323.2" class="st1" width="5.2" height="5.2"/>
	<rect x="852.9" y="1283.1" class="st1" width="5.2" height="5.2"/>
	<rect x="444.8" y="1266.3" class="st1" width="5.2" height="5.2"/>
	<rect x="1214.5" y="1423.9" class="st1" width="5.2" height="5.2"/>
	<rect x="342" y="51.5" class="st1" width="5.2" height="5.2"/>
	<rect x="406.6" y="114.8" class="st1" width="5.2" height="5.2"/>
	<rect x="553.8" y="51.5" class="st1" width="5.2" height="5.2"/>
	<rect x="1264.2" y="39.9" class="st1" width="5.2" height="5.2"/>
	<rect x="1045.9" y="87.6" class="st1" width="5.2" height="5.2"/>
</g>
<g id="greenL">
	
		<rect id="greenL_00000071527528741655677710000000949466288811553703_" x="624.5" y="1012.9" class="st0" width="15.5" height="15.5"/>
	
		<rect id="greenL_00000149342003801663483180000017944682580554300838_" x="619.3" y="263.8" class="st0" width="15.5" height="15.5"/>
	
		<rect id="greenL_00000012452625894309226900000016717681009503391902_" x="180.2" y="279.3" class="st0" width="15.5" height="15.5"/>
	
		<rect id="greenL_00000165230496514769089810000005863817090759995830_" x="278.3" y="1250.5" class="st0" width="15.5" height="15.5"/>
	
		<rect id="greenL_00000150071087081459329360000004185842164937075853_" x="92.4" y="643.5" class="st0" width="15.5" height="15.5"/>
		<rect id="greenL_00000022530756011531292130000000529953600539269019_" x="844" y="411" class="st0" width="15.5" height="15.5"/>
	
		<rect id="greenL_00000085949276054930525590000009089984320030339469_" x="849.2" y="1160.1" class="st0" width="15.5" height="15.5"/>
	
		<rect id="greenL_00000178921578507424070580000016102744294153262742_" x="1288.3" y="1144.6" class="st0" width="15.5" height="15.5"/>
	
		<rect id="greenL_00000078740518866354302850000014774792754745608350_" x="1190.2" y="173.4" class="st0" width="15.5" height="15.5"/>
	
		<rect id="greenL_00000042710307499092280700000000864756650307072917_" x="1376.1" y="780.4" class="st0" width="15.5" height="15.5"/>
	
		<rect id="greenL_00000152244730595306210040000012042355568163814299_" x="1255.9" y="1358" class="st0" width="15.5" height="15.5"/>
	
		<rect id="greenL_00000142146595208511933450000010819188565707218576_" x="506.8" y="1363.2" class="st0" width="15.5" height="15.5"/>
	
		<rect id="greenL_00000080906939306147544720000002677517418702670496_" x="831.5" y="72.1" class="st0" width="15.5" height="15.5"/>
</g>
</svg>
