<?xml version="1.0" encoding="utf-8"?>
<!-- Generator: Adobe Illustrator 27.0.0, SVG Export Plug-In . SVG Version: 6.00 Build 0)  -->
<svg version="1.1" id="starsky" xmlns="http://www.w3.org/2000/svg" xmlns:xlink="http://www.w3.org/1999/xlink" x="0px" y="0px"
	 viewBox="0 0 1440 1440" style="enable-background:new 0 0 1440 1440;" xml:space="preserve">
<style type="text/css">
	.st0{fill:#4CD30C;}
	.st1{fill:#E8E8E8;}
</style>
<g id="greenS">
	<rect x="621.9" y="780.4" class="st0" width="5.2" height="5.2"/>
	<rect x="646.4" y="218.6" class="st0" width="5.2" height="5.2"/>
	<rect x="452.7" y="218.6" class="st0" width="5.2" height="5.2"/>
	<rect x="138.9" y="271.5" class="st0" width="5.2" height="5.2"/>
	<rect x="195.7" y="228.9" class="st0" width="5.2" height="5.2"/>
	<rect x="607.7" y="1059.4" class="st0" width="5.2" height="5.2"/>
	<rect x="516" y="1139.4" class="st0" width="5.2" height="5.2"/>
	<rect x="293.8" y="826.9" class="st0" width="5.2" height="5.2"/>
	<rect x="133.7" y="777.8" class="st0" width="5.2" height="5.2"/>
	<rect x="18.7" y="581.5" class="st0" width="5.2" height="5.2"/>
	<rect x="247.3" y="1240.2" class="st0" width="5.2" height="5.2"/>
	<rect x="275.8" y="1207.9" class="st0" width="5.2" height="5.2"/>
	<rect x="102.7" y="1028.4" class="st0" width="5.2" height="5.2"/>
	<rect x="856.9" y="653.8" class="st0" width="5.2" height="5.2"/>
	<rect x="832.4" y="1215.6" class="st0" width="5.2" height="5.2"/>
	<rect x="1026.1" y="1215.6" class="st0" width="5.2" height="5.2"/>
	<rect x="1340" y="1162.7" class="st0" width="5.2" height="5.2"/>
	<rect x="1283.2" y="1205.3" class="st0" width="5.2" height="5.2"/>
	<rect x="871.2" y="374.9" class="st0" width="5.2" height="5.2"/>
	<rect x="962.9" y="294.8" class="st0" width="5.2" height="5.2"/>
	<rect x="1185" y="607.3" class="st0" width="5.2" height="5.2"/>
	<rect x="1345.1" y="656.4" class="st0" width="5.2" height="5.2"/>
	<rect x="1231.5" y="194" class="st0" width="5.2" height="5.2"/>
	<rect x="1203.1" y="226.3" class="st0" width="5.2" height="5.2"/>
	<rect x="1376.1" y="405.8" class="st0" width="5.2" height="5.2"/>
	<rect x="1023.4" y="1370.9" class="st0" width="5.2" height="5.2"/>
	<rect x="461.6" y="1346.4" class="st0" width="5.2" height="5.2"/>
	<rect x="1302.4" y="1385.2" class="st0" width="5.2" height="5.2"/>
	<rect x="459.5" y="36" class="st0" width="5.2" height="5.2"/>
	<rect x="965.8" y="41.1" class="st0" width="5.2" height="5.2"/>
	<rect x="769.5" y="156.1" class="st0" width="5.2" height="5.2"/>
	<rect x="1216.4" y="72.1" class="st0" width="5.2" height="5.2"/>
</g>
<g id="grayS">
	<rect x="669.7" y="643.5" class="st1" width="5.2" height="5.2"/>
	<rect x="709.7" y="609.9" class="st1" width="5.2" height="5.2"/>
	<rect x="726.5" y="201.8" class="st1" width="5.2" height="5.2"/>
	<rect x="315.8" y="183.7" class="st1" width="5.2" height="5.2"/>
	<rect x="123.4" y="154" class="st1" width="5.2" height="5.2"/>
	<rect x="60.1" y="218.6" class="st1" width="5.2" height="5.2"/>
	<rect x="123.4" y="365.8" class="st1" width="5.2" height="5.2"/>
	<rect x="568.9" y="971.5" class="st1" width="5.2" height="5.2"/>
	<rect x="454" y="1245.3" class="st1" width="5.2" height="5.2"/>
	<rect x="242.2" y="1107.2" class="st1" width="5.2" height="5.2"/>
	<rect x="244.8" y="799.8" class="st1" width="5.2" height="5.2"/>
	<rect x="135" y="1076.2" class="st1" width="5.2" height="5.2"/>
	<rect x="87.2" y="857.9" class="st1" width="5.2" height="5.2"/>
	<rect x="809.2" y="790.7" class="st1" width="5.2" height="5.2"/>
	<rect x="769.1" y="824.3" class="st1" width="5.2" height="5.2"/>
	<rect x="752.3" y="1232.4" class="st1" width="5.2" height="5.2"/>
	<rect x="1163" y="1250.5" class="st1" width="5.2" height="5.2"/>
	<rect x="1355.5" y="1280.2" class="st1" width="5.2" height="5.2"/>
	<rect x="1418.8" y="1215.6" class="st1" width="5.2" height="5.2"/>
	<rect x="1355.5" y="1068.4" class="st1" width="5.2" height="5.2"/>
	<rect x="909.9" y="462.7" class="st1" width="5.2" height="5.2"/>
	<rect x="1024.8" y="188.9" class="st1" width="5.2" height="5.2"/>
	<rect x="1236.7" y="327.1" class="st1" width="5.2" height="5.2"/>
	<rect x="1234.1" y="634.4" class="st1" width="5.2" height="5.2"/>
	<rect x="1343.9" y="358.1" class="st1" width="5.2" height="5.2"/>
	<rect x="1391.6" y="576.3" class="st1" width="5.2" height="5.2"/>
	<rect x="886.5" y="1323.2" class="st1" width="5.2" height="5.2"/>
	<rect x="852.9" y="1283.1" class="st1" width="5.2" height="5.2"/>
	<rect x="444.8" y="1266.3" class="st1" width="5.2" height="5.2"/>
	<rect x="1214.5" y="1423.9" class="st1" width="5.2" height="5.2"/>
	<rect x="342" y="51.5" class="st1" width="5.2" height="5.2"/>
	<rect x="406.6" y="114.8" class="st1" width="5.2" height="5.2"/>
	<rect x="553.8" y="51.5" class="st1" width="5.2" height="5.2"/>
	<rect x="1264.2" y="39.9" class="st1" width="5.2" height="5.2"/>
	<rect x="1045.9" y="87.6" class="st1" width="5.2" height="5.2"/>
</g>
<g id="greenM">
	<rect x="593.5" y="736.5" class="st0" width="10.3" height="10.3"/>
	<rect x="665.8" y="985.7" class="st0" width="10.3" height="10.3"/>
	<rect x="659.3" y="302.5" class="st0" width="10.3" height="10.3"/>
	<rect x="731.7" y="452.3" class="st0" width="10.3" height="10.3"/>
	<rect x="113" y="194" class="st0" width="10.3" height="10.3"/>
	<rect x="296.4" y="1275" class="st0" width="10.3" height="10.3"/>
	<rect x="487.6" y="1157.5" class="st0" width="10.3" height="10.3"/>
	<rect x="14.9" y="821.7" class="st0" width="10.3" height="10.3"/>
	<rect x="296.4" y="1059.4" class="st0" width="10.3" height="10.3"/>
	<rect x="123.4" y="686.1" class="st0" width="10.3" height="10.3"/>
	<rect x="880.2" y="692.6" class="st0" width="10.3" height="10.3"/>
	<rect x="807.9" y="443.3" class="st0" width="10.3" height="10.3"/>
	<rect x="814.3" y="1126.5" class="st0" width="10.3" height="10.3"/>
	<rect x="742" y="976.7" class="st0" width="10.3" height="10.3"/>
	<rect x="1360.6" y="1235" class="st0" width="10.3" height="10.3"/>
	<rect x="1177.2" y="154" class="st0" width="10.3" height="10.3"/>
	<rect x="986.1" y="271.5" class="st0" width="10.3" height="10.3"/>
	<rect x="1177.2" y="369.7" class="st0" width="10.3" height="10.3"/>
	<rect x="1350.3" y="742.9" class="st0" width="10.3" height="10.3"/>
	<rect x="979.5" y="1394.2" class="st0" width="10.3" height="10.3"/>
	<rect x="1228.7" y="1321.9" class="st0" width="10.3" height="10.3"/>
	<rect x="545.5" y="1328.3" class="st0" width="10.3" height="10.3"/>
	<rect x="695.3" y="1256" class="st0" width="10.3" height="10.3"/>
	<rect x="382" y="56.6" class="st0" width="10.3" height="10.3"/>
	<rect x="1009.7" y="154.8" class="st0" width="10.3" height="10.3"/>
	<rect x="874.1" y="46.3" class="st0" width="10.3" height="10.3"/>
</g>
<g id="greenL">
	
		<rect id="greenL_00000071527528741655677710000000949466288811553703_" x="624.5" y="1012.9" class="st0" width="15.5" height="15.5"/>
	
		<rect id="greenL_00000149342003801663483180000017944682580554300838_" x="619.3" y="263.8" class="st0" width="15.5" height="15.5"/>
	
		<rect id="greenL_00000012452625894309226900000016717681009503391902_" x="180.2" y="279.3" class="st0" width="15.5" height="15.5"/>
	
		<rect id="greenL_00000165230496514769089810000005863817090759995830_" x="278.3" y="1250.5" class="st0" width="15.5" height="15.5"/>
	
		<rect id="greenL_00000150071087081459329360000004185842164937075853_" x="92.4" y="643.5" class="st0" width="15.5" height="15.5"/>
		<rect id="greenL_00000022530756011531292130000000529953600539269019_" x="844" y="411" class="st0" width="15.5" height="15.5"/>
	
		<rect id="greenL_00000085949276054930525590000009089984320030339469_" x="849.2" y="1160.1" class="st0" width="15.5" height="15.5"/>
	
		<rect id="greenL_00000178921578507424070580000016102744294153262742_" x="1288.3" y="1144.6" class="st0" width="15.5" height="15.5"/>
	
		<rect id="greenL_00000078740518866354302850000014774792754745608350_" x="1190.2" y="173.4" class="st0" width="15.5" height="15.5"/>
	
		<rect id="greenL_00000042710307499092280700000000864756650307072917_" x="1376.1" y="780.4" class="st0" width="15.5" height="15.5"/>
	
		<rect id="greenL_00000152244730595306210040000012042355568163814299_" x="1255.9" y="1358" class="st0" width="15.5" height="15.5"/>
	
		<rect id="greenL_00000142146595208511933450000010819188565707218576_" x="506.8" y="1363.2" class="st0" width="15.5" height="15.5"/>
	
		<rect id="greenL_00000080906939306147544720000002677517418702670496_" x="831.5" y="72.1" class="st0" width="15.5" height="15.5"/>
</g>
<g id="grayM">
	<rect x="496.6" y="1275" class="st1" width="10.3" height="10.3"/>
	<rect x="92.4" y="1059.4" class="st1" width="10.3" height="10.3"/>
	<rect x="583.1" y="181.1" class="st1" width="10.3" height="10.3"/>
	<rect x="977.1" y="154" class="st1" width="10.3" height="10.3"/>
	<rect x="1381.3" y="369.7" class="st1" width="10.3" height="10.3"/>
	<rect x="890.5" y="1247.9" class="st1" width="10.3" height="10.3"/>
	<rect x="424.1" y="1404.5" class="st1" width="10.3" height="10.3"/>
	<rect x="853.4" y="189.7" class="st1" width="10.3" height="10.3"/>
	<rect x="1247.4" y="77.3" class="st1" width="10.3" height="10.3"/>
</g>
</svg>
