<svg width="43" height="38" viewBox="0 0 43 38" fill="none" xmlns="http://www.w3.org/2000/svg">
<path fill-rule="evenodd" clip-rule="evenodd" d="M28.6462 13.9201L18.0672 10.6647L17.6603 11.9871L16.338 11.5802L13.0826 22.1592L14.405 22.5661L13.998 23.8885L24.577 27.1438L24.9839 25.8215L26.3063 26.2284L29.5617 15.6494L28.2393 15.2425L28.6462 13.9201Z" fill="#E8E8E8"/>
<path fill-rule="evenodd" clip-rule="evenodd" d="M18.1182 3.44253L14.8123 2.42523L13.795 5.73116L10.4891 4.71386L9.47177 8.01979L8.45447 11.3257L7.43717 14.6317L4.13123 13.6144L3.11393 16.9203L6.41986 17.9376L5.40256 21.2435L4.38526 24.5495L7.69119 25.5668L6.67389 28.8727L9.97983 29.89L10.9971 26.5841L7.69119 25.5668L8.7085 22.2608L9.7258 18.9549L6.41986 17.9376L7.43717 14.6317L10.7431 15.649L11.7604 12.343L12.7777 9.03709L13.795 5.73116L17.1009 6.74846L18.1182 3.44253Z" fill="#E8E8E8"/>
<path fill-rule="evenodd" clip-rule="evenodd" d="M32.6642 7.9188L35.9702 8.9361L34.9529 12.242L38.2588 13.2593L37.2415 16.5653L36.2242 19.8712L35.2069 23.1771L38.5128 24.1944L37.4955 27.5004L34.1896 26.4831L33.1723 29.789L32.155 33.0949L28.8491 32.0776L27.8318 35.3836L24.5258 34.3663L25.5431 31.0603L28.8491 32.0776L29.8664 28.7717L30.8837 25.4658L34.1896 26.4831L35.2069 23.1771L31.901 22.1598L32.9183 18.8539L33.9356 15.548L34.9529 12.242L31.6469 11.2247L32.6642 7.9188Z" fill="#E8E8E8"/>
</svg>
