<svg width="327" height="149" viewBox="0 0 327 149" fill="none" xmlns="http://www.w3.org/2000/svg">
<path d="M316.245 107.173C315.189 112.118 310.356 116.395 301.603 119.647C292.93 122.869 280.838 124.914 266.134 125.681C236.75 127.216 197.288 123.636 154.736 114.546C112.184 105.457 74.7029 92.6003 48.5101 79.1939C35.4037 72.4855 25.2021 65.6789 18.6028 59.1944C11.9426 52.65 9.27864 46.7714 10.3349 41.8266C11.3912 36.8818 16.2245 32.6047 24.9774 29.3528C33.6502 26.1306 45.7424 24.0863 60.4459 23.3185C89.8303 21.7841 129.292 25.3639 171.844 34.4537C214.396 43.5434 251.877 56.3997 278.07 69.8061C291.176 76.5145 301.378 83.3211 307.977 89.8056C314.637 96.35 317.301 102.229 316.245 107.173Z" stroke="#E8E8E8" stroke-width="3"/>
<path d="M282.249 99.9114C281.462 103.594 277.837 106.872 271.038 109.399C264.319 111.895 254.926 113.486 243.476 114.084C220.597 115.279 189.852 112.492 156.688 105.407C123.524 98.3229 94.3235 88.305 73.9295 77.8666C63.7225 72.6423 55.7999 67.3521 50.6873 62.3285C45.5138 57.2449 43.5444 52.7717 44.3311 49.0888C45.1179 45.4058 48.7431 42.1277 55.5421 39.6016C62.261 37.1054 71.6536 35.514 83.1044 34.916C105.983 33.7214 136.728 36.5086 169.892 43.5929C203.056 50.6773 232.256 60.6951 252.65 71.1335C262.857 76.3579 270.78 81.648 275.893 86.6717C281.066 91.7552 283.036 96.2284 282.249 99.9114Z" stroke="#E8E8E8" stroke-width="3"/>
<path d="M250.486 93.1264C249.951 95.6304 247.454 97.9752 242.481 99.823C237.587 101.641 230.717 102.809 222.305 103.249C205.504 104.126 182.905 102.079 158.512 96.8684C134.118 91.6577 112.655 84.2918 97.6787 76.6265C90.1805 72.7887 84.3872 68.9153 80.6637 65.2566C76.8793 61.5379 75.5587 58.3777 76.0936 55.8737C76.6285 53.3697 79.125 51.0249 84.0986 49.1771C88.992 47.359 95.8622 46.1908 104.274 45.7516C121.075 44.8743 143.675 46.921 168.068 52.1317C192.461 57.3424 213.925 64.7083 228.901 72.3736C236.399 76.2114 242.192 80.0848 245.916 83.7435C249.7 87.4622 251.021 90.6224 250.486 93.1264Z" stroke="#E8E8E8" stroke-width="3"/>
<path d="M217.644 86.1106C217.369 87.3956 216.04 88.7754 212.954 89.922C209.948 91.0387 205.686 91.7694 200.416 92.0446C189.9 92.5937 175.722 91.3127 160.398 88.0393C145.074 84.7658 131.61 80.1421 122.235 75.344C117.538 72.9398 113.946 70.5314 111.659 68.2839C109.311 65.9766 108.661 64.174 108.936 62.889C109.21 61.6041 110.54 60.2242 113.626 59.0777C116.632 57.9609 120.894 57.2302 126.163 56.9551C136.68 56.4059 150.858 57.687 166.182 60.9604C181.506 64.2338 194.97 68.8576 204.345 73.6557C209.042 76.0598 212.633 78.4682 214.921 80.7157C217.269 83.0231 217.918 84.8257 217.644 86.1106Z" stroke="#E8E8E8" stroke-width="3"/>
<path d="M188.585 79.9035C188.541 80.1099 188.244 80.6358 186.828 81.1619C185.493 81.6582 183.538 82.0017 181.049 82.1317C176.093 82.3905 169.366 81.7869 162.066 80.2276C154.767 78.6683 148.381 76.4708 143.963 74.2097C141.744 73.074 140.1 71.9618 139.084 70.963C138.007 69.9044 137.951 69.303 137.995 69.0967C138.039 68.8903 138.336 68.3643 139.752 67.8383C141.087 67.342 143.042 66.9984 145.531 66.8684C150.487 66.6097 157.214 67.2132 164.513 68.7725C171.813 70.3319 178.199 72.5294 182.617 74.7905C184.836 75.9261 186.479 77.0384 187.496 78.0371C188.573 79.0958 188.629 79.6971 188.585 79.9035Z" stroke="#E8E8E8" stroke-width="3"/>
</svg>
