<svg width="171" height="44" viewBox="0 0 171 44" fill="none" xmlns="http://www.w3.org/2000/svg">
<path d="M7.29167 14.5556H2.43056V12.125H17.0139V14.5556H12.1528V34H7.29167V14.5556ZM26.7331 24.2778V34H21.872V12.125H26.7331V21.8472H31.5942V12.125H36.4553V34H31.5942V24.2778H26.7331ZM46.1745 31.5694H55.8967V34H41.3134V12.125H55.8967V14.5556H46.1745V21.8472H53.4661V24.2778H46.1745V31.5694ZM75.3503 21.8472H82.6419V24.2778H75.3503V34H70.4891V12.125H85.0725V14.5556H75.3503V21.8472ZM92.3611 29.1389V26.7083H94.7917V24.2778H97.2222V21.8472H99.6528V14.5556H94.7917V19.4167H89.9306V14.5556H92.3611V12.125H102.083V14.5556H104.514V21.8472H102.083V24.2778H99.6528V26.7083H97.2222V29.1389H94.7917V31.5694H104.514V34H89.9306V29.1389H92.3611ZM114.233 31.5694H123.955V34H109.372V12.125H123.955V14.5556H114.233V21.8472H121.525V24.2778H114.233V31.5694Z" fill="black"/>
<path d="M146.8 22.249H143.6V25.6654H146.8V22.249Z" fill="#4CD30C"/>
<path d="M143.6 25.751H140.4V29.1673H143.6V25.751Z" fill="#4CD30C"/>
<path d="M143.6 18.8325H140.4V22.2489H143.6V18.8325Z" fill="#4CD30C"/>
<path d="M140.4 29.1675H137.2V32.5838H140.4V29.1675Z" fill="#4CD30C"/>
<path d="M140.4 15.4165H137.2V18.8329H140.4V15.4165Z" fill="#4CD30C"/>
<path d="M137.2 32.5835H134V35.9999H137.2V32.5835Z" fill="#4CD30C"/>
<path d="M137.2 12H134V15.4164H137.2V12Z" fill="#4CD30C"/>
<path d="M166 22.249H162.8V25.6654H166V22.249Z" fill="#4CD30C"/>
<path d="M162.8 25.751H159.6V29.1673H162.8V25.751Z" fill="#4CD30C"/>
<path d="M162.8 18.8325H159.6V22.2489H162.8V18.8325Z" fill="#4CD30C"/>
<path d="M159.6 29.1675H156.4V32.5838H159.6V29.1675Z" fill="#4CD30C"/>
<path d="M159.6 15.4165H156.4V18.8329H159.6V15.4165Z" fill="#4CD30C"/>
<path d="M156.4 32.5835H153.2V35.9999H156.4V32.5835Z" fill="#4CD30C"/>
<path d="M156.4 12H153.2V15.4164H156.4V12Z" fill="#4CD30C"/>
</svg>
