<?xml version="1.0" encoding="utf-8"?>
<!-- Generator: Adobe Illustrator 27.0.0, SVG Export Plug-In . SVG Version: 6.00 Build 0)  -->
<svg version="1.1" id="tv-arrow" xmlns="http://www.w3.org/2000/svg" xmlns:xlink="http://www.w3.org/1999/xlink" x="0px" y="0px"
	 viewBox="0 0 78 48" style="enable-background:new 0 0 78 48;" xml:space="preserve">
<style type="text/css">
	.st0{fill:#4CD30C;}
</style>
<polygon class="st0" points="72,36 72,30 66,30 66,24 60,24 60,18 54,18 54,12 48,12 48,6 42,6 42,0 36,0 36,6 30,6 30,12 24,12 
	24,18 18,18 18,24 12,24 12,30 6,30 6,36 0,36 0,42 0,48 6,48 12,48 18,48 24,48 30,48 36,48 42,48 48,48 54,48 60,48 66,48 72,48 
	78,48 78,42 78,36 "/>
</svg>
