<svg width="1440" height="799" viewBox="0 0 1440 799" fill="none" xmlns="http://www.w3.org/2000/svg">
<rect width="12" height="12" transform="matrix(-1 0 0 1 1440 84)" fill="black"/>
<rect width="12" height="12" transform="matrix(-1 0 0 1 1440 72)" fill="black"/>
<rect width="12" height="12" transform="matrix(-1 0 0 1 1440 60)" fill="black"/>
<rect width="12" height="12" transform="matrix(-1 0 0 1 1440 48)" fill="black"/>
<rect width="12" height="12" transform="matrix(-1 0 0 1 1440 36)" fill="black"/>
<rect width="12" height="12" transform="matrix(-1 0 0 1 1440 24)" fill="black"/>
<rect width="12" height="12" transform="matrix(-1 0 0 1 1440 12)" fill="black"/>
<rect width="12" height="12" transform="matrix(-1 0 0 1 1428 12)" fill="black"/>
<rect width="12" height="12" transform="matrix(-1 0 0 1 1404 12)" fill="black"/>
<rect width="12" height="12" transform="matrix(-1 0 0 1 1440 0)" fill="black"/>
<rect width="12" height="12" transform="matrix(-1 0 0 1 1428 0)" fill="black"/>
<rect width="12" height="12" transform="matrix(-1 0 0 1 1416 0)" fill="black"/>
<rect width="12" height="12" transform="matrix(-1 0 0 1 1404 0)" fill="black"/>
<rect width="12" height="12" transform="matrix(-1 0 0 1 1392 0)" fill="black"/>
<rect width="12" height="12" transform="matrix(-1 0 0 1 1380 0)" fill="black"/>
<rect width="12" height="12" transform="matrix(-1 0 0 1 1428 60)" fill="black"/>
<rect width="12" height="12" transform="matrix(-1 0 0 1 1428 48)" fill="black"/>
<rect width="12" height="12" transform="matrix(-1 0 0 1 1416 36)" fill="black"/>
<rect width="12" height="12" transform="matrix(-1 0 0 1 1428 36)" fill="black"/>
<rect width="12" height="12" transform="matrix(-1 0 0 1 1428 24)" fill="black"/>
<rect width="12" height="12" transform="matrix(-1 0 0 1 1404 24)" fill="black"/>
<rect width="12" height="12" transform="matrix(-1 0 0 1 1416 24)" fill="black"/>
<rect width="12" height="12" transform="matrix(-1 0 0 1 1416 12)" fill="black"/>
<rect width="12" height="12" transform="matrix(-1 0 0 1 1392 12)" fill="black"/>
<rect width="12" height="12" transform="matrix(-1 0 0 1 1368 0)" fill="black"/>
<rect width="12" height="12" transform="matrix(-1 0 0 1 1380 12)" fill="black"/>
<rect width="12" height="12" transform="matrix(-1 0 0 1 1356 0)" fill="black"/>
<rect y="84" width="12" height="12" fill="black"/>
<rect y="72" width="12" height="12" fill="black"/>
<rect y="60" width="12" height="12" fill="black"/>
<rect y="48" width="12" height="12" fill="black"/>
<rect y="36" width="12" height="12" fill="black"/>
<rect y="24" width="12" height="12" fill="black"/>
<rect y="12" width="12" height="12" fill="black"/>
<rect x="12" y="12" width="12" height="12" fill="black"/>
<rect x="36" y="12" width="12" height="12" fill="black"/>
<rect width="12" height="12" fill="black"/>
<rect x="12" width="12" height="12" fill="black"/>
<rect x="24" width="12" height="12" fill="black"/>
<rect x="36" width="12" height="12" fill="black"/>
<rect x="48" width="12" height="12" fill="black"/>
<rect x="60" width="12" height="12" fill="black"/>
<rect x="12" y="60" width="12" height="12" fill="black"/>
<rect x="12" y="48" width="12" height="12" fill="black"/>
<rect x="24" y="36" width="12" height="12" fill="black"/>
<rect x="12" y="36" width="12" height="12" fill="black"/>
<rect x="12" y="24" width="12" height="12" fill="black"/>
<rect x="36" y="24" width="12" height="12" fill="black"/>
<rect x="24" y="24" width="12" height="12" fill="black"/>
<rect x="24" y="12" width="12" height="12" fill="black"/>
<rect x="48" y="12" width="12" height="12" fill="black"/>
<rect x="72" width="12" height="12" fill="black"/>
<rect x="60" y="12" width="12" height="12" fill="black"/>
<rect x="84" width="12" height="12" fill="black"/>
<rect width="12" height="12" transform="matrix(1 0 0 -1 0 715)" fill="black"/>
<rect width="12" height="12" transform="matrix(1 0 0 -1 0 727)" fill="black"/>
<rect width="12" height="12" transform="matrix(1 0 0 -1 0 739)" fill="black"/>
<rect width="12" height="12" transform="matrix(1 0 0 -1 0 751)" fill="black"/>
<rect width="12" height="12" transform="matrix(1 0 0 -1 0 763)" fill="black"/>
<rect width="12" height="12" transform="matrix(1 0 0 -1 0 775)" fill="black"/>
<rect width="12" height="12" transform="matrix(1 0 0 -1 0 787)" fill="black"/>
<rect width="12" height="12" transform="matrix(1 0 0 -1 12 787)" fill="black"/>
<rect width="12" height="12" transform="matrix(1 0 0 -1 36 787)" fill="black"/>
<rect width="12" height="12" transform="matrix(1 0 0 -1 0 799)" fill="black"/>
<rect width="12" height="12" transform="matrix(1 0 0 -1 12 799)" fill="black"/>
<rect width="12" height="12" transform="matrix(1 0 0 -1 24 799)" fill="black"/>
<rect width="12" height="12" transform="matrix(1 0 0 -1 36 799)" fill="black"/>
<rect width="12" height="12" transform="matrix(1 0 0 -1 48 799)" fill="black"/>
<rect width="12" height="12" transform="matrix(1 0 0 -1 60 799)" fill="black"/>
<rect width="12" height="12" transform="matrix(1 0 0 -1 12 739)" fill="black"/>
<rect width="12" height="12" transform="matrix(1 0 0 -1 12 751)" fill="black"/>
<rect width="12" height="12" transform="matrix(1 0 0 -1 24 763)" fill="black"/>
<rect width="12" height="12" transform="matrix(1 0 0 -1 12 763)" fill="black"/>
<rect width="12" height="12" transform="matrix(1 0 0 -1 12 775)" fill="black"/>
<rect width="12" height="12" transform="matrix(1 0 0 -1 36 775)" fill="black"/>
<rect width="12" height="12" transform="matrix(1 0 0 -1 24 775)" fill="black"/>
<rect width="12" height="12" transform="matrix(1 0 0 -1 24 787)" fill="black"/>
<rect width="12" height="12" transform="matrix(1 0 0 -1 48 787)" fill="black"/>
<rect width="12" height="12" transform="matrix(1 0 0 -1 72 799)" fill="black"/>
<rect width="12" height="12" transform="matrix(1 0 0 -1 60 787)" fill="black"/>
<rect width="12" height="12" transform="matrix(1 0 0 -1 84 799)" fill="black"/>
<rect x="1440" y="715" width="12" height="12" transform="rotate(-180 1440 715)" fill="black"/>
<rect x="1440" y="727" width="12" height="12" transform="rotate(-180 1440 727)" fill="black"/>
<rect x="1440" y="739" width="12" height="12" transform="rotate(-180 1440 739)" fill="black"/>
<rect x="1440" y="751" width="12" height="12" transform="rotate(-180 1440 751)" fill="black"/>
<rect x="1440" y="763" width="12" height="12" transform="rotate(-180 1440 763)" fill="black"/>
<rect x="1440" y="775" width="12" height="12" transform="rotate(-180 1440 775)" fill="black"/>
<rect x="1440" y="787" width="12" height="12" transform="rotate(-180 1440 787)" fill="black"/>
<rect x="1428" y="787" width="12" height="12" transform="rotate(-180 1428 787)" fill="black"/>
<rect x="1404" y="787" width="12" height="12" transform="rotate(-180 1404 787)" fill="black"/>
<rect x="1440" y="799" width="12" height="12" transform="rotate(-180 1440 799)" fill="black"/>
<rect x="1428" y="799" width="12" height="12" transform="rotate(-180 1428 799)" fill="black"/>
<rect x="1416" y="799" width="12" height="12" transform="rotate(-180 1416 799)" fill="black"/>
<rect x="1404" y="799" width="12" height="12" transform="rotate(-180 1404 799)" fill="black"/>
<rect x="1392" y="799" width="12" height="12" transform="rotate(-180 1392 799)" fill="black"/>
<rect x="1380" y="799" width="12" height="12" transform="rotate(-180 1380 799)" fill="black"/>
<rect x="1428" y="739" width="12" height="12" transform="rotate(-180 1428 739)" fill="black"/>
<rect x="1428" y="751" width="12" height="12" transform="rotate(-180 1428 751)" fill="black"/>
<rect x="1416" y="763" width="12" height="12" transform="rotate(-180 1416 763)" fill="black"/>
<rect x="1428" y="763" width="12" height="12" transform="rotate(-180 1428 763)" fill="black"/>
<rect x="1428" y="775" width="12" height="12" transform="rotate(-180 1428 775)" fill="black"/>
<rect x="1404" y="775" width="12" height="12" transform="rotate(-180 1404 775)" fill="black"/>
<rect x="1416" y="775" width="12" height="12" transform="rotate(-180 1416 775)" fill="black"/>
<rect x="1416" y="787" width="12" height="12" transform="rotate(-180 1416 787)" fill="black"/>
<rect x="1392" y="787" width="12" height="12" transform="rotate(-180 1392 787)" fill="black"/>
<rect x="1368" y="799" width="12" height="12" transform="rotate(-180 1368 799)" fill="black"/>
<rect x="1380" y="787" width="12" height="12" transform="rotate(-180 1380 787)" fill="black"/>
<rect x="1356" y="799" width="12" height="12" transform="rotate(-180 1356 799)" fill="black"/>
</svg>
