<svg width="345" height="574" viewBox="0 0 345 574" fill="none" xmlns="http://www.w3.org/2000/svg">
<rect y="420" width="344" height="24" fill="#CFCFCD"/>
<rect y="355" width="344" height="24" fill="#CFCFCD"/>
<rect y="485" width="344" height="24" fill="#CFCFCD"/>
<rect y="550" width="344" height="24" fill="#CFCFCD"/>
<rect x="297" width="24" height="24" fill="#CFCFCD"/>
<rect x="273" width="24" height="24" fill="#CFCFCD"/>
<rect x="321" width="24" height="24" fill="#CFCFCD"/>
<rect x="297" y="24" width="24" height="24" fill="#CFCFCD"/>
<rect x="297" y="48" width="24" height="24" fill="#CFCFCD"/>
<rect x="297" y="96" width="24" height="24" fill="#CFCFCD"/>
<rect x="297" y="144" width="24" height="24" fill="#CFCFCD"/>
<rect x="273" y="24" width="24" height="24" fill="#CFCFCD"/>
<rect x="273" y="48" width="24" height="24" fill="#CFCFCD"/>
<rect x="273" y="96" width="24" height="24" fill="#CFCFCD"/>
<rect x="273" y="144" width="24" height="24" fill="#CFCFCD"/>
<rect x="321" y="24" width="24" height="24" fill="#CFCFCD"/>
<rect x="321" y="48" width="24" height="24" fill="#CFCFCD"/>
<rect x="321" y="96" width="24" height="24" fill="#CFCFCD"/>
<rect x="321" y="144" width="24" height="24" fill="#CFCFCD"/>
<path d="M16.5714 234H24.8571V242.286H16.5714V234Z" fill="#CFCFCD"/>
<path d="M24.8571 234H33.1429V242.286H24.8571V234Z" fill="#CFCFCD"/>
<path d="M33.1429 234H41.4286V242.286H33.1429V234Z" fill="#CFCFCD"/>
<path d="M41.4286 242.286L49.7143 242.286V250.572H41.4286L41.4286 242.286Z" fill="#CFCFCD"/>
<path d="M41.4286 234H49.7143V242.286L41.4286 242.286V234Z" fill="#CFCFCD"/>
<path d="M49.7143 242.286H58V250.572H49.7143V242.286Z" fill="#CFCFCD"/>
<path d="M33.1429 242.286H41.4286L41.4286 250.572H33.1429L33.1429 242.286Z" fill="#CFCFCD"/>
<path d="M24.8571 242.286H33.1429L33.1429 250.572H24.8571L24.8571 242.286Z" fill="#CFCFCD"/>
<path d="M16.5714 242.286H24.8571L24.8571 250.572H16.5714V242.286Z" fill="#CFCFCD"/>
<path d="M49.7143 250.572H58V258.857H49.7143V250.572Z" fill="#CFCFCD"/>
<path d="M41.4286 250.572H49.7143V258.857H41.4286V250.572Z" fill="#CFCFCD"/>
<path d="M33.1429 250.572H41.4286V258.857H33.1429V250.572Z" fill="#CFCFCD"/>
<path d="M24.8571 250.572H33.1429V258.857H24.8571V250.572Z" fill="#CFCFCD"/>
<path d="M16.5714 250.572H24.8571V258.857H16.5714V250.572Z" fill="#CFCFCD"/>
<path d="M8.28571 250.571L16.5714 250.572V258.857H8.28571V250.571Z" fill="#CFCFCD"/>
<path d="M49.7143 258.857H58V267.143H49.7143V258.857Z" fill="#CFCFCD"/>
<path d="M41.4286 258.857H49.7143V267.143H41.4286V258.857Z" fill="#CFCFCD"/>
<path d="M33.1429 258.857H41.4286V267.143H33.1429V258.857Z" fill="#CFCFCD"/>
<path d="M24.8571 258.857H33.1429V267.143H24.8571V258.857Z" fill="#CFCFCD"/>
<path d="M16.5714 258.857H24.8571V267.143H16.5714V258.857Z" fill="#CFCFCD"/>
<path d="M8.28571 258.857H16.5714V267.143H8.28571V258.857Z" fill="#CFCFCD"/>
<path d="M49.7143 267.143H58V275.429H49.7143V267.143Z" fill="#CFCFCD"/>
<path d="M49.7143 275.429H58V283.714H49.7143V275.429Z" fill="#CFCFCD"/>
<path d="M41.4286 267.143H49.7143V275.429H41.4286V267.143Z" fill="#CFCFCD"/>
<path d="M33.1429 267.143H41.4286V275.429H33.1429V267.143Z" fill="#CFCFCD"/>
<path d="M24.8571 267.143H33.1429V275.429H24.8571V267.143Z" fill="#CFCFCD"/>
<path d="M16.5714 267.143H24.8571V275.429H16.5714V267.143Z" fill="#CFCFCD"/>
<path d="M8.28571 267.143H16.5714V275.429H8.28571V267.143Z" fill="#CFCFCD"/>
<path d="M41.4286 275.429H49.7143V283.714H41.4286V275.429Z" fill="#CFCFCD"/>
<path d="M41.4286 283.714H49.7143V292H41.4286V283.714Z" fill="#CFCFCD"/>
<path d="M33.1429 283.714L41.4286 283.714V292H33.1429V283.714Z" fill="#CFCFCD"/>
<path d="M33.1429 275.429H41.4286V283.714L33.1429 283.714V275.429Z" fill="#CFCFCD"/>
<path d="M24.8571 283.714H33.1429V292H24.8571V283.714Z" fill="#CFCFCD"/>
<path d="M16.5714 283.714H24.8571V292H16.5714V283.714Z" fill="#CFCFCD"/>
<path d="M16.5714 275.429H24.8571V283.714H16.5714V275.429Z" fill="#CFCFCD"/>
<path d="M24.8571 275.429H33.1429V283.714H24.8571V275.429Z" fill="#CFCFCD"/>
<path d="M8.28571 275.429H16.5714V283.714L8.28571 283.714V275.429Z" fill="#CFCFCD"/>
<path d="M8.28571 283.714L16.5714 283.714V292H8.28571V283.714Z" fill="#CFCFCD"/>
<path d="M0 275.429L8.28571 275.429V283.714H0V275.429Z" fill="#CFCFCD"/>
<path d="M8.28571 242.286L16.5714 242.286V250.572L8.28571 250.571V242.286Z" fill="#CFCFCD"/>
<path d="M8.28571 234H16.5714V242.286L8.28571 242.286V234Z" fill="#CFCFCD"/>
<path d="M0 242.286H8.28571V250.571L0 250.572V242.286Z" fill="#CFCFCD"/>
<path d="M0 250.572L8.28571 250.571V258.857H0V250.572Z" fill="#CFCFCD"/>
<path d="M0 258.857H8.28571V267.143H0V258.857Z" fill="#CFCFCD"/>
<path d="M0 267.143H8.28571V275.429L0 275.429V267.143Z" fill="#CFCFCD"/>
<path d="M63.7143 0H95.5714V24H63.7143V0Z" fill="#CFCFCD"/>
<path d="M95.5714 0H127.429V24H95.5714V0Z" fill="#CFCFCD"/>
<path d="M127.429 0H159.286V24H127.429V0Z" fill="#CFCFCD"/>
<path d="M159.286 24L191.143 24.0003V48.0004H159.286L159.286 24Z" fill="#CFCFCD"/>
<path d="M159.286 0H191.143V24.0003L159.286 24V0Z" fill="#CFCFCD"/>
<path d="M191.143 24.0003H223V48.0004H191.143V24.0003Z" fill="#CFCFCD"/>
<path d="M127.429 24H159.286L159.286 48.0004H127.429L127.429 24Z" fill="#CFCFCD"/>
<path d="M95.5714 24H127.429L127.429 48.0004H95.5714L95.5714 24Z" fill="#CFCFCD"/>
<path d="M63.7143 24H95.5714L95.5714 48.0004H63.7143V24Z" fill="#CFCFCD"/>
<path d="M191.143 48.0004H223V72H191.143V48.0004Z" fill="#CFCFCD"/>
<path d="M159.286 48.0004H191.143V72H159.286V48.0004Z" fill="#CFCFCD"/>
<path d="M127.429 48.0004H159.286V72H127.429V48.0004Z" fill="#CFCFCD"/>
<path d="M95.5714 48.0004H127.429V72H95.5714V48.0004Z" fill="#CFCFCD"/>
<path d="M63.7143 48.0004H95.5714V72H63.7143V48.0004Z" fill="#CFCFCD"/>
<path d="M31.8571 48L63.7143 48.0004V72H31.8571V48Z" fill="#CFCFCD"/>
<path d="M191.143 72H223V96.0004H191.143V72Z" fill="#CFCFCD"/>
<path d="M159.286 72H191.143V96.0004H159.286V72Z" fill="#CFCFCD"/>
<path d="M127.429 72H159.286V96.0004H127.429V72Z" fill="#CFCFCD"/>
<path d="M95.5714 72H127.429V96.0004H95.5714V72Z" fill="#CFCFCD"/>
<path d="M63.7143 72H95.5714V96.0004H63.7143V72Z" fill="#CFCFCD"/>
<path d="M31.8571 72H63.7143V96.0004H31.8571V72Z" fill="#CFCFCD"/>
<path d="M191.143 96.0004H223V120H191.143V96.0004Z" fill="#CFCFCD"/>
<path d="M191.143 120H223V144H191.143V120Z" fill="#CFCFCD"/>
<path d="M159.286 96.0004H191.143V120H159.286V96.0004Z" fill="#CFCFCD"/>
<path d="M127.429 96.0004H159.286V120H127.429V96.0004Z" fill="#CFCFCD"/>
<path d="M95.5714 96.0004H127.429V120H95.5714V96.0004Z" fill="#CFCFCD"/>
<path d="M63.7143 96.0004H95.5714V120H63.7143V96.0004Z" fill="#CFCFCD"/>
<path d="M31.8571 96.0004H63.7143V120H31.8571V96.0004Z" fill="#CFCFCD"/>
<path d="M159.286 120H191.143V144H159.286V120Z" fill="#CFCFCD"/>
<path d="M159.286 144H191.143V168H159.286V144Z" fill="#CFCFCD"/>
<path d="M127.429 144L159.286 144V168H127.429V144Z" fill="#CFCFCD"/>
<path d="M127.429 120H159.286V144L127.429 144V120Z" fill="#CFCFCD"/>
<path d="M95.5714 144H127.429V168H95.5714V144Z" fill="#CFCFCD"/>
<path d="M63.7143 144H95.5714V168H63.7143V144Z" fill="#CFCFCD"/>
<path d="M63.7143 120H95.5714V144H63.7143V120Z" fill="#CFCFCD"/>
<path d="M95.5714 120H127.429V144H95.5714V120Z" fill="#CFCFCD"/>
<path d="M31.8571 120H63.7143V144L31.8571 144V120Z" fill="#CFCFCD"/>
<path d="M31.8571 144L63.7143 144V168H31.8571V144Z" fill="#CFCFCD"/>
<path d="M0 120L31.8571 120V144H0V120Z" fill="#CFCFCD"/>
<path d="M31.8571 24.0003L63.7143 24V48.0004L31.8571 48V24.0003Z" fill="#CFCFCD"/>
<path d="M31.8571 0H63.7143V24L31.8571 24.0003V0Z" fill="#CFCFCD"/>
<path d="M0 24.0003H31.8571V48L0 48.0004V24.0003Z" fill="#CFCFCD"/>
<path d="M0 48.0004L31.8571 48V72H0V48.0004Z" fill="#CFCFCD"/>
<path d="M0 72H31.8571V96.0004H0V72Z" fill="#CFCFCD"/>
<path d="M0 96.0004H31.8571V120L0 120V96.0004Z" fill="#CFCFCD"/>
<path d="M159.571 234H167.857V242.286H159.571V234Z" fill="#CFCFCD"/>
<path d="M167.857 234H176.143V242.286H167.857V234Z" fill="#CFCFCD"/>
<path d="M176.143 234H184.429V242.286H176.143V234Z" fill="#CFCFCD"/>
<path d="M184.429 242.286L192.714 242.286V250.572H184.429L184.429 242.286Z" fill="#CFCFCD"/>
<path d="M184.429 234H192.714V242.286L184.429 242.286V234Z" fill="#CFCFCD"/>
<path d="M192.714 242.286H201V250.572H192.714V242.286Z" fill="#CFCFCD"/>
<path d="M176.143 242.286H184.429L184.429 250.572H176.143L176.143 242.286Z" fill="#CFCFCD"/>
<path d="M167.857 242.286H176.143L176.143 250.572H167.857L167.857 242.286Z" fill="#CFCFCD"/>
<path d="M159.571 242.286H167.857L167.857 250.572H159.571V242.286Z" fill="#CFCFCD"/>
<path d="M192.714 250.572H201V258.857H192.714V250.572Z" fill="#CFCFCD"/>
<path d="M184.429 250.572H192.714V258.857H184.429V250.572Z" fill="#CFCFCD"/>
<path d="M176.143 250.572H184.429V258.857H176.143V250.572Z" fill="#CFCFCD"/>
<path d="M167.857 250.572H176.143V258.857H167.857V250.572Z" fill="#CFCFCD"/>
<path d="M159.571 250.572H167.857V258.857H159.571V250.572Z" fill="#CFCFCD"/>
<path d="M151.286 250.571L159.571 250.572V258.857H151.286V250.571Z" fill="#CFCFCD"/>
<path d="M192.714 258.857H201V267.143H192.714V258.857Z" fill="#CFCFCD"/>
<path d="M184.429 258.857H192.714V267.143H184.429V258.857Z" fill="#CFCFCD"/>
<path d="M176.143 258.857H184.429V267.143H176.143V258.857Z" fill="#CFCFCD"/>
<path d="M167.857 258.857H176.143V267.143H167.857V258.857Z" fill="#CFCFCD"/>
<path d="M159.571 258.857H167.857V267.143H159.571V258.857Z" fill="#CFCFCD"/>
<path d="M151.286 258.857H159.571V267.143H151.286V258.857Z" fill="#CFCFCD"/>
<path d="M192.714 267.143H201V275.429H192.714V267.143Z" fill="#CFCFCD"/>
<path d="M192.714 275.429H201V283.714H192.714V275.429Z" fill="#CFCFCD"/>
<path d="M184.429 267.143H192.714V275.429H184.429V267.143Z" fill="#CFCFCD"/>
<path d="M176.143 267.143H184.429V275.429H176.143V267.143Z" fill="#CFCFCD"/>
<path d="M167.857 267.143H176.143V275.429H167.857V267.143Z" fill="#CFCFCD"/>
<path d="M159.571 267.143H167.857V275.429H159.571V267.143Z" fill="#CFCFCD"/>
<path d="M151.286 267.143H159.571V275.429H151.286V267.143Z" fill="#CFCFCD"/>
<path d="M184.429 275.429H192.714V283.714H184.429V275.429Z" fill="#CFCFCD"/>
<path d="M184.429 283.714H192.714V292H184.429V283.714Z" fill="#CFCFCD"/>
<path d="M176.143 283.714L184.429 283.714V292H176.143V283.714Z" fill="#CFCFCD"/>
<path d="M176.143 275.429H184.429V283.714L176.143 283.714V275.429Z" fill="#CFCFCD"/>
<path d="M167.857 283.714H176.143V292H167.857V283.714Z" fill="#CFCFCD"/>
<path d="M159.571 283.714H167.857V292H159.571V283.714Z" fill="#CFCFCD"/>
<path d="M159.571 275.429H167.857V283.714H159.571V275.429Z" fill="#CFCFCD"/>
<path d="M167.857 275.429H176.143V283.714H167.857V275.429Z" fill="#CFCFCD"/>
<path d="M151.286 275.429H159.571V283.714L151.286 283.714V275.429Z" fill="#CFCFCD"/>
<path d="M151.286 283.714L159.571 283.714V292H151.286V283.714Z" fill="#CFCFCD"/>
<path d="M143 275.429L151.286 275.429V283.714H143V275.429Z" fill="#CFCFCD"/>
<path d="M151.286 242.286L159.571 242.286V250.572L151.286 250.571V242.286Z" fill="#CFCFCD"/>
<path d="M151.286 234H159.571V242.286L151.286 242.286V234Z" fill="#CFCFCD"/>
<path d="M143 242.286H151.286V250.571L143 250.572V242.286Z" fill="#CFCFCD"/>
<path d="M143 250.572L151.286 250.571V258.857H143V250.572Z" fill="#CFCFCD"/>
<path d="M143 258.857H151.286V267.143H143V258.857Z" fill="#CFCFCD"/>
<path d="M143 267.143H151.286V275.429L143 275.429V267.143Z" fill="#CFCFCD"/>
<path d="M302.571 234H310.857V242.286H302.571V234Z" fill="#CFCFCD"/>
<path d="M310.857 234H319.143V242.286H310.857V234Z" fill="#CFCFCD"/>
<path d="M319.143 234H327.429V242.286H319.143V234Z" fill="#CFCFCD"/>
<path d="M327.429 242.286L335.714 242.286V250.572H327.429L327.429 242.286Z" fill="#CFCFCD"/>
<path d="M327.429 234H335.714V242.286L327.429 242.286V234Z" fill="#CFCFCD"/>
<path d="M335.714 242.286H344V250.572H335.714V242.286Z" fill="#CFCFCD"/>
<path d="M319.143 242.286H327.429L327.429 250.572H319.143L319.143 242.286Z" fill="#CFCFCD"/>
<path d="M310.857 242.286H319.143L319.143 250.572H310.857L310.857 242.286Z" fill="#CFCFCD"/>
<path d="M302.571 242.286H310.857L310.857 250.572H302.571V242.286Z" fill="#CFCFCD"/>
<path d="M335.714 250.572H344V258.857H335.714V250.572Z" fill="#CFCFCD"/>
<path d="M327.429 250.572H335.714V258.857H327.429V250.572Z" fill="#CFCFCD"/>
<path d="M319.143 250.572H327.429V258.857H319.143V250.572Z" fill="#CFCFCD"/>
<path d="M310.857 250.572H319.143V258.857H310.857V250.572Z" fill="#CFCFCD"/>
<path d="M302.571 250.572H310.857V258.857H302.571V250.572Z" fill="#CFCFCD"/>
<path d="M294.286 250.571L302.571 250.572V258.857H294.286V250.571Z" fill="#CFCFCD"/>
<path d="M335.714 258.857H344V267.143H335.714V258.857Z" fill="#CFCFCD"/>
<path d="M327.429 258.857H335.714V267.143H327.429V258.857Z" fill="#CFCFCD"/>
<path d="M319.143 258.857H327.429V267.143H319.143V258.857Z" fill="#CFCFCD"/>
<path d="M310.857 258.857H319.143V267.143H310.857V258.857Z" fill="#CFCFCD"/>
<path d="M302.571 258.857H310.857V267.143H302.571V258.857Z" fill="#CFCFCD"/>
<path d="M294.286 258.857H302.571V267.143H294.286V258.857Z" fill="#CFCFCD"/>
<path d="M335.714 267.143H344V275.429H335.714V267.143Z" fill="#CFCFCD"/>
<path d="M335.714 275.429H344V283.714H335.714V275.429Z" fill="#CFCFCD"/>
<path d="M327.429 267.143H335.714V275.429H327.429V267.143Z" fill="#CFCFCD"/>
<path d="M319.143 267.143H327.429V275.429H319.143V267.143Z" fill="#CFCFCD"/>
<path d="M310.857 267.143H319.143V275.429H310.857V267.143Z" fill="#CFCFCD"/>
<path d="M302.571 267.143H310.857V275.429H302.571V267.143Z" fill="#CFCFCD"/>
<path d="M294.286 267.143H302.571V275.429H294.286V267.143Z" fill="#CFCFCD"/>
<path d="M327.429 275.429H335.714V283.714H327.429V275.429Z" fill="#CFCFCD"/>
<path d="M327.429 283.714H335.714V292H327.429V283.714Z" fill="#CFCFCD"/>
<path d="M319.143 283.714L327.429 283.714V292H319.143V283.714Z" fill="#CFCFCD"/>
<path d="M319.143 275.429H327.429V283.714L319.143 283.714V275.429Z" fill="#CFCFCD"/>
<path d="M310.857 283.714H319.143V292H310.857V283.714Z" fill="#CFCFCD"/>
<path d="M302.571 283.714H310.857V292H302.571V283.714Z" fill="#CFCFCD"/>
<path d="M302.571 275.429H310.857V283.714H302.571V275.429Z" fill="#CFCFCD"/>
<path d="M310.857 275.429H319.143V283.714H310.857V275.429Z" fill="#CFCFCD"/>
<path d="M294.286 275.429H302.571V283.714L294.286 283.714V275.429Z" fill="#CFCFCD"/>
<path d="M294.286 283.714L302.571 283.714V292H294.286V283.714Z" fill="#CFCFCD"/>
<path d="M286 275.429L294.286 275.429V283.714H286V275.429Z" fill="#CFCFCD"/>
<path d="M294.286 242.286L302.571 242.286V250.572L294.286 250.571V242.286Z" fill="#CFCFCD"/>
<path d="M294.286 234H302.571V242.286L294.286 242.286V234Z" fill="#CFCFCD"/>
<path d="M286 242.286H294.286V250.571L286 250.572V242.286Z" fill="#CFCFCD"/>
<path d="M286 250.572L294.286 250.571V258.857H286V250.572Z" fill="#CFCFCD"/>
<path d="M286 258.857H294.286V267.143H286V258.857Z" fill="#CFCFCD"/>
<path d="M286 267.143H294.286V275.429L286 275.429V267.143Z" fill="#CFCFCD"/>
</svg>
