<svg width="710" height="574" viewBox="0 0 710 574" fill="none" xmlns="http://www.w3.org/2000/svg">
<rect y="72" width="12" height="430" fill="black"/>
<rect x="698" y="72" width="12" height="430" fill="black"/>
<rect x="12" y="60" width="12" height="12" fill="black"/>
<rect x="12" y="514" width="12" height="12" fill="black"/>
<rect width="12" height="12" transform="matrix(-1 0 0 1 698 514)" fill="black"/>
<rect x="24" y="526" width="12" height="12" fill="black"/>
<rect width="12" height="12" transform="matrix(-1 0 0 1 686 526)" fill="black"/>
<rect x="36" y="538" width="12" height="12" fill="black"/>
<rect width="12" height="12" transform="matrix(-1 0 0 1 674 538)" fill="black"/>
<rect x="48" y="550" width="12" height="12" fill="black"/>
<rect width="12" height="12" transform="matrix(-1 0 0 1 662 550)" fill="black"/>
<rect x="60" y="550" width="12" height="12" fill="black"/>
<rect width="12" height="12" transform="matrix(-1 0 0 1 650 550)" fill="black"/>
<rect x="12" y="48" width="12" height="12" fill="black"/>
<rect x="12" y="502" width="12" height="12" fill="black"/>
<rect width="12" height="12" transform="matrix(-1 0 0 1 698 502)" fill="black"/>
<rect x="24" y="36" width="12" height="12" fill="black"/>
<rect x="36" y="24" width="12" height="12" fill="black"/>
<rect x="686" y="60" width="12" height="12" fill="black"/>
<rect x="686" y="48" width="12" height="12" fill="black"/>
<rect x="674" y="36" width="12" height="12" fill="black"/>
<rect x="662" y="24" width="12" height="12" fill="black"/>
<rect x="650" y="12" width="12" height="12" fill="black"/>
<rect x="638" y="12" width="12" height="12" fill="black"/>
<rect x="48" y="12" width="12" height="12" fill="black"/>
<rect x="60" y="12" width="12" height="12" fill="black"/>
<rect x="72" width="566" height="12" fill="black"/>
<rect x="72" y="562" width="566" height="12" fill="black"/>
<path d="M60 24H72V36H60V24Z" fill="white"/>
<path d="M650 24H638V36H650V24Z" fill="white"/>
<path d="M650 550H638V538H650V550Z" fill="white"/>
<path d="M60 550H72V538H60V550Z" fill="white"/>
<path d="M60 36H72V48H60V36Z" fill="white"/>
<path d="M650 36H638V48H650V36Z" fill="white"/>
<path d="M650 538H638V526H650V538Z" fill="white"/>
<path d="M60 538H72V526H60V538Z" fill="white"/>
<path d="M60 48H72V60H60V48Z" fill="white"/>
<path d="M650 48H638V60H650V48Z" fill="white"/>
<path d="M650 526H638V514H650V526Z" fill="white"/>
<path d="M60 526H72V514H60V526Z" fill="white"/>
<path d="M60 60H72V72H60V60Z" fill="white"/>
<path d="M650 60H638V72H650V60Z" fill="white"/>
<path d="M650 514H638V502H650V514Z" fill="white"/>
<path d="M60 514H72V502H60V514Z" fill="white"/>
<path d="M48 60H60V72H48V60Z" fill="white"/>
<path d="M662 60H650V72H662V60Z" fill="white"/>
<path d="M662 514H650V502H662V514Z" fill="white"/>
<path d="M48 514H60V502H48V514Z" fill="white"/>
<path d="M48 48H60V60H48V48Z" fill="white"/>
<path d="M662 48H650V60H662V48Z" fill="white"/>
<path d="M662 526H650V514H662V526Z" fill="white"/>
<path d="M48 526H60V514H48V526Z" fill="white"/>
<path d="M48 36H60V48H48V36Z" fill="white"/>
<path d="M662 36H650V48H662V36Z" fill="white"/>
<path d="M662 538H650V526H662V538Z" fill="white"/>
<path d="M48 538H60V526H48V538Z" fill="white"/>
<path d="M48 24H60V36H48V24Z" fill="white"/>
<path d="M662 24H650V36H662V24Z" fill="white"/>
<path d="M662 550H650V538H662V550Z" fill="white"/>
<path d="M48 550H60V538H48V550Z" fill="white"/>
<path d="M36 60H48V72H36V60Z" fill="white"/>
<path d="M674 60H662V72H674V60Z" fill="white"/>
<path d="M674 514H662V502H674V514Z" fill="white"/>
<path d="M36 514H48V502H36V514Z" fill="white"/>
<path d="M36 48H48V60H36V48Z" fill="white"/>
<path d="M674 48H662V60H674V48Z" fill="white"/>
<path d="M674 526H662V514H674V526Z" fill="white"/>
<path d="M36 526H48V514H36V526Z" fill="white"/>
<path d="M36 36H48V48H36V36Z" fill="white"/>
<path d="M674 36H662V48H674V36Z" fill="white"/>
<path d="M674 538H662V526H674V538Z" fill="white"/>
<path d="M36 538H48V526H36V538Z" fill="white"/>
<path d="M24 60H36V72H24V60Z" fill="white"/>
<path d="M686 60H674V72H686V60Z" fill="white"/>
<path d="M686 514H674V502H686V514Z" fill="white"/>
<path d="M24 514H36V502H24V514Z" fill="white"/>
<path d="M24 48H36V60H24V48Z" fill="white"/>
<path d="M686 48H674V60H686V48Z" fill="white"/>
<path d="M686 526H674V514H686V526Z" fill="white"/>
<path d="M24 526H36V514H24V526Z" fill="white"/>
<path d="M72 12H638V562H72V12Z" fill="white"/>
<path d="M12 72H698V502H12V72Z" fill="white"/>
</svg>
