<?xml version="1.0" encoding="utf-8"?>
<!-- Generator: Adobe Illustrator 27.0.0, SVG Export Plug-In . SVG Version: 6.00 Build 0)  -->
<svg version="1.1" id="圖層_1" xmlns="http://www.w3.org/2000/svg" xmlns:xlink="http://www.w3.org/1999/xlink" x="0px" y="0px"
	 viewBox="0 0 1440 1024" style="enable-background:new 0 0 1440 1024;" xml:space="preserve">
<style type="text/css">
	.st0{fill:#4CD30C;}
	.st1{fill-rule:evenodd;clip-rule:evenodd;}
	.st2{fill:none;stroke:#4CD30C;stroke-width:3;}
</style>
<path class="st0" d="M0,18h18v1006H0V18z"/>
<rect class="st0" width="111.6" height="18"/>
<rect x="94.9" y="42" class="st0" width="111.6" height="18"/>
<rect x="94.9" class="st0" width="16.7" height="60"/>
<rect x="189.8" class="st0" width="16.7" height="60"/>
<rect class="st0" width="111.6" height="18"/>
<rect x="94.9" y="42" class="st0" width="111.6" height="18"/>
<rect x="94.9" class="st0" width="16.7" height="60"/>
<rect x="189.8" class="st0" width="16.7" height="60"/>
<rect x="189.8" class="st0" width="111.6" height="18"/>
<rect x="284.7" y="42" class="st0" width="111.6" height="18"/>
<rect x="284.7" class="st0" width="16.7" height="60"/>
<rect x="379.6" class="st0" width="16.7" height="60"/>
<rect x="189.8" class="st0" width="111.6" height="18"/>
<rect x="284.7" y="42" class="st0" width="111.6" height="18"/>
<rect x="284.7" class="st0" width="16.7" height="60"/>
<rect x="379.6" class="st0" width="16.7" height="60"/>
<rect x="189.8" class="st0" width="111.6" height="18"/>
<rect x="284.7" y="42" class="st0" width="111.6" height="18"/>
<rect x="284.7" class="st0" width="16.7" height="60"/>
<rect x="379.6" class="st0" width="16.7" height="60"/>
<rect x="189.8" class="st0" width="111.6" height="18"/>
<rect x="284.7" y="42" class="st0" width="111.6" height="18"/>
<rect x="284.7" class="st0" width="16.7" height="60"/>
<rect x="379.6" class="st0" width="16.7" height="60"/>
<rect x="379.6" class="st0" width="111.6" height="18"/>
<rect x="474.5" y="42" class="st0" width="111.6" height="18"/>
<rect x="474.5" class="st0" width="16.7" height="60"/>
<rect x="569.3" class="st0" width="16.7" height="60"/>
<rect x="379.6" class="st0" width="111.6" height="18"/>
<rect x="474.5" y="42" class="st0" width="111.6" height="18"/>
<rect x="474.5" class="st0" width="16.7" height="60"/>
<rect x="569.3" class="st0" width="111.6" height="18"/>
<rect x="569.3" class="st0" width="16.7" height="60"/>
<rect x="664.2" y="42" class="st0" width="111.6" height="18"/>
<rect x="664.2" class="st0" width="16.7" height="60"/>
<rect x="759.1" class="st0" width="16.7" height="60"/>
<rect x="569.3" class="st0" width="111.6" height="18"/>
<rect x="664.2" y="42" class="st0" width="111.6" height="18"/>
<rect x="664.2" class="st0" width="16.7" height="60"/>
<rect x="759.1" class="st0" width="16.7" height="60"/>
<rect x="759.1" class="st0" width="111.6" height="18"/>
<rect x="854" y="42" class="st0" width="111.6" height="18"/>
<rect x="854" class="st0" width="16.7" height="60"/>
<rect x="948.9" class="st0" width="16.7" height="60"/>
<rect x="759.1" class="st0" width="111.6" height="18"/>
<rect x="854" y="42" class="st0" width="111.6" height="18"/>
<rect x="854" class="st0" width="16.7" height="60"/>
<rect x="948.9" class="st0" width="16.7" height="60"/>
<rect x="948.9" class="st0" width="111.6" height="18"/>
<rect x="1043.8" y="42" class="st0" width="111.6" height="18"/>
<rect x="1043.8" class="st0" width="16.7" height="60"/>
<rect x="1138.7" class="st0" width="16.7" height="60"/>
<rect x="948.9" class="st0" width="111.6" height="18"/>
<rect x="1043.8" y="42" class="st0" width="111.6" height="18"/>
<rect x="1043.8" class="st0" width="16.7" height="60"/>
<rect x="1138.7" class="st0" width="16.7" height="60"/>
<rect x="1138.7" class="st0" width="111.6" height="18"/>
<rect x="1233.6" y="42" class="st0" width="111.6" height="18"/>
<rect x="1233.6" class="st0" width="16.7" height="60"/>
<rect x="1328.5" class="st0" width="16.7" height="60"/>
<rect x="1138.7" class="st0" width="111.6" height="18"/>
<rect x="1233.6" y="42" class="st0" width="111.6" height="18"/>
<rect x="1233.6" class="st0" width="16.7" height="60"/>
<rect x="1328.5" class="st0" width="16.7" height="60"/>
<rect x="1328.5" class="st0" width="111.6" height="18"/>
<rect x="1423" class="st0" width="17" height="1024"/>
<path class="st1" d="M18,1024h1405V18h-77.8v24v18h-16.8h-78.1h-16.8V42V18h-78.1v24v18h-16.8h-78.1h-16.8V42V18h-78.1v24v18h-16.7
	h-78.1H854V42V18h-78.1v24v18h-16.7H681h-16.7V42V18h-78.1v24v18h-16.7h-78.1h-16.7V42V18h-78.1v24v18h-16.7h-78.1h-16.7V42V18
	h-78.1v24v18h-16.7h-78.1H94.9V42V18H18l-1,503L18,1024z"/>
<rect y="1008" class="st0" width="1440" height="16"/>
<rect x="40.5" y="70.5" class="st2" width="53" height="25"/>
<rect x="67" y="94" class="st0" width="56" height="28"/>
<rect x="68.5" y="95.5" class="st2" width="53" height="25"/>
<rect x="88.5" y="191.5" class="st2" width="53" height="25"/>
<rect x="462.5" y="268.5" class="st2" width="53" height="25"/>
<rect x="776" y="51" class="st0" width="56" height="28"/>
<rect x="777.5" y="52.5" class="st2" width="53" height="25"/>
<rect x="1028" y="319" class="st0" width="56" height="28"/>
<rect x="1029.5" y="320.5" class="st2" width="53" height="25"/>
<rect x="1305" y="214" class="st0" width="56" height="28"/>
<rect x="1306.5" y="215.5" class="st2" width="53" height="25"/>
<rect x="1367" y="95" class="st0" width="56" height="28"/>
<rect x="1368.5" y="96.5" class="st2" width="53" height="25"/>
<rect x="805.5" y="77.5" class="st2" width="53" height="25"/>
<rect x="1000.5" y="345.5" class="st2" width="53" height="25"/>
<rect x="1371.5" y="331.5" class="st2" width="53" height="25"/>
<rect x="1278.5" y="243.5" class="st2" width="53" height="25"/>
<rect x="1340.5" y="68.5" class="st2" width="53" height="25"/>
<rect x="489" y="292" class="st0" width="56" height="28"/>
<rect x="490.5" y="293.5" class="st2" width="53" height="25"/>
<rect x="56" y="306" class="st0" width="56" height="28"/>
<rect x="57.5" y="307.5" class="st2" width="53" height="25"/>
<rect x="285" y="114" class="st0" width="56" height="28"/>
<rect x="286.5" y="115.5" class="st2" width="53" height="25"/>
<rect x="29.5" y="332.5" class="st2" width="53" height="25"/>
</svg>
