<svg width="443" height="634" viewBox="0 0 443 634" fill="none" xmlns="http://www.w3.org/2000/svg">
<rect y="192" width="12" height="442" fill="#4CD30C"/>
<rect x="24" y="204" width="12" height="418" fill="#4CD30C"/>
<rect x="407" y="204" width="12" height="418" fill="#4CD30C"/>
<rect x="12" y="144" width="12" height="48" fill="#4CD30C"/>
<rect x="36" y="156" width="12" height="48" fill="#4CD30C"/>
<rect x="394" y="156" width="12" height="48" fill="#4CD30C"/>
<rect x="35" y="544" width="12" height="48" fill="#4CD30C"/>
<rect x="71" y="544" width="12" height="48" fill="#4CD30C"/>
<rect x="107" y="544" width="12" height="48" fill="#4CD30C"/>
<rect x="143" y="544" width="12" height="48" fill="#4CD30C"/>
<rect x="179" y="544" width="12" height="48" fill="#4CD30C"/>
<rect x="215" y="544" width="12" height="48" fill="#4CD30C"/>
<rect x="251" y="544" width="12" height="48" fill="#4CD30C"/>
<rect x="287" y="544" width="12" height="48" fill="#4CD30C"/>
<rect x="323" y="544" width="12" height="48" fill="#4CD30C"/>
<rect x="359" y="544" width="12" height="48" fill="#4CD30C"/>
<rect x="395" y="544" width="12" height="48" fill="#4CD30C"/>
<rect x="418" y="144" width="12" height="48" fill="#4CD30C"/>
<rect x="24" y="120" width="12" height="24" fill="#4CD30C"/>
<rect x="48" y="132" width="12" height="24" fill="#4CD30C"/>
<rect x="382" y="132" width="12" height="24" fill="#4CD30C"/>
<rect x="406" y="120" width="12" height="24" fill="#4CD30C"/>
<rect x="36" y="96" width="12" height="24" fill="#4CD30C"/>
<rect x="60" y="108" width="12" height="24" fill="#4CD30C"/>
<rect x="370" y="108" width="12" height="24" fill="#4CD30C"/>
<rect x="394" y="96" width="12" height="24" fill="#4CD30C"/>
<rect x="48" y="84" width="12" height="12" fill="#4CD30C"/>
<rect x="66" y="96" width="12" height="12" fill="#4CD30C"/>
<rect x="364" y="96" width="12" height="12" fill="#4CD30C"/>
<rect x="382" y="84" width="12" height="12" fill="#4CD30C"/>
<rect x="60" y="72" width="12" height="12" fill="#4CD30C"/>
<rect x="72" y="84" width="12" height="12" fill="#4CD30C"/>
<rect x="358" y="84" width="12" height="12" fill="#4CD30C"/>
<rect x="370" y="72" width="12" height="12" fill="#4CD30C"/>
<rect x="72" y="60" width="12" height="12" fill="#4CD30C"/>
<rect x="84" y="72" width="12" height="12" fill="#4CD30C"/>
<rect x="346" y="72" width="12" height="12" fill="#4CD30C"/>
<rect x="84" y="48" width="12" height="12" fill="#4CD30C"/>
<rect x="90" y="60" width="12" height="12" fill="#4CD30C"/>
<rect x="340" y="60" width="12" height="12" fill="#4CD30C"/>
<rect x="346" y="48" width="12" height="12" fill="#4CD30C"/>
<rect x="96" y="36" width="12" height="12" fill="#4CD30C"/>
<rect x="102" y="48" width="12" height="12" fill="#4CD30C"/>
<rect x="328" y="48" width="12" height="12" fill="#4CD30C"/>
<rect x="334" y="36" width="12" height="12" fill="#4CD30C"/>
<rect x="132" y="24" width="24" height="12" fill="#4CD30C"/>
<rect x="286" y="24" width="24" height="12" fill="#4CD30C"/>
<rect x="108" y="24" width="24" height="12" fill="#4CD30C"/>
<rect x="114" y="36" width="24" height="12" fill="#4CD30C"/>
<rect x="304" y="36" width="24" height="12" fill="#4CD30C"/>
<rect x="310" y="24" width="24" height="12" fill="#4CD30C"/>
<rect x="132" y="12" width="60" height="12" fill="#4CD30C"/>
<rect x="251" y="12" width="60" height="12" fill="#4CD30C"/>
<rect x="358" y="60" width="12" height="12" fill="#4CD30C"/>
<rect x="431" y="192" width="12" height="442" fill="#4CD30C"/>
<rect width="442" height="12" transform="matrix(1 0 0 -1 0 634)" fill="#4CD30C"/>
<rect width="395" height="6" transform="matrix(1 0 0 -1 24 544)" fill="#4CD30C"/>
<rect width="395" height="24" transform="matrix(1 0 0 -1 24 616)" fill="#4CD30C"/>
<rect x="161" width="120" height="12" fill="#4CD30C"/>
</svg>
